<?xml version="1.0"?>
<svg xmlns="http://www.w3.org/2000/svg" xmlns:xlink="http://www.w3.org/1999/xlink" viewBox="0 0 362.000000 144.000000" width="181.000000mm" height="72.000000mm" version="1.1">
<a xlink:href="upperBore-0x27896e0.svg">
<rect x="1.000000" y="1.000000" width="361.000000" height="143.000000" rx="0" ry="0" style="stroke:none;fill:#cccccc;"/>
<rect x="0.000000" y="0.000000" width="361.000000" height="143.000000" rx="0" ry="0" style="stroke:none;fill:#ffffff;"/>
</a>
<text x="10.000000" y="7.000000" font-family="Arial" font-size="7"></text>
<a xlink:href="b0d-0x26ee980.svg">
<rect x="81.000000" y="45.000000" width="24.000000" height="24.000000" rx="0" ry="0" style="stroke:none;fill:#cccccc;"/>
<rect x="80.000000" y="44.000000" width="24.000000" height="24.000000" rx="0" ry="0" style="stroke:none;fill:#003366;"/>
</a>
<a xlink:href="b0d-0x26ee980.svg">
<text x="92.000000" y="58.000000" font-family="Arial" font-size="7" text-anchor="middle" fill="#FFFFFF">b0d</text>
</a>
<circle cx="82.000000" cy="46.000000" r="1"/>
<rect x="121.000000" y="41.000000" width="24.000000" height="24.000000" rx="0" ry="0" style="stroke:none;fill:#cccccc;"/>
<rect x="120.000000" y="40.000000" width="24.000000" height="24.000000" rx="0" ry="0" style="stroke:none;fill:#4B71A1;"/>
<text x="132.000000" y="54.000000" font-family="Arial" font-size="7" text-anchor="middle" fill="#FFFFFF">*</text>
<circle cx="122.000000" cy="42.000000" r="1"/>
<line x1="117.000000" y1="47.000000" x2="120.000000" y2="48.000000"  transform="rotate(0.000000,120.000000,48.000000)" style="stroke: black; stroke-width:0.25;"/>
<line x1="117.000000" y1="49.000000" x2="120.000000" y2="48.000000"  transform="rotate(0.000000,120.000000,48.000000)" style="stroke: black; stroke-width:0.25;"/>
<line x1="117.000000" y1="55.000000" x2="120.000000" y2="56.000000"  transform="rotate(0.000000,120.000000,56.000000)" style="stroke: black; stroke-width:0.25;"/>
<line x1="117.000000" y1="57.000000" x2="120.000000" y2="56.000000"  transform="rotate(0.000000,120.000000,56.000000)" style="stroke: black; stroke-width:0.25;"/>
<rect x="61.000000" y="81.000000" width="24.000000" height="24.000000" rx="0" ry="0" style="stroke:none;fill:#cccccc;"/>
<rect x="60.000000" y="80.000000" width="24.000000" height="24.000000" rx="0" ry="0" style="stroke:none;fill:#4B71A1;"/>
<text x="72.000000" y="94.000000" font-family="Arial" font-size="7" text-anchor="middle" fill="#FFFFFF">mem</text>
<circle cx="62.000000" cy="82.000000" r="1"/>
<line x1="57.000000" y1="91.000000" x2="60.000000" y2="92.000000"  transform="rotate(0.000000,60.000000,92.000000)" style="stroke: black; stroke-width:0.25;"/>
<line x1="57.000000" y1="93.000000" x2="60.000000" y2="92.000000"  transform="rotate(0.000000,60.000000,92.000000)" style="stroke: black; stroke-width:0.25;"/>
<a xlink:href="b1d-0x26ee120.svg">
<rect x="101.000000" y="85.000000" width="24.000000" height="24.000000" rx="0" ry="0" style="stroke:none;fill:#cccccc;"/>
<rect x="100.000000" y="84.000000" width="24.000000" height="24.000000" rx="0" ry="0" style="stroke:none;fill:#003366;"/>
</a>
<a xlink:href="b1d-0x26ee120.svg">
<text x="112.000000" y="98.000000" font-family="Arial" font-size="7" text-anchor="middle" fill="#FFFFFF">b1d</text>
</a>
<circle cx="102.000000" cy="86.000000" r="1"/>
<rect x="141.000000" y="81.000000" width="24.000000" height="24.000000" rx="0" ry="0" style="stroke:none;fill:#cccccc;"/>
<rect x="140.000000" y="80.000000" width="24.000000" height="24.000000" rx="0" ry="0" style="stroke:none;fill:#4B71A1;"/>
<text x="152.000000" y="94.000000" font-family="Arial" font-size="7" text-anchor="middle" fill="#FFFFFF">*</text>
<circle cx="142.000000" cy="82.000000" r="1"/>
<line x1="137.000000" y1="87.000000" x2="140.000000" y2="88.000000"  transform="rotate(0.000000,140.000000,88.000000)" style="stroke: black; stroke-width:0.25;"/>
<line x1="137.000000" y1="89.000000" x2="140.000000" y2="88.000000"  transform="rotate(0.000000,140.000000,88.000000)" style="stroke: black; stroke-width:0.25;"/>
<line x1="137.000000" y1="95.000000" x2="140.000000" y2="96.000000"  transform="rotate(0.000000,140.000000,96.000000)" style="stroke: black; stroke-width:0.25;"/>
<line x1="137.000000" y1="97.000000" x2="140.000000" y2="96.000000"  transform="rotate(0.000000,140.000000,96.000000)" style="stroke: black; stroke-width:0.25;"/>
<rect x="267.000000" y="97.000000" width="24.000000" height="24.000000" rx="0" ry="0" style="stroke:none;fill:#cccccc;"/>
<rect x="266.000000" y="96.000000" width="24.000000" height="24.000000" rx="0" ry="0" style="stroke:none;fill:#4B71A1;"/>
<text x="278.000000" y="110.000000" font-family="Arial" font-size="7" text-anchor="middle" fill="#FFFFFF">+</text>
<circle cx="268.000000" cy="98.000000" r="1"/>
<line x1="263.000000" y1="103.000000" x2="266.000000" y2="104.000000"  transform="rotate(0.000000,266.000000,104.000000)" style="stroke: black; stroke-width:0.25;"/>
<line x1="263.000000" y1="105.000000" x2="266.000000" y2="104.000000"  transform="rotate(0.000000,266.000000,104.000000)" style="stroke: black; stroke-width:0.25;"/>
<line x1="263.000000" y1="111.000000" x2="266.000000" y2="112.000000"  transform="rotate(0.000000,266.000000,112.000000)" style="stroke: black; stroke-width:0.25;"/>
<line x1="263.000000" y1="113.000000" x2="266.000000" y2="112.000000"  transform="rotate(0.000000,266.000000,112.000000)" style="stroke: black; stroke-width:0.25;"/>
<rect x="307.000000" y="57.000000" width="24.000000" height="24.000000" rx="0" ry="0" style="stroke:none;fill:#cccccc;"/>
<rect x="306.000000" y="56.000000" width="24.000000" height="24.000000" rx="0" ry="0" style="stroke:none;fill:#f44800;"/>
<text x="318.000000" y="70.000000" font-family="Arial" font-size="7" text-anchor="middle" fill="#FFFFFF">0</text>
<circle cx="328.000000" cy="78.000000" r="1"/>
<a xlink:href="a1d-0x26ecd80.svg">
<rect x="307.000000" y="25.000000" width="24.000000" height="24.000000" rx="0" ry="0" style="stroke:none;fill:#cccccc;"/>
<rect x="306.000000" y="24.000000" width="24.000000" height="24.000000" rx="0" ry="0" style="stroke:none;fill:#003366;"/>
</a>
<a xlink:href="a1d-0x26ecd80.svg">
<text x="318.000000" y="38.000000" font-family="Arial" font-size="7" text-anchor="middle" fill="#FFFFFF">a1d</text>
</a>
<circle cx="328.000000" cy="46.000000" r="1"/>
<rect x="267.000000" y="41.000000" width="24.000000" height="24.000000" rx="0" ry="0" style="stroke:none;fill:#cccccc;"/>
<rect x="266.000000" y="40.000000" width="24.000000" height="24.000000" rx="0" ry="0" style="stroke:none;fill:#4B71A1;"/>
<text x="278.000000" y="54.000000" font-family="Arial" font-size="7" text-anchor="middle" fill="#FFFFFF">-</text>
<circle cx="288.000000" cy="62.000000" r="1"/>
<line x1="293.000000" y1="55.000000" x2="290.000000" y2="56.000000"  transform="rotate(0.000000,290.000000,56.000000)" style="stroke: black; stroke-width:0.25;"/>
<line x1="293.000000" y1="57.000000" x2="290.000000" y2="56.000000"  transform="rotate(0.000000,290.000000,56.000000)" style="stroke: black; stroke-width:0.25;"/>
<line x1="293.000000" y1="47.000000" x2="290.000000" y2="48.000000"  transform="rotate(0.000000,290.000000,48.000000)" style="stroke: black; stroke-width:0.25;"/>
<line x1="293.000000" y1="49.000000" x2="290.000000" y2="48.000000"  transform="rotate(0.000000,290.000000,48.000000)" style="stroke: black; stroke-width:0.25;"/>
<rect x="227.000000" y="45.000000" width="24.000000" height="24.000000" rx="0" ry="0" style="stroke:none;fill:#cccccc;"/>
<rect x="226.000000" y="44.000000" width="24.000000" height="24.000000" rx="0" ry="0" style="stroke:none;fill:#4B71A1;"/>
<text x="238.000000" y="58.000000" font-family="Arial" font-size="7" text-anchor="middle" fill="#FFFFFF">*</text>
<circle cx="248.000000" cy="66.000000" r="1"/>
<line x1="253.000000" y1="59.000000" x2="250.000000" y2="60.000000"  transform="rotate(0.000000,250.000000,60.000000)" style="stroke: black; stroke-width:0.25;"/>
<line x1="253.000000" y1="61.000000" x2="250.000000" y2="60.000000"  transform="rotate(0.000000,250.000000,60.000000)" style="stroke: black; stroke-width:0.25;"/>
<line x1="253.000000" y1="51.000000" x2="250.000000" y2="52.000000"  transform="rotate(0.000000,250.000000,52.000000)" style="stroke: black; stroke-width:0.25;"/>
<line x1="253.000000" y1="53.000000" x2="250.000000" y2="52.000000"  transform="rotate(0.000000,250.000000,52.000000)" style="stroke: black; stroke-width:0.25;"/>
<line x1="332.000000" y1="108.000000" x2="332.000000" y2="104.000000"  style="stroke:black; stroke-linecap:round; stroke-width:0.25;"/>
<line x1="332.000000" y1="104.000000" x2="336.000000" y2="104.000000"  style="stroke:black; stroke-linecap:round; stroke-width:0.25;"/>
<line x1="336.000000" y1="104.000000" x2="336.000000" y2="108.000000"  style="stroke:black; stroke-linecap:round; stroke-width:0.25;"/>
<line x1="15.000000" y1="15.000000" x2="15.000000" y2="129.000000"  style="stroke: black; stroke-linecap:round; stroke-width:0.25; stroke-dasharray:3,3;"/>
<line x1="15.000000" y1="129.000000" x2="347.000000" y2="129.000000"  style="stroke: black; stroke-linecap:round; stroke-width:0.25; stroke-dasharray:3,3;"/>
<line x1="347.000000" y1="129.000000" x2="347.000000" y2="15.000000"  style="stroke: black; stroke-linecap:round; stroke-width:0.25; stroke-dasharray:3,3;"/>
<line x1="15.000000" y1="15.000000" x2="20.000000" y2="15.000000"  style="stroke: black; stroke-linecap:round; stroke-width:0.25; stroke-dasharray:3,3;"/>
<line x1="84.500000" y1="15.000000" x2="347.000000" y2="15.000000"  style="stroke: black; stroke-linecap:round; stroke-width:0.25; stroke-dasharray:3,3;"/>
<text x="20.000000" y="17.000000" font-family="Arial" font-size="7">boundaryLossFilter</text>
<line x1="349.000000" y1="107.000000" x2="352.000000" y2="108.000000"  transform="rotate(0.000000,352.000000,108.000000)" style="stroke: black; stroke-width:0.25;"/>
<line x1="349.000000" y1="109.000000" x2="352.000000" y2="108.000000"  transform="rotate(0.000000,352.000000,108.000000)" style="stroke: black; stroke-width:0.25;"/>
<line x1="10.000000" y1="72.000000" x2="20.000000" y2="72.000000"  style="stroke:black; stroke-linecap:round; stroke-width:0.25;"/>
<line x1="20.000000" y1="72.000000" x2="24.000000" y2="72.000000"  style="stroke:black; stroke-linecap:round; stroke-width:0.25;"/>
<line x1="24.000000" y1="72.000000" x2="28.000000" y2="72.000000"  style="stroke:black; stroke-linecap:round; stroke-width:0.25;"/>
<line x1="28.000000" y1="72.000000" x2="56.000000" y2="36.000000"  style="stroke:black; stroke-linecap:round; stroke-width:0.25;"/>
<line x1="28.000000" y1="72.000000" x2="56.000000" y2="92.000000"  style="stroke:black; stroke-linecap:round; stroke-width:0.25;"/>
<line x1="56.000000" y1="36.000000" x2="76.000000" y2="36.000000"  style="stroke:black; stroke-linecap:round; stroke-width:0.25;"/>
<line x1="56.000000" y1="92.000000" x2="60.000000" y2="92.000000"  style="stroke:black; stroke-linecap:round; stroke-width:0.25;"/>
<line x1="76.000000" y1="36.000000" x2="92.000000" y2="36.000000"  style="stroke:black; stroke-linecap:round; stroke-width:0.25;"/>
<line x1="84.000000" y1="92.000000" x2="88.000000" y2="92.000000"  style="stroke:black; stroke-linecap:round; stroke-width:0.25;"/>
<line x1="88.000000" y1="76.000000" x2="96.000000" y2="76.000000"  style="stroke:black; stroke-linecap:round; stroke-width:0.25;"/>
<line x1="88.000000" y1="92.000000" x2="88.000000" y2="76.000000"  style="stroke:black; stroke-linecap:round; stroke-width:0.25;"/>
<line x1="88.000000" y1="92.000000" x2="88.000000" y2="92.000000"  style="stroke:black; stroke-linecap:round; stroke-width:0.25;"/>
<line x1="92.000000" y1="36.000000" x2="108.000000" y2="36.000000"  style="stroke:black; stroke-linecap:round; stroke-width:0.25;"/>
<line x1="96.000000" y1="76.000000" x2="112.000000" y2="76.000000"  style="stroke:black; stroke-linecap:round; stroke-width:0.25;"/>
<line x1="104.000000" y1="56.000000" x2="108.000000" y2="56.000000"  style="stroke:black; stroke-linecap:round; stroke-width:0.25;"/>
<line x1="108.000000" y1="36.000000" x2="116.000000" y2="36.000000"  style="stroke:black; stroke-linecap:round; stroke-width:0.25;"/>
<line x1="108.000000" y1="56.000000" x2="116.000000" y2="56.000000"  style="stroke:black; stroke-linecap:round; stroke-width:0.25;"/>
<line x1="112.000000" y1="76.000000" x2="128.000000" y2="76.000000"  style="stroke:black; stroke-linecap:round; stroke-width:0.25;"/>
<line x1="116.000000" y1="36.000000" x2="116.000000" y2="48.000000"  style="stroke:black; stroke-linecap:round; stroke-width:0.25;"/>
<line x1="116.000000" y1="48.000000" x2="116.000000" y2="48.000000"  style="stroke:black; stroke-linecap:round; stroke-width:0.25;"/>
<line x1="116.000000" y1="48.000000" x2="120.000000" y2="48.000000"  style="stroke:black; stroke-linecap:round; stroke-width:0.25;"/>
<line x1="116.000000" y1="56.000000" x2="120.000000" y2="56.000000"  style="stroke:black; stroke-linecap:round; stroke-width:0.25;"/>
<line x1="124.000000" y1="96.000000" x2="128.000000" y2="96.000000"  style="stroke:black; stroke-linecap:round; stroke-width:0.25;"/>
<line x1="128.000000" y1="76.000000" x2="136.000000" y2="76.000000"  style="stroke:black; stroke-linecap:round; stroke-width:0.25;"/>
<line x1="128.000000" y1="96.000000" x2="136.000000" y2="96.000000"  style="stroke:black; stroke-linecap:round; stroke-width:0.25;"/>
<line x1="136.000000" y1="76.000000" x2="136.000000" y2="88.000000"  style="stroke:black; stroke-linecap:round; stroke-width:0.25;"/>
<line x1="136.000000" y1="88.000000" x2="136.000000" y2="88.000000"  style="stroke:black; stroke-linecap:round; stroke-width:0.25;"/>
<line x1="136.000000" y1="88.000000" x2="140.000000" y2="88.000000"  style="stroke:black; stroke-linecap:round; stroke-width:0.25;"/>
<line x1="136.000000" y1="96.000000" x2="140.000000" y2="96.000000"  style="stroke:black; stroke-linecap:round; stroke-width:0.25;"/>
<line x1="144.000000" y1="52.000000" x2="148.000000" y2="52.000000"  style="stroke:black; stroke-linecap:round; stroke-width:0.25;"/>
<line x1="148.000000" y1="52.000000" x2="168.000000" y2="52.000000"  style="stroke:black; stroke-linecap:round; stroke-width:0.25;"/>
<line x1="164.000000" y1="92.000000" x2="168.000000" y2="92.000000"  style="stroke:black; stroke-linecap:round; stroke-width:0.25;"/>
<line x1="168.000000" y1="52.000000" x2="214.000000" y2="112.000000"  style="stroke:black; stroke-linecap:round; stroke-width:0.25;"/>
<line x1="168.000000" y1="92.000000" x2="214.000000" y2="112.000000"  style="stroke:black; stroke-linecap:round; stroke-width:0.25;"/>
<line x1="214.000000" y1="112.000000" x2="222.000000" y2="112.000000"  style="stroke:black; stroke-linecap:round; stroke-width:0.25;"/>
<line x1="222.000000" y1="56.000000" x2="222.000000" y2="56.000000"  style="stroke:black; stroke-linecap:round; stroke-width:0.25;"/>
<line x1="222.000000" y1="56.000000" x2="222.000000" y2="104.000000"  style="stroke:black; stroke-linecap:round; stroke-width:0.25;"/>
<line x1="222.000000" y1="104.000000" x2="222.000000" y2="104.000000"  style="stroke:black; stroke-linecap:round; stroke-width:0.25;"/>
<line x1="222.000000" y1="104.000000" x2="262.000000" y2="104.000000"  style="stroke:black; stroke-linecap:round; stroke-width:0.25;"/>
<line x1="222.000000" y1="112.000000" x2="262.000000" y2="112.000000"  style="stroke:black; stroke-linecap:round; stroke-width:0.25;"/>
<line x1="226.000000" y1="56.000000" x2="222.000000" y2="56.000000"  style="stroke:black; stroke-linecap:round; stroke-width:0.25;"/>
<line x1="254.000000" y1="52.000000" x2="250.000000" y2="52.000000"  style="stroke:black; stroke-linecap:round; stroke-width:0.25;"/>
<line x1="254.000000" y1="60.000000" x2="250.000000" y2="60.000000"  style="stroke:black; stroke-linecap:round; stroke-width:0.25;"/>
<line x1="254.000000" y1="60.000000" x2="254.000000" y2="60.000000"  style="stroke:black; stroke-linecap:round; stroke-width:0.25;"/>
<line x1="254.000000" y1="88.000000" x2="254.000000" y2="60.000000"  style="stroke:black; stroke-linecap:round; stroke-width:0.25;"/>
<line x1="262.000000" y1="52.000000" x2="254.000000" y2="52.000000"  style="stroke:black; stroke-linecap:round; stroke-width:0.25;"/>
<line x1="262.000000" y1="88.000000" x2="254.000000" y2="88.000000"  style="stroke:black; stroke-linecap:round; stroke-width:0.25;"/>
<line x1="262.000000" y1="104.000000" x2="266.000000" y2="104.000000"  style="stroke:black; stroke-linecap:round; stroke-width:0.25;"/>
<line x1="262.000000" y1="112.000000" x2="266.000000" y2="112.000000"  style="stroke:black; stroke-linecap:round; stroke-width:0.25;"/>
<line x1="266.000000" y1="52.000000" x2="262.000000" y2="52.000000"  style="stroke:black; stroke-linecap:round; stroke-width:0.25;"/>
<line x1="290.000000" y1="108.000000" x2="294.000000" y2="108.000000"  style="stroke:black; stroke-linecap:round; stroke-width:0.25;"/>
<line x1="294.000000" y1="48.000000" x2="290.000000" y2="48.000000"  style="stroke:black; stroke-linecap:round; stroke-width:0.25;"/>
<line x1="294.000000" y1="56.000000" x2="290.000000" y2="56.000000"  style="stroke:black; stroke-linecap:round; stroke-width:0.25;"/>
<line x1="294.000000" y1="56.000000" x2="294.000000" y2="56.000000"  style="stroke:black; stroke-linecap:round; stroke-width:0.25;"/>
<line x1="294.000000" y1="68.000000" x2="294.000000" y2="56.000000"  style="stroke:black; stroke-linecap:round; stroke-width:0.25;"/>
<line x1="294.000000" y1="108.000000" x2="334.000000" y2="108.000000"  style="stroke:black; stroke-linecap:round; stroke-width:0.25;"/>
<line x1="298.000000" y1="88.000000" x2="262.000000" y2="88.000000"  style="stroke:black; stroke-linecap:round; stroke-width:0.25;"/>
<line x1="302.000000" y1="36.000000" x2="302.000000" y2="36.000000"  style="stroke:black; stroke-linecap:round; stroke-width:0.25;"/>
<line x1="302.000000" y1="36.000000" x2="302.000000" y2="48.000000"  style="stroke:black; stroke-linecap:round; stroke-width:0.25;"/>
<line x1="302.000000" y1="48.000000" x2="294.000000" y2="48.000000"  style="stroke:black; stroke-linecap:round; stroke-width:0.25;"/>
<line x1="302.000000" y1="68.000000" x2="294.000000" y2="68.000000"  style="stroke:black; stroke-linecap:round; stroke-width:0.25;"/>
<line x1="306.000000" y1="36.000000" x2="302.000000" y2="36.000000"  style="stroke:black; stroke-linecap:round; stroke-width:0.25;"/>
<line x1="306.000000" y1="68.000000" x2="302.000000" y2="68.000000"  style="stroke:black; stroke-linecap:round; stroke-width:0.25;"/>
<line x1="334.000000" y1="88.000000" x2="298.000000" y2="88.000000"  style="stroke:black; stroke-linecap:round; stroke-width:0.25;"/>
<line x1="334.000000" y1="88.000000" x2="334.000000" y2="88.000000"  style="stroke:black; stroke-linecap:round; stroke-width:0.25;"/>
<line x1="334.000000" y1="104.000000" x2="334.000000" y2="88.000000"  style="stroke:black; stroke-linecap:round; stroke-width:0.25;"/>
<line x1="334.000000" y1="108.000000" x2="336.000000" y2="108.000000"  style="stroke:black; stroke-linecap:round; stroke-width:0.25;"/>
<line x1="336.000000" y1="108.000000" x2="342.000000" y2="108.000000"  style="stroke:black; stroke-linecap:round; stroke-width:0.25;"/>
<line x1="342.000000" y1="108.000000" x2="352.000000" y2="108.000000"  style="stroke:black; stroke-linecap:round; stroke-width:0.25;"/>
</svg>
