<?xml version="1.0"?>
<svg xmlns="http://www.w3.org/2000/svg" xmlns:xlink="http://www.w3.org/1999/xlink" viewBox="0 0 201.800000 152.000000" width="100.900000mm" height="76.000000mm" version="1.1">
<a xlink:href="upperBore-0x2ac5a40.svg">
<rect x="1.000000" y="1.000000" width="200.800000" height="151.000000" rx="0" ry="0" style="stroke:none;fill:#cccccc;"/>
<rect x="0.000000" y="0.000000" width="200.800000" height="151.000000" rx="0" ry="0" style="stroke:none;fill:#ffffff;"/>
</a>
<text x="10.000000" y="7.000000" font-family="Arial" font-size="7"></text>
<rect x="25.000000" y="65.000000" width="24.000000" height="24.000000" rx="0" ry="0" style="stroke:none;fill:#cccccc;"/>
<rect x="24.000000" y="64.000000" width="24.000000" height="24.000000" rx="0" ry="0" style="stroke:none;fill:#47945E;"/>
<text x="36.000000" y="78.000000" font-family="Arial" font-size="7" text-anchor="middle" fill="#FFFFFF">x</text>
<circle cx="26.000000" cy="66.000000" r="1"/>
<line x1="21.000000" y1="75.000000" x2="24.000000" y2="76.000000"  transform="rotate(0.000000,24.000000,76.000000)" style="stroke: black; stroke-width:0.25;"/>
<line x1="21.000000" y1="77.000000" x2="24.000000" y2="76.000000"  transform="rotate(0.000000,24.000000,76.000000)" style="stroke: black; stroke-width:0.25;"/>
<rect x="65.000000" y="33.000000" width="25.800000" height="24.000000" rx="0" ry="0" style="stroke:none;fill:#cccccc;"/>
<rect x="64.000000" y="32.000000" width="25.800000" height="24.000000" rx="0" ry="0" style="stroke:none;fill:#f44800;"/>
<text x="76.900000" y="46.000000" font-family="Arial" font-size="7" text-anchor="middle" fill="#FFFFFF">0.376</text>
<circle cx="66.000000" cy="34.000000" r="1"/>
<rect x="65.900000" y="65.000000" width="24.000000" height="24.000000" rx="0" ry="0" style="stroke:none;fill:#cccccc;"/>
<rect x="64.900000" y="64.000000" width="24.000000" height="24.000000" rx="0" ry="0" style="stroke:none;fill:#47945E;"/>
<text x="76.900000" y="78.000000" font-family="Arial" font-size="7" text-anchor="middle" fill="#FFFFFF">x</text>
<circle cx="66.900000" cy="66.000000" r="1"/>
<rect x="106.800000" y="49.000000" width="24.000000" height="24.000000" rx="0" ry="0" style="stroke:none;fill:#cccccc;"/>
<rect x="105.800000" y="48.000000" width="24.000000" height="24.000000" rx="0" ry="0" style="stroke:none;fill:#4B71A1;"/>
<text x="117.800000" y="62.000000" font-family="Arial" font-size="7" text-anchor="middle" fill="#FFFFFF">*</text>
<circle cx="107.800000" cy="50.000000" r="1"/>
<line x1="102.800000" y1="55.000000" x2="105.800000" y2="56.000000"  transform="rotate(0.000000,105.800000,56.000000)" style="stroke: black; stroke-width:0.25;"/>
<line x1="102.800000" y1="57.000000" x2="105.800000" y2="56.000000"  transform="rotate(0.000000,105.800000,56.000000)" style="stroke: black; stroke-width:0.25;"/>
<line x1="102.800000" y1="63.000000" x2="105.800000" y2="64.000000"  transform="rotate(0.000000,105.800000,64.000000)" style="stroke: black; stroke-width:0.25;"/>
<line x1="102.800000" y1="65.000000" x2="105.800000" y2="64.000000"  transform="rotate(0.000000,105.800000,64.000000)" style="stroke: black; stroke-width:0.25;"/>
<rect x="65.900000" y="97.000000" width="24.000000" height="24.000000" rx="0" ry="0" style="stroke:none;fill:#cccccc;"/>
<rect x="64.900000" y="96.000000" width="24.000000" height="24.000000" rx="0" ry="0" style="stroke:none;fill:#f44800;"/>
<text x="76.900000" y="110.000000" font-family="Arial" font-size="7" text-anchor="middle" fill="#FFFFFF">0.6</text>
<circle cx="66.900000" cy="98.000000" r="1"/>
<rect x="105.900000" y="101.000000" width="24.000000" height="24.000000" rx="0" ry="0" style="stroke:none;fill:#cccccc;"/>
<rect x="104.900000" y="100.000000" width="24.000000" height="24.000000" rx="0" ry="0" style="stroke:none;fill:#4B71A1;"/>
<text x="116.900000" y="114.000000" font-family="Arial" font-size="7" text-anchor="middle" fill="#FFFFFF">*</text>
<circle cx="106.900000" cy="102.000000" r="1"/>
<line x1="101.900000" y1="107.000000" x2="104.900000" y2="108.000000"  transform="rotate(0.000000,104.900000,108.000000)" style="stroke: black; stroke-width:0.25;"/>
<line x1="101.900000" y1="109.000000" x2="104.900000" y2="108.000000"  transform="rotate(0.000000,104.900000,108.000000)" style="stroke: black; stroke-width:0.25;"/>
<line x1="101.900000" y1="115.000000" x2="104.900000" y2="116.000000"  transform="rotate(0.000000,104.900000,116.000000)" style="stroke: black; stroke-width:0.25;"/>
<line x1="101.900000" y1="117.000000" x2="104.900000" y2="116.000000"  transform="rotate(0.000000,104.900000,116.000000)" style="stroke: black; stroke-width:0.25;"/>
<rect x="146.800000" y="69.000000" width="24.000000" height="24.000000" rx="0" ry="0" style="stroke:none;fill:#cccccc;"/>
<rect x="145.800000" y="68.000000" width="24.000000" height="24.000000" rx="0" ry="0" style="stroke:none;fill:#4B71A1;"/>
<text x="157.800000" y="82.000000" font-family="Arial" font-size="7" text-anchor="middle" fill="#FFFFFF">-</text>
<circle cx="147.800000" cy="70.000000" r="1"/>
<line x1="142.800000" y1="75.000000" x2="145.800000" y2="76.000000"  transform="rotate(0.000000,145.800000,76.000000)" style="stroke: black; stroke-width:0.25;"/>
<line x1="142.800000" y1="77.000000" x2="145.800000" y2="76.000000"  transform="rotate(0.000000,145.800000,76.000000)" style="stroke: black; stroke-width:0.25;"/>
<line x1="142.800000" y1="83.000000" x2="145.800000" y2="84.000000"  transform="rotate(0.000000,145.800000,84.000000)" style="stroke: black; stroke-width:0.25;"/>
<line x1="142.800000" y1="85.000000" x2="145.800000" y2="84.000000"  transform="rotate(0.000000,145.800000,84.000000)" style="stroke: black; stroke-width:0.25;"/>
<line x1="171.800000" y1="80.000000" x2="171.800000" y2="76.000000"  style="stroke:black; stroke-linecap:round; stroke-width:0.25;"/>
<line x1="171.800000" y1="76.000000" x2="175.800000" y2="76.000000"  style="stroke:black; stroke-linecap:round; stroke-width:0.25;"/>
<line x1="175.800000" y1="76.000000" x2="175.800000" y2="80.000000"  style="stroke:black; stroke-linecap:round; stroke-width:0.25;"/>
<line x1="15.000000" y1="15.000000" x2="15.000000" y2="137.000000"  style="stroke: black; stroke-linecap:round; stroke-width:0.25; stroke-dasharray:3,3;"/>
<line x1="15.000000" y1="137.000000" x2="186.800000" y2="137.000000"  style="stroke: black; stroke-linecap:round; stroke-width:0.25; stroke-dasharray:3,3;"/>
<line x1="186.800000" y1="137.000000" x2="186.800000" y2="15.000000"  style="stroke: black; stroke-linecap:round; stroke-width:0.25; stroke-dasharray:3,3;"/>
<line x1="15.000000" y1="15.000000" x2="20.000000" y2="15.000000"  style="stroke: black; stroke-linecap:round; stroke-width:0.25; stroke-dasharray:3,3;"/>
<line x1="84.500000" y1="15.000000" x2="186.800000" y2="15.000000"  style="stroke: black; stroke-linecap:round; stroke-width:0.25; stroke-dasharray:3,3;"/>
<text x="20.000000" y="17.000000" font-family="Arial" font-size="7">boundaryLossFilter</text>
<line x1="188.800000" y1="79.000000" x2="191.800000" y2="80.000000"  transform="rotate(0.000000,191.800000,80.000000)" style="stroke: black; stroke-width:0.25;"/>
<line x1="188.800000" y1="81.000000" x2="191.800000" y2="80.000000"  transform="rotate(0.000000,191.800000,80.000000)" style="stroke: black; stroke-width:0.25;"/>
<line x1="10.000000" y1="76.000000" x2="20.000000" y2="76.000000"  style="stroke:black; stroke-linecap:round; stroke-width:0.25;"/>
<line x1="20.000000" y1="76.000000" x2="24.000000" y2="76.000000"  style="stroke:black; stroke-linecap:round; stroke-width:0.25;"/>
<line x1="60.000000" y1="24.000000" x2="60.000000" y2="24.000000"  style="stroke:black; stroke-linecap:round; stroke-width:0.25;"/>
<line x1="60.000000" y1="24.000000" x2="60.000000" y2="128.000000"  style="stroke:black; stroke-linecap:round; stroke-width:0.25;"/>
<line x1="60.000000" y1="128.000000" x2="60.000000" y2="128.000000"  style="stroke:black; stroke-linecap:round; stroke-width:0.25;"/>
<line x1="60.000000" y1="128.000000" x2="60.900000" y2="128.000000"  style="stroke:black; stroke-linecap:round; stroke-width:0.25;"/>
<line x1="60.900000" y1="128.000000" x2="76.900000" y2="128.000000"  style="stroke:black; stroke-linecap:round; stroke-width:0.25;"/>
<line x1="76.900000" y1="128.000000" x2="92.900000" y2="128.000000"  style="stroke:black; stroke-linecap:round; stroke-width:0.25;"/>
<line x1="88.900000" y1="76.000000" x2="92.900000" y2="76.000000"  style="stroke:black; stroke-linecap:round; stroke-width:0.25;"/>
<line x1="88.900000" y1="108.000000" x2="92.900000" y2="108.000000"  style="stroke:black; stroke-linecap:round; stroke-width:0.25;"/>
<line x1="89.800000" y1="44.000000" x2="93.800000" y2="44.000000"  style="stroke:black; stroke-linecap:round; stroke-width:0.25;"/>
<line x1="92.900000" y1="76.000000" x2="93.800000" y2="76.000000"  style="stroke:black; stroke-linecap:round; stroke-width:0.25;"/>
<line x1="92.900000" y1="108.000000" x2="100.900000" y2="108.000000"  style="stroke:black; stroke-linecap:round; stroke-width:0.25;"/>
<line x1="92.900000" y1="116.000000" x2="100.900000" y2="116.000000"  style="stroke:black; stroke-linecap:round; stroke-width:0.25;"/>
<line x1="92.900000" y1="128.000000" x2="92.900000" y2="116.000000"  style="stroke:black; stroke-linecap:round; stroke-width:0.25;"/>
<line x1="92.900000" y1="128.000000" x2="92.900000" y2="128.000000"  style="stroke:black; stroke-linecap:round; stroke-width:0.25;"/>
<line x1="93.800000" y1="44.000000" x2="101.800000" y2="44.000000"  style="stroke:black; stroke-linecap:round; stroke-width:0.25;"/>
<line x1="93.800000" y1="64.000000" x2="101.800000" y2="64.000000"  style="stroke:black; stroke-linecap:round; stroke-width:0.25;"/>
<line x1="93.800000" y1="76.000000" x2="93.800000" y2="64.000000"  style="stroke:black; stroke-linecap:round; stroke-width:0.25;"/>
<line x1="93.800000" y1="76.000000" x2="93.800000" y2="76.000000"  style="stroke:black; stroke-linecap:round; stroke-width:0.25;"/>
<line x1="100.900000" y1="108.000000" x2="104.900000" y2="108.000000"  style="stroke:black; stroke-linecap:round; stroke-width:0.25;"/>
<line x1="100.900000" y1="116.000000" x2="104.900000" y2="116.000000"  style="stroke:black; stroke-linecap:round; stroke-width:0.25;"/>
<line x1="101.800000" y1="44.000000" x2="101.800000" y2="56.000000"  style="stroke:black; stroke-linecap:round; stroke-width:0.25;"/>
<line x1="101.800000" y1="56.000000" x2="101.800000" y2="56.000000"  style="stroke:black; stroke-linecap:round; stroke-width:0.25;"/>
<line x1="101.800000" y1="56.000000" x2="105.800000" y2="56.000000"  style="stroke:black; stroke-linecap:round; stroke-width:0.25;"/>
<line x1="101.800000" y1="64.000000" x2="105.800000" y2="64.000000"  style="stroke:black; stroke-linecap:round; stroke-width:0.25;"/>
<line x1="116.900000" y1="24.000000" x2="60.000000" y2="24.000000"  style="stroke:black; stroke-linecap:round; stroke-width:0.25;"/>
<line x1="128.900000" y1="112.000000" x2="132.900000" y2="112.000000"  style="stroke:black; stroke-linecap:round; stroke-width:0.25;"/>
<line x1="129.800000" y1="60.000000" x2="133.800000" y2="60.000000"  style="stroke:black; stroke-linecap:round; stroke-width:0.25;"/>
<line x1="132.900000" y1="112.000000" x2="133.800000" y2="112.000000"  style="stroke:black; stroke-linecap:round; stroke-width:0.25;"/>
<line x1="133.800000" y1="60.000000" x2="141.800000" y2="60.000000"  style="stroke:black; stroke-linecap:round; stroke-width:0.25;"/>
<line x1="133.800000" y1="84.000000" x2="141.800000" y2="84.000000"  style="stroke:black; stroke-linecap:round; stroke-width:0.25;"/>
<line x1="133.800000" y1="112.000000" x2="133.800000" y2="84.000000"  style="stroke:black; stroke-linecap:round; stroke-width:0.25;"/>
<line x1="133.800000" y1="112.000000" x2="133.800000" y2="112.000000"  style="stroke:black; stroke-linecap:round; stroke-width:0.25;"/>
<line x1="141.800000" y1="60.000000" x2="141.800000" y2="76.000000"  style="stroke:black; stroke-linecap:round; stroke-width:0.25;"/>
<line x1="141.800000" y1="76.000000" x2="141.800000" y2="76.000000"  style="stroke:black; stroke-linecap:round; stroke-width:0.25;"/>
<line x1="141.800000" y1="76.000000" x2="145.800000" y2="76.000000"  style="stroke:black; stroke-linecap:round; stroke-width:0.25;"/>
<line x1="141.800000" y1="84.000000" x2="145.800000" y2="84.000000"  style="stroke:black; stroke-linecap:round; stroke-width:0.25;"/>
<line x1="169.800000" y1="80.000000" x2="173.800000" y2="80.000000"  style="stroke:black; stroke-linecap:round; stroke-width:0.25;"/>
<line x1="173.800000" y1="24.000000" x2="116.900000" y2="24.000000"  style="stroke:black; stroke-linecap:round; stroke-width:0.25;"/>
<line x1="173.800000" y1="24.000000" x2="173.800000" y2="24.000000"  style="stroke:black; stroke-linecap:round; stroke-width:0.25;"/>
<line x1="173.800000" y1="76.000000" x2="173.800000" y2="24.000000"  style="stroke:black; stroke-linecap:round; stroke-width:0.25;"/>
<line x1="173.800000" y1="80.000000" x2="175.800000" y2="80.000000"  style="stroke:black; stroke-linecap:round; stroke-width:0.25;"/>
<line x1="175.800000" y1="80.000000" x2="181.800000" y2="80.000000"  style="stroke:black; stroke-linecap:round; stroke-width:0.25;"/>
<line x1="181.800000" y1="80.000000" x2="191.800000" y2="80.000000"  style="stroke:black; stroke-linecap:round; stroke-width:0.25;"/>
</svg>
