<?xml version="1.0"?>
<svg xmlns="http://www.w3.org/2000/svg" xmlns:xlink="http://www.w3.org/1999/xlink" viewBox="0 0 216.000000 188.000000" width="108.000000mm" height="94.000000mm" version="1.1">
<a xlink:href="upperBore-0x33b8fd0.svg">
<rect x="1.000000" y="1.000000" width="215.000000" height="187.000000" rx="0" ry="0" style="stroke:none;fill:#cccccc;"/>
<rect x="0.000000" y="0.000000" width="215.000000" height="187.000000" rx="0" ry="0" style="stroke:none;fill:#ffffff;"/>
</a>
<text x="10.000000" y="7.000000" font-family="Arial" font-size="7"></text>
<rect x="25.000000" y="83.000000" width="24.000000" height="24.000000" rx="0" ry="0" style="stroke:none;fill:#cccccc;"/>
<rect x="24.000000" y="82.000000" width="24.000000" height="24.000000" rx="0" ry="0" style="stroke:none;fill:#47945E;"/>
<text x="36.000000" y="96.000000" font-family="Arial" font-size="7" text-anchor="middle" fill="#FFFFFF">x</text>
<circle cx="26.000000" cy="84.000000" r="1"/>
<line x1="21.000000" y1="93.000000" x2="24.000000" y2="94.000000"  transform="rotate(0.000000,24.000000,94.000000)" style="stroke: black; stroke-width:0.25;"/>
<line x1="21.000000" y1="95.000000" x2="24.000000" y2="94.000000"  transform="rotate(0.000000,24.000000,94.000000)" style="stroke: black; stroke-width:0.25;"/>
<rect x="73.000000" y="25.000000" width="24.000000" height="24.000000" rx="0" ry="0" style="stroke:none;fill:#cccccc;"/>
<rect x="72.000000" y="24.000000" width="24.000000" height="24.000000" rx="0" ry="0" style="stroke:none;fill:#f44800;"/>
<text x="84.000000" y="38.000000" font-family="Arial" font-size="7" text-anchor="middle" fill="#FFFFFF">0.8</text>
<circle cx="74.000000" cy="26.000000" r="1"/>
<rect x="73.000000" y="57.000000" width="24.000000" height="24.000000" rx="0" ry="0" style="stroke:none;fill:#cccccc;"/>
<rect x="72.000000" y="56.000000" width="24.000000" height="24.000000" rx="0" ry="0" style="stroke:none;fill:#47945E;"/>
<text x="84.000000" y="70.000000" font-family="Arial" font-size="7" text-anchor="middle" fill="#FFFFFF">x</text>
<circle cx="74.000000" cy="58.000000" r="1"/>
<rect x="113.000000" y="41.000000" width="24.000000" height="24.000000" rx="0" ry="0" style="stroke:none;fill:#cccccc;"/>
<rect x="112.000000" y="40.000000" width="24.000000" height="24.000000" rx="0" ry="0" style="stroke:none;fill:#4B71A1;"/>
<text x="124.000000" y="54.000000" font-family="Arial" font-size="7" text-anchor="middle" fill="#FFFFFF">*</text>
<circle cx="114.000000" cy="42.000000" r="1"/>
<line x1="109.000000" y1="47.000000" x2="112.000000" y2="48.000000"  transform="rotate(0.000000,112.000000,48.000000)" style="stroke: black; stroke-width:0.25;"/>
<line x1="109.000000" y1="49.000000" x2="112.000000" y2="48.000000"  transform="rotate(0.000000,112.000000,48.000000)" style="stroke: black; stroke-width:0.25;"/>
<line x1="109.000000" y1="55.000000" x2="112.000000" y2="56.000000"  transform="rotate(0.000000,112.000000,56.000000)" style="stroke: black; stroke-width:0.25;"/>
<line x1="109.000000" y1="57.000000" x2="112.000000" y2="56.000000"  transform="rotate(0.000000,112.000000,56.000000)" style="stroke: black; stroke-width:0.25;"/>
<rect x="73.000000" y="99.000000" width="24.000000" height="24.000000" rx="0" ry="0" style="stroke:none;fill:#cccccc;"/>
<rect x="72.000000" y="98.000000" width="24.000000" height="24.000000" rx="0" ry="0" style="stroke:none;fill:#f44800;"/>
<text x="84.000000" y="112.000000" font-family="Arial" font-size="7" text-anchor="middle" fill="#FFFFFF">0.2</text>
<circle cx="74.000000" cy="100.000000" r="1"/>
<line x1="63.000000" y1="89.000000" x2="63.000000" y2="131.000000"  style="stroke: black; stroke-linecap:round; stroke-width:0.25; stroke-dasharray:3,3;"/>
<line x1="63.000000" y1="131.000000" x2="105.000000" y2="131.000000"  style="stroke: black; stroke-linecap:round; stroke-width:0.25; stroke-dasharray:3,3;"/>
<line x1="105.000000" y1="131.000000" x2="105.000000" y2="89.000000"  style="stroke: black; stroke-linecap:round; stroke-width:0.25; stroke-dasharray:3,3;"/>
<line x1="63.000000" y1="89.000000" x2="68.000000" y2="89.000000"  style="stroke: black; stroke-linecap:round; stroke-width:0.25; stroke-dasharray:3,3;"/>
<line x1="103.475000" y1="89.000000" x2="105.000000" y2="89.000000"  style="stroke: black; stroke-linecap:round; stroke-width:0.25; stroke-dasharray:3,3;"/>
<text x="68.000000" y="91.000000" font-family="Arial" font-size="7">noiseGain</text>
<rect x="57.000000" y="141.000000" width="24.000000" height="24.000000" rx="0" ry="0" style="stroke:none;fill:#cccccc;"/>
<rect x="56.000000" y="140.000000" width="24.000000" height="24.000000" rx="0" ry="0" style="stroke:none;fill:#47945E;"/>
<text x="68.000000" y="154.000000" font-family="Arial" font-size="7" text-anchor="middle" fill="#FFFFFF">x</text>
<circle cx="58.000000" cy="142.000000" r="1"/>
<rect x="89.000000" y="141.000000" width="24.000000" height="24.000000" rx="0" ry="0" style="stroke:none;fill:#cccccc;"/>
<rect x="88.000000" y="140.000000" width="24.000000" height="24.000000" rx="0" ry="0" style="stroke:none;fill:#4B71A1;"/>
<text x="100.000000" y="154.000000" font-family="Arial" font-size="7" text-anchor="middle" fill="#FFFFFF">mem</text>
<circle cx="90.000000" cy="142.000000" r="1"/>
<line x1="85.000000" y1="151.000000" x2="88.000000" y2="152.000000"  transform="rotate(0.000000,88.000000,152.000000)" style="stroke: black; stroke-width:0.25;"/>
<line x1="85.000000" y1="153.000000" x2="88.000000" y2="152.000000"  transform="rotate(0.000000,88.000000,152.000000)" style="stroke: black; stroke-width:0.25;"/>
<rect x="129.000000" y="115.000000" width="24.000000" height="24.000000" rx="0" ry="0" style="stroke:none;fill:#cccccc;"/>
<rect x="128.000000" y="114.000000" width="24.000000" height="24.000000" rx="0" ry="0" style="stroke:none;fill:#4B71A1;"/>
<text x="140.000000" y="128.000000" font-family="Arial" font-size="7" text-anchor="middle" fill="#FFFFFF">*</text>
<circle cx="130.000000" cy="116.000000" r="1"/>
<line x1="125.000000" y1="121.000000" x2="128.000000" y2="122.000000"  transform="rotate(0.000000,128.000000,122.000000)" style="stroke: black; stroke-width:0.25;"/>
<line x1="125.000000" y1="123.000000" x2="128.000000" y2="122.000000"  transform="rotate(0.000000,128.000000,122.000000)" style="stroke: black; stroke-width:0.25;"/>
<line x1="125.000000" y1="129.000000" x2="128.000000" y2="130.000000"  transform="rotate(0.000000,128.000000,130.000000)" style="stroke: black; stroke-width:0.25;"/>
<line x1="125.000000" y1="131.000000" x2="128.000000" y2="130.000000"  transform="rotate(0.000000,128.000000,130.000000)" style="stroke: black; stroke-width:0.25;"/>
<rect x="169.000000" y="83.000000" width="24.000000" height="24.000000" rx="0" ry="0" style="stroke:none;fill:#cccccc;"/>
<rect x="168.000000" y="82.000000" width="24.000000" height="24.000000" rx="0" ry="0" style="stroke:none;fill:#4B71A1;"/>
<text x="180.000000" y="96.000000" font-family="Arial" font-size="7" text-anchor="middle" fill="#FFFFFF">+</text>
<circle cx="170.000000" cy="84.000000" r="1"/>
<line x1="165.000000" y1="89.000000" x2="168.000000" y2="90.000000"  transform="rotate(0.000000,168.000000,90.000000)" style="stroke: black; stroke-width:0.25;"/>
<line x1="165.000000" y1="91.000000" x2="168.000000" y2="90.000000"  transform="rotate(0.000000,168.000000,90.000000)" style="stroke: black; stroke-width:0.25;"/>
<line x1="165.000000" y1="97.000000" x2="168.000000" y2="98.000000"  transform="rotate(0.000000,168.000000,98.000000)" style="stroke: black; stroke-width:0.25;"/>
<line x1="165.000000" y1="99.000000" x2="168.000000" y2="98.000000"  transform="rotate(0.000000,168.000000,98.000000)" style="stroke: black; stroke-width:0.25;"/>
<line x1="15.000000" y1="15.000000" x2="15.000000" y2="173.000000"  style="stroke: black; stroke-linecap:round; stroke-width:0.25; stroke-dasharray:3,3;"/>
<line x1="15.000000" y1="173.000000" x2="201.000000" y2="173.000000"  style="stroke: black; stroke-linecap:round; stroke-width:0.25; stroke-dasharray:3,3;"/>
<line x1="201.000000" y1="173.000000" x2="201.000000" y2="15.000000"  style="stroke: black; stroke-linecap:round; stroke-width:0.25; stroke-dasharray:3,3;"/>
<line x1="15.000000" y1="15.000000" x2="20.000000" y2="15.000000"  style="stroke: black; stroke-linecap:round; stroke-width:0.25; stroke-dasharray:3,3;"/>
<line x1="84.500000" y1="15.000000" x2="201.000000" y2="15.000000"  style="stroke: black; stroke-linecap:round; stroke-width:0.25; stroke-dasharray:3,3;"/>
<text x="20.000000" y="17.000000" font-family="Arial" font-size="7">boundaryLossFilter</text>
<line x1="203.000000" y1="93.000000" x2="206.000000" y2="94.000000"  transform="rotate(0.000000,206.000000,94.000000)" style="stroke: black; stroke-width:0.25;"/>
<line x1="203.000000" y1="95.000000" x2="206.000000" y2="94.000000"  transform="rotate(0.000000,206.000000,94.000000)" style="stroke: black; stroke-width:0.25;"/>
<line x1="10.000000" y1="94.000000" x2="20.000000" y2="94.000000"  style="stroke:black; stroke-linecap:round; stroke-width:0.25;"/>
<line x1="20.000000" y1="94.000000" x2="24.000000" y2="94.000000"  style="stroke:black; stroke-linecap:round; stroke-width:0.25;"/>
<line x1="80.000000" y1="152.000000" x2="84.000000" y2="152.000000"  style="stroke:black; stroke-linecap:round; stroke-width:0.25;"/>
<line x1="84.000000" y1="152.000000" x2="84.000000" y2="152.000000"  style="stroke:black; stroke-linecap:round; stroke-width:0.25;"/>
<line x1="84.000000" y1="152.000000" x2="88.000000" y2="152.000000"  style="stroke:black; stroke-linecap:round; stroke-width:0.25;"/>
<line x1="96.000000" y1="36.000000" x2="100.000000" y2="36.000000"  style="stroke:black; stroke-linecap:round; stroke-width:0.25;"/>
<line x1="96.000000" y1="68.000000" x2="100.000000" y2="68.000000"  style="stroke:black; stroke-linecap:round; stroke-width:0.25;"/>
<line x1="96.000000" y1="110.000000" x2="100.000000" y2="110.000000"  style="stroke:black; stroke-linecap:round; stroke-width:0.25;"/>
<line x1="100.000000" y1="36.000000" x2="108.000000" y2="36.000000"  style="stroke:black; stroke-linecap:round; stroke-width:0.25;"/>
<line x1="100.000000" y1="56.000000" x2="108.000000" y2="56.000000"  style="stroke:black; stroke-linecap:round; stroke-width:0.25;"/>
<line x1="100.000000" y1="68.000000" x2="100.000000" y2="56.000000"  style="stroke:black; stroke-linecap:round; stroke-width:0.25;"/>
<line x1="100.000000" y1="68.000000" x2="100.000000" y2="68.000000"  style="stroke:black; stroke-linecap:round; stroke-width:0.25;"/>
<line x1="100.000000" y1="110.000000" x2="110.000000" y2="110.000000"  style="stroke:black; stroke-linecap:round; stroke-width:0.25;"/>
<line x1="108.000000" y1="36.000000" x2="108.000000" y2="48.000000"  style="stroke:black; stroke-linecap:round; stroke-width:0.25;"/>
<line x1="108.000000" y1="48.000000" x2="108.000000" y2="48.000000"  style="stroke:black; stroke-linecap:round; stroke-width:0.25;"/>
<line x1="108.000000" y1="48.000000" x2="112.000000" y2="48.000000"  style="stroke:black; stroke-linecap:round; stroke-width:0.25;"/>
<line x1="108.000000" y1="56.000000" x2="112.000000" y2="56.000000"  style="stroke:black; stroke-linecap:round; stroke-width:0.25;"/>
<line x1="110.000000" y1="110.000000" x2="116.000000" y2="110.000000"  style="stroke:black; stroke-linecap:round; stroke-width:0.25;"/>
<line x1="112.000000" y1="152.000000" x2="116.000000" y2="152.000000"  style="stroke:black; stroke-linecap:round; stroke-width:0.25;"/>
<line x1="116.000000" y1="110.000000" x2="124.000000" y2="110.000000"  style="stroke:black; stroke-linecap:round; stroke-width:0.25;"/>
<line x1="116.000000" y1="130.000000" x2="124.000000" y2="130.000000"  style="stroke:black; stroke-linecap:round; stroke-width:0.25;"/>
<line x1="116.000000" y1="152.000000" x2="116.000000" y2="130.000000"  style="stroke:black; stroke-linecap:round; stroke-width:0.25;"/>
<line x1="116.000000" y1="152.000000" x2="116.000000" y2="152.000000"  style="stroke:black; stroke-linecap:round; stroke-width:0.25;"/>
<line x1="124.000000" y1="110.000000" x2="124.000000" y2="122.000000"  style="stroke:black; stroke-linecap:round; stroke-width:0.25;"/>
<line x1="124.000000" y1="122.000000" x2="124.000000" y2="122.000000"  style="stroke:black; stroke-linecap:round; stroke-width:0.25;"/>
<line x1="124.000000" y1="122.000000" x2="128.000000" y2="122.000000"  style="stroke:black; stroke-linecap:round; stroke-width:0.25;"/>
<line x1="124.000000" y1="130.000000" x2="128.000000" y2="130.000000"  style="stroke:black; stroke-linecap:round; stroke-width:0.25;"/>
<line x1="136.000000" y1="52.000000" x2="140.000000" y2="52.000000"  style="stroke:black; stroke-linecap:round; stroke-width:0.25;"/>
<line x1="140.000000" y1="52.000000" x2="156.000000" y2="52.000000"  style="stroke:black; stroke-linecap:round; stroke-width:0.25;"/>
<line x1="152.000000" y1="126.000000" x2="156.000000" y2="126.000000"  style="stroke:black; stroke-linecap:round; stroke-width:0.25;"/>
<line x1="156.000000" y1="52.000000" x2="164.000000" y2="52.000000"  style="stroke:black; stroke-linecap:round; stroke-width:0.25;"/>
<line x1="156.000000" y1="98.000000" x2="164.000000" y2="98.000000"  style="stroke:black; stroke-linecap:round; stroke-width:0.25;"/>
<line x1="156.000000" y1="126.000000" x2="156.000000" y2="98.000000"  style="stroke:black; stroke-linecap:round; stroke-width:0.25;"/>
<line x1="156.000000" y1="126.000000" x2="156.000000" y2="126.000000"  style="stroke:black; stroke-linecap:round; stroke-width:0.25;"/>
<line x1="164.000000" y1="52.000000" x2="164.000000" y2="90.000000"  style="stroke:black; stroke-linecap:round; stroke-width:0.25;"/>
<line x1="164.000000" y1="90.000000" x2="164.000000" y2="90.000000"  style="stroke:black; stroke-linecap:round; stroke-width:0.25;"/>
<line x1="164.000000" y1="90.000000" x2="168.000000" y2="90.000000"  style="stroke:black; stroke-linecap:round; stroke-width:0.25;"/>
<line x1="164.000000" y1="98.000000" x2="168.000000" y2="98.000000"  style="stroke:black; stroke-linecap:round; stroke-width:0.25;"/>
<line x1="192.000000" y1="94.000000" x2="196.000000" y2="94.000000"  style="stroke:black; stroke-linecap:round; stroke-width:0.25;"/>
<line x1="196.000000" y1="94.000000" x2="206.000000" y2="94.000000"  style="stroke:black; stroke-linecap:round; stroke-width:0.25;"/>
</svg>
