<?xml version="1.0"?>
<svg xmlns="http://www.w3.org/2000/svg" xmlns:xlink="http://www.w3.org/1999/xlink" viewBox="0 0 107.600000 72.000000" width="53.800000mm" height="36.000000mm" version="1.1">
<a xlink:href="jet-0x33b71c0.svg">
<rect x="1.000000" y="1.000000" width="106.600000" height="71.000000" rx="0" ry="0" style="stroke:none;fill:#cccccc;"/>
<rect x="0.000000" y="0.000000" width="106.600000" height="71.000000" rx="0" ry="0" style="stroke:none;fill:#ffffff;"/>
</a>
<text x="10.000000" y="7.000000" font-family="Arial" font-size="7"></text>
<a xlink:href="zero-0x3343d30.svg">
<rect x="25.000000" y="25.000000" width="25.800000" height="24.000000" rx="0" ry="0" style="stroke:none;fill:#cccccc;"/>
<rect x="24.000000" y="24.000000" width="25.800000" height="24.000000" rx="0" ry="0" style="stroke:none;fill:#003366;"/>
</a>
<a xlink:href="zero-0x3343d30.svg">
<text x="36.900000" y="38.000000" font-family="Arial" font-size="7" text-anchor="middle" fill="#FFFFFF">zero</text>
</a>
<circle cx="26.000000" cy="26.000000" r="1"/>
<line x1="21.000000" y1="35.000000" x2="24.000000" y2="36.000000"  transform="rotate(0.000000,24.000000,36.000000)" style="stroke: black; stroke-width:0.25;"/>
<line x1="21.000000" y1="37.000000" x2="24.000000" y2="36.000000"  transform="rotate(0.000000,24.000000,36.000000)" style="stroke: black; stroke-width:0.25;"/>
<a xlink:href="pole-0x3342320.svg">
<rect x="58.800000" y="25.000000" width="25.800000" height="24.000000" rx="0" ry="0" style="stroke:none;fill:#cccccc;"/>
<rect x="57.800000" y="24.000000" width="25.800000" height="24.000000" rx="0" ry="0" style="stroke:none;fill:#003366;"/>
</a>
<a xlink:href="pole-0x3342320.svg">
<text x="70.700000" y="38.000000" font-family="Arial" font-size="7" text-anchor="middle" fill="#FFFFFF">pole</text>
</a>
<circle cx="59.800000" cy="26.000000" r="1"/>
<line x1="54.800000" y1="35.000000" x2="57.800000" y2="36.000000"  transform="rotate(0.000000,57.800000,36.000000)" style="stroke: black; stroke-width:0.25;"/>
<line x1="54.800000" y1="37.000000" x2="57.800000" y2="36.000000"  transform="rotate(0.000000,57.800000,36.000000)" style="stroke: black; stroke-width:0.25;"/>
<line x1="15.000000" y1="15.000000" x2="15.000000" y2="57.000000"  style="stroke: black; stroke-linecap:round; stroke-width:0.25; stroke-dasharray:3,3;"/>
<line x1="15.000000" y1="57.000000" x2="92.600000" y2="57.000000"  style="stroke: black; stroke-linecap:round; stroke-width:0.25; stroke-dasharray:3,3;"/>
<line x1="92.600000" y1="57.000000" x2="92.600000" y2="15.000000"  style="stroke: black; stroke-linecap:round; stroke-width:0.25; stroke-dasharray:3,3;"/>
<line x1="15.000000" y1="15.000000" x2="20.000000" y2="15.000000"  style="stroke: black; stroke-linecap:round; stroke-width:0.25; stroke-dasharray:3,3;"/>
<line x1="55.475000" y1="15.000000" x2="92.600000" y2="15.000000"  style="stroke: black; stroke-linecap:round; stroke-width:0.25; stroke-dasharray:3,3;"/>
<text x="20.000000" y="17.000000" font-family="Arial" font-size="7">dcblocker</text>
<line x1="94.600000" y1="35.000000" x2="97.600000" y2="36.000000"  transform="rotate(0.000000,97.600000,36.000000)" style="stroke: black; stroke-width:0.25;"/>
<line x1="94.600000" y1="37.000000" x2="97.600000" y2="36.000000"  transform="rotate(0.000000,97.600000,36.000000)" style="stroke: black; stroke-width:0.25;"/>
<line x1="10.000000" y1="36.000000" x2="20.000000" y2="36.000000"  style="stroke:black; stroke-linecap:round; stroke-width:0.25;"/>
<line x1="20.000000" y1="36.000000" x2="24.000000" y2="36.000000"  style="stroke:black; stroke-linecap:round; stroke-width:0.25;"/>
<line x1="49.800000" y1="36.000000" x2="53.800000" y2="36.000000"  style="stroke:black; stroke-linecap:round; stroke-width:0.25;"/>
<line x1="53.800000" y1="36.000000" x2="53.800000" y2="36.000000"  style="stroke:black; stroke-linecap:round; stroke-width:0.25;"/>
<line x1="53.800000" y1="36.000000" x2="57.800000" y2="36.000000"  style="stroke:black; stroke-linecap:round; stroke-width:0.25;"/>
<line x1="83.600000" y1="36.000000" x2="87.600000" y2="36.000000"  style="stroke:black; stroke-linecap:round; stroke-width:0.25;"/>
<line x1="87.600000" y1="36.000000" x2="97.600000" y2="36.000000"  style="stroke:black; stroke-linecap:round; stroke-width:0.25;"/>
</svg>
