<?xml version="1.0"?>
<svg xmlns="http://www.w3.org/2000/svg" xmlns:xlink="http://www.w3.org/1999/xlink" viewBox="0 0 323.600000 252.000000" width="161.800000mm" height="126.000000mm" version="1.1">
<a xlink:href="upperDelay-0x33c82e0.svg">
<rect x="1.000000" y="1.000000" width="322.600000" height="251.000000" rx="0" ry="0" style="stroke:none;fill:#cccccc;"/>
<rect x="0.000000" y="0.000000" width="322.600000" height="251.000000" rx="0" ry="0" style="stroke:none;fill:#ffffff;"/>
</a>
<text x="10.000000" y="7.000000" font-family="Arial" font-size="7"></text>
<rect x="130.800000" y="25.000000" width="24.000000" height="24.000000" rx="0" ry="0" style="stroke:none;fill:#cccccc;"/>
<rect x="129.800000" y="24.000000" width="24.000000" height="24.000000" rx="0" ry="0" style="stroke:none;fill:#47945E;"/>
<text x="141.800000" y="38.000000" font-family="Arial" font-size="7" text-anchor="middle" fill="#FFFFFF">x</text>
<circle cx="131.800000" cy="26.000000" r="1"/>
<a xlink:href="samplingfreq-0x331d860.svg">
<rect x="25.000000" y="57.000000" width="51.600000" height="24.000000" rx="0" ry="0" style="stroke:none;fill:#cccccc;"/>
<rect x="24.000000" y="56.000000" width="51.600000" height="24.000000" rx="0" ry="0" style="stroke:none;fill:#003366;"/>
</a>
<a xlink:href="samplingfreq-0x331d860.svg">
<text x="49.800000" y="70.000000" font-family="Arial" font-size="7" text-anchor="middle" fill="#FFFFFF">samplingfreq</text>
</a>
<circle cx="26.000000" cy="58.000000" r="1"/>
<a xlink:href="freq-0x331c780.svg">
<rect x="37.900000" y="89.000000" width="25.800000" height="24.000000" rx="0" ry="0" style="stroke:none;fill:#cccccc;"/>
<rect x="36.900000" y="88.000000" width="25.800000" height="24.000000" rx="0" ry="0" style="stroke:none;fill:#003366;"/>
</a>
<a xlink:href="freq-0x331c780.svg">
<text x="49.800000" y="102.000000" font-family="Arial" font-size="7" text-anchor="middle" fill="#FFFFFF">freq</text>
</a>
<circle cx="38.900000" cy="90.000000" r="1"/>
<rect x="92.600000" y="73.000000" width="24.000000" height="24.000000" rx="0" ry="0" style="stroke:none;fill:#cccccc;"/>
<rect x="91.600000" y="72.000000" width="24.000000" height="24.000000" rx="0" ry="0" style="stroke:none;fill:#4B71A1;"/>
<text x="103.600000" y="86.000000" font-family="Arial" font-size="7" text-anchor="middle" fill="#FFFFFF">/</text>
<circle cx="93.600000" cy="74.000000" r="1"/>
<line x1="88.600000" y1="79.000000" x2="91.600000" y2="80.000000"  transform="rotate(0.000000,91.600000,80.000000)" style="stroke: black; stroke-width:0.25;"/>
<line x1="88.600000" y1="81.000000" x2="91.600000" y2="80.000000"  transform="rotate(0.000000,91.600000,80.000000)" style="stroke: black; stroke-width:0.25;"/>
<line x1="88.600000" y1="87.000000" x2="91.600000" y2="88.000000"  transform="rotate(0.000000,91.600000,88.000000)" style="stroke: black; stroke-width:0.25;"/>
<line x1="88.600000" y1="89.000000" x2="91.600000" y2="88.000000"  transform="rotate(0.000000,91.600000,88.000000)" style="stroke: black; stroke-width:0.25;"/>
<rect x="58.800000" y="131.000000" width="24.000000" height="24.000000" rx="0" ry="0" style="stroke:none;fill:#cccccc;"/>
<rect x="57.800000" y="130.000000" width="24.000000" height="24.000000" rx="0" ry="0" style="stroke:none;fill:#f44800;"/>
<text x="69.800000" y="144.000000" font-family="Arial" font-size="7" text-anchor="middle" fill="#FFFFFF">0.5</text>
<circle cx="59.800000" cy="132.000000" r="1"/>
<line x1="48.800000" y1="121.000000" x2="48.800000" y2="163.000000"  style="stroke: black; stroke-linecap:round; stroke-width:0.25; stroke-dasharray:3,3;"/>
<line x1="48.800000" y1="163.000000" x2="90.800000" y2="163.000000"  style="stroke: black; stroke-linecap:round; stroke-width:0.25; stroke-dasharray:3,3;"/>
<line x1="90.800000" y1="163.000000" x2="90.800000" y2="121.000000"  style="stroke: black; stroke-linecap:round; stroke-width:0.25; stroke-dasharray:3,3;"/>
<line x1="48.800000" y1="121.000000" x2="53.800000" y2="121.000000"  style="stroke: black; stroke-linecap:round; stroke-width:0.25; stroke-dasharray:3,3;"/>
<line x1="90.800000" y1="121.000000" x2="90.800000" y2="121.000000"  style="stroke: black; stroke-linecap:round; stroke-width:0.25; stroke-dasharray:3,3;"/>
<text x="53.800000" y="123.000000" font-family="Arial" font-size="7">vibratoAttack</text>
<rect x="132.600000" y="99.000000" width="24.000000" height="24.000000" rx="0" ry="0" style="stroke:none;fill:#cccccc;"/>
<rect x="131.600000" y="98.000000" width="24.000000" height="24.000000" rx="0" ry="0" style="stroke:none;fill:#4B71A1;"/>
<text x="143.600000" y="112.000000" font-family="Arial" font-size="7" text-anchor="middle" fill="#FFFFFF">*</text>
<circle cx="133.600000" cy="100.000000" r="1"/>
<line x1="128.600000" y1="105.000000" x2="131.600000" y2="106.000000"  transform="rotate(0.000000,131.600000,106.000000)" style="stroke: black; stroke-width:0.25;"/>
<line x1="128.600000" y1="107.000000" x2="131.600000" y2="106.000000"  transform="rotate(0.000000,131.600000,106.000000)" style="stroke: black; stroke-width:0.25;"/>
<line x1="128.600000" y1="113.000000" x2="131.600000" y2="114.000000"  transform="rotate(0.000000,131.600000,114.000000)" style="stroke: black; stroke-width:0.25;"/>
<line x1="128.600000" y1="115.000000" x2="131.600000" y2="114.000000"  transform="rotate(0.000000,131.600000,114.000000)" style="stroke: black; stroke-width:0.25;"/>
<rect x="164.600000" y="99.000000" width="24.000000" height="24.000000" rx="0" ry="0" style="stroke:none;fill:#cccccc;"/>
<rect x="163.600000" y="98.000000" width="24.000000" height="24.000000" rx="0" ry="0" style="stroke:none;fill:#4B71A1;"/>
<text x="175.600000" y="112.000000" font-family="Arial" font-size="7" text-anchor="middle" fill="#FFFFFF">int</text>
<circle cx="165.600000" cy="100.000000" r="1"/>
<line x1="160.600000" y1="109.000000" x2="163.600000" y2="110.000000"  transform="rotate(0.000000,163.600000,110.000000)" style="stroke: black; stroke-width:0.25;"/>
<line x1="160.600000" y1="111.000000" x2="163.600000" y2="110.000000"  transform="rotate(0.000000,163.600000,110.000000)" style="stroke: black; stroke-width:0.25;"/>
<rect x="196.600000" y="99.000000" width="24.000000" height="24.000000" rx="0" ry="0" style="stroke:none;fill:#cccccc;"/>
<rect x="195.600000" y="98.000000" width="24.000000" height="24.000000" rx="0" ry="0" style="stroke:none;fill:#4B71A1;"/>
<text x="207.600000" y="112.000000" font-family="Arial" font-size="7" text-anchor="middle" fill="#FFFFFF">int</text>
<circle cx="197.600000" cy="100.000000" r="1"/>
<line x1="192.600000" y1="109.000000" x2="195.600000" y2="110.000000"  transform="rotate(0.000000,195.600000,110.000000)" style="stroke: black; stroke-width:0.25;"/>
<line x1="192.600000" y1="111.000000" x2="195.600000" y2="110.000000"  transform="rotate(0.000000,195.600000,110.000000)" style="stroke: black; stroke-width:0.25;"/>
<rect x="89.900000" y="173.000000" width="25.800000" height="24.000000" rx="0" ry="0" style="stroke:none;fill:#cccccc;"/>
<rect x="88.900000" y="172.000000" width="25.800000" height="24.000000" rx="0" ry="0" style="stroke:none;fill:#f44800;"/>
<text x="101.800000" y="186.000000" font-family="Arial" font-size="7" text-anchor="middle" fill="#FFFFFF">4096</text>
<circle cx="90.900000" cy="174.000000" r="1"/>
<rect x="90.800000" y="205.000000" width="24.000000" height="24.000000" rx="0" ry="0" style="stroke:none;fill:#cccccc;"/>
<rect x="89.800000" y="204.000000" width="24.000000" height="24.000000" rx="0" ry="0" style="stroke:none;fill:#f44800;"/>
<text x="101.800000" y="218.000000" font-family="Arial" font-size="7" text-anchor="middle" fill="#FFFFFF">1</text>
<circle cx="91.800000" cy="206.000000" r="1"/>
<rect x="131.700000" y="189.000000" width="24.000000" height="24.000000" rx="0" ry="0" style="stroke:none;fill:#cccccc;"/>
<rect x="130.700000" y="188.000000" width="24.000000" height="24.000000" rx="0" ry="0" style="stroke:none;fill:#4B71A1;"/>
<text x="142.700000" y="202.000000" font-family="Arial" font-size="7" text-anchor="middle" fill="#FFFFFF">-</text>
<circle cx="132.700000" cy="190.000000" r="1"/>
<line x1="127.700000" y1="195.000000" x2="130.700000" y2="196.000000"  transform="rotate(0.000000,130.700000,196.000000)" style="stroke: black; stroke-width:0.25;"/>
<line x1="127.700000" y1="197.000000" x2="130.700000" y2="196.000000"  transform="rotate(0.000000,130.700000,196.000000)" style="stroke: black; stroke-width:0.25;"/>
<line x1="127.700000" y1="203.000000" x2="130.700000" y2="204.000000"  transform="rotate(0.000000,130.700000,204.000000)" style="stroke: black; stroke-width:0.25;"/>
<line x1="127.700000" y1="205.000000" x2="130.700000" y2="204.000000"  transform="rotate(0.000000,130.700000,204.000000)" style="stroke: black; stroke-width:0.25;"/>
<rect x="236.600000" y="131.000000" width="24.000000" height="24.000000" rx="0" ry="0" style="stroke:none;fill:#cccccc;"/>
<rect x="235.600000" y="130.000000" width="24.000000" height="24.000000" rx="0" ry="0" style="stroke:none;fill:#4B71A1;"/>
<text x="247.600000" y="144.000000" font-family="Arial" font-size="7" text-anchor="middle" fill="#FFFFFF">&amp;</text>
<circle cx="237.600000" cy="132.000000" r="1"/>
<line x1="232.600000" y1="137.000000" x2="235.600000" y2="138.000000"  transform="rotate(0.000000,235.600000,138.000000)" style="stroke: black; stroke-width:0.25;"/>
<line x1="232.600000" y1="139.000000" x2="235.600000" y2="138.000000"  transform="rotate(0.000000,235.600000,138.000000)" style="stroke: black; stroke-width:0.25;"/>
<line x1="232.600000" y1="145.000000" x2="235.600000" y2="146.000000"  transform="rotate(0.000000,235.600000,146.000000)" style="stroke: black; stroke-width:0.25;"/>
<line x1="232.600000" y1="147.000000" x2="235.600000" y2="146.000000"  transform="rotate(0.000000,235.600000,146.000000)" style="stroke: black; stroke-width:0.25;"/>
<rect x="276.600000" y="115.000000" width="24.000000" height="24.000000" rx="0" ry="0" style="stroke:none;fill:#cccccc;"/>
<rect x="275.600000" y="114.000000" width="24.000000" height="24.000000" rx="0" ry="0" style="stroke:none;fill:#4B71A1;"/>
<text x="287.600000" y="128.000000" font-family="Arial" font-size="7" text-anchor="middle" fill="#FFFFFF">@</text>
<circle cx="277.600000" cy="116.000000" r="1"/>
<line x1="272.600000" y1="121.000000" x2="275.600000" y2="122.000000"  transform="rotate(0.000000,275.600000,122.000000)" style="stroke: black; stroke-width:0.25;"/>
<line x1="272.600000" y1="123.000000" x2="275.600000" y2="122.000000"  transform="rotate(0.000000,275.600000,122.000000)" style="stroke: black; stroke-width:0.25;"/>
<line x1="272.600000" y1="129.000000" x2="275.600000" y2="130.000000"  transform="rotate(0.000000,275.600000,130.000000)" style="stroke: black; stroke-width:0.25;"/>
<line x1="272.600000" y1="131.000000" x2="275.600000" y2="130.000000"  transform="rotate(0.000000,275.600000,130.000000)" style="stroke: black; stroke-width:0.25;"/>
<line x1="15.000000" y1="15.000000" x2="15.000000" y2="237.000000"  style="stroke: black; stroke-linecap:round; stroke-width:0.25; stroke-dasharray:3,3;"/>
<line x1="15.000000" y1="237.000000" x2="308.600000" y2="237.000000"  style="stroke: black; stroke-linecap:round; stroke-width:0.25; stroke-dasharray:3,3;"/>
<line x1="308.600000" y1="237.000000" x2="308.600000" y2="15.000000"  style="stroke: black; stroke-linecap:round; stroke-width:0.25; stroke-dasharray:3,3;"/>
<line x1="15.000000" y1="15.000000" x2="20.000000" y2="15.000000"  style="stroke: black; stroke-linecap:round; stroke-width:0.25; stroke-dasharray:3,3;"/>
<line x1="42.575000" y1="15.000000" x2="308.600000" y2="15.000000"  style="stroke: black; stroke-linecap:round; stroke-width:0.25; stroke-dasharray:3,3;"/>
<text x="20.000000" y="17.000000" font-family="Arial" font-size="7">delay</text>
<line x1="310.600000" y1="125.000000" x2="313.600000" y2="126.000000"  transform="rotate(0.000000,313.600000,126.000000)" style="stroke: black; stroke-width:0.25;"/>
<line x1="310.600000" y1="127.000000" x2="313.600000" y2="126.000000"  transform="rotate(0.000000,313.600000,126.000000)" style="stroke: black; stroke-width:0.25;"/>
<line x1="62.700000" y1="100.000000" x2="66.700000" y2="100.000000"  style="stroke:black; stroke-linecap:round; stroke-width:0.25;"/>
<line x1="66.700000" y1="100.000000" x2="79.600000" y2="100.000000"  style="stroke:black; stroke-linecap:round; stroke-width:0.25;"/>
<line x1="75.600000" y1="68.000000" x2="79.600000" y2="68.000000"  style="stroke:black; stroke-linecap:round; stroke-width:0.25;"/>
<line x1="79.600000" y1="68.000000" x2="87.600000" y2="68.000000"  style="stroke:black; stroke-linecap:round; stroke-width:0.25;"/>
<line x1="79.600000" y1="88.000000" x2="87.600000" y2="88.000000"  style="stroke:black; stroke-linecap:round; stroke-width:0.25;"/>
<line x1="79.600000" y1="100.000000" x2="79.600000" y2="88.000000"  style="stroke:black; stroke-linecap:round; stroke-width:0.25;"/>
<line x1="79.600000" y1="100.000000" x2="79.600000" y2="100.000000"  style="stroke:black; stroke-linecap:round; stroke-width:0.25;"/>
<line x1="81.800000" y1="142.000000" x2="85.800000" y2="142.000000"  style="stroke:black; stroke-linecap:round; stroke-width:0.25;"/>
<line x1="85.800000" y1="142.000000" x2="95.800000" y2="142.000000"  style="stroke:black; stroke-linecap:round; stroke-width:0.25;"/>
<line x1="87.600000" y1="68.000000" x2="87.600000" y2="80.000000"  style="stroke:black; stroke-linecap:round; stroke-width:0.25;"/>
<line x1="87.600000" y1="80.000000" x2="87.600000" y2="80.000000"  style="stroke:black; stroke-linecap:round; stroke-width:0.25;"/>
<line x1="87.600000" y1="80.000000" x2="91.600000" y2="80.000000"  style="stroke:black; stroke-linecap:round; stroke-width:0.25;"/>
<line x1="87.600000" y1="88.000000" x2="91.600000" y2="88.000000"  style="stroke:black; stroke-linecap:round; stroke-width:0.25;"/>
<line x1="95.800000" y1="142.000000" x2="119.600000" y2="142.000000"  style="stroke:black; stroke-linecap:round; stroke-width:0.25;"/>
<line x1="113.800000" y1="216.000000" x2="117.800000" y2="216.000000"  style="stroke:black; stroke-linecap:round; stroke-width:0.25;"/>
<line x1="114.700000" y1="184.000000" x2="118.700000" y2="184.000000"  style="stroke:black; stroke-linecap:round; stroke-width:0.25;"/>
<line x1="115.600000" y1="84.000000" x2="119.600000" y2="84.000000"  style="stroke:black; stroke-linecap:round; stroke-width:0.25;"/>
<line x1="117.800000" y1="216.000000" x2="118.700000" y2="216.000000"  style="stroke:black; stroke-linecap:round; stroke-width:0.25;"/>
<line x1="118.700000" y1="184.000000" x2="126.700000" y2="184.000000"  style="stroke:black; stroke-linecap:round; stroke-width:0.25;"/>
<line x1="118.700000" y1="204.000000" x2="126.700000" y2="204.000000"  style="stroke:black; stroke-linecap:round; stroke-width:0.25;"/>
<line x1="118.700000" y1="216.000000" x2="118.700000" y2="204.000000"  style="stroke:black; stroke-linecap:round; stroke-width:0.25;"/>
<line x1="118.700000" y1="216.000000" x2="118.700000" y2="216.000000"  style="stroke:black; stroke-linecap:round; stroke-width:0.25;"/>
<line x1="119.600000" y1="84.000000" x2="127.600000" y2="84.000000"  style="stroke:black; stroke-linecap:round; stroke-width:0.25;"/>
<line x1="119.600000" y1="114.000000" x2="127.600000" y2="114.000000"  style="stroke:black; stroke-linecap:round; stroke-width:0.25;"/>
<line x1="119.600000" y1="142.000000" x2="119.600000" y2="114.000000"  style="stroke:black; stroke-linecap:round; stroke-width:0.25;"/>
<line x1="119.600000" y1="142.000000" x2="119.600000" y2="142.000000"  style="stroke:black; stroke-linecap:round; stroke-width:0.25;"/>
<line x1="126.700000" y1="184.000000" x2="126.700000" y2="196.000000"  style="stroke:black; stroke-linecap:round; stroke-width:0.25;"/>
<line x1="126.700000" y1="196.000000" x2="126.700000" y2="196.000000"  style="stroke:black; stroke-linecap:round; stroke-width:0.25;"/>
<line x1="126.700000" y1="196.000000" x2="130.700000" y2="196.000000"  style="stroke:black; stroke-linecap:round; stroke-width:0.25;"/>
<line x1="126.700000" y1="204.000000" x2="130.700000" y2="204.000000"  style="stroke:black; stroke-linecap:round; stroke-width:0.25;"/>
<line x1="127.600000" y1="84.000000" x2="127.600000" y2="106.000000"  style="stroke:black; stroke-linecap:round; stroke-width:0.25;"/>
<line x1="127.600000" y1="106.000000" x2="127.600000" y2="106.000000"  style="stroke:black; stroke-linecap:round; stroke-width:0.25;"/>
<line x1="127.600000" y1="106.000000" x2="131.600000" y2="106.000000"  style="stroke:black; stroke-linecap:round; stroke-width:0.25;"/>
<line x1="127.600000" y1="114.000000" x2="131.600000" y2="114.000000"  style="stroke:black; stroke-linecap:round; stroke-width:0.25;"/>
<line x1="153.800000" y1="36.000000" x2="157.800000" y2="36.000000"  style="stroke:black; stroke-linecap:round; stroke-width:0.25;"/>
<line x1="154.700000" y1="200.000000" x2="158.700000" y2="200.000000"  style="stroke:black; stroke-linecap:round; stroke-width:0.25;"/>
<line x1="155.600000" y1="110.000000" x2="159.600000" y2="110.000000"  style="stroke:black; stroke-linecap:round; stroke-width:0.25;"/>
<line x1="157.800000" y1="36.000000" x2="263.600000" y2="36.000000"  style="stroke:black; stroke-linecap:round; stroke-width:0.25;"/>
<line x1="158.700000" y1="200.000000" x2="223.600000" y2="200.000000"  style="stroke:black; stroke-linecap:round; stroke-width:0.25;"/>
<line x1="159.600000" y1="110.000000" x2="159.600000" y2="110.000000"  style="stroke:black; stroke-linecap:round; stroke-width:0.25;"/>
<line x1="159.600000" y1="110.000000" x2="163.600000" y2="110.000000"  style="stroke:black; stroke-linecap:round; stroke-width:0.25;"/>
<line x1="187.600000" y1="110.000000" x2="191.600000" y2="110.000000"  style="stroke:black; stroke-linecap:round; stroke-width:0.25;"/>
<line x1="191.600000" y1="110.000000" x2="191.600000" y2="110.000000"  style="stroke:black; stroke-linecap:round; stroke-width:0.25;"/>
<line x1="191.600000" y1="110.000000" x2="195.600000" y2="110.000000"  style="stroke:black; stroke-linecap:round; stroke-width:0.25;"/>
<line x1="219.600000" y1="110.000000" x2="223.600000" y2="110.000000"  style="stroke:black; stroke-linecap:round; stroke-width:0.25;"/>
<line x1="223.600000" y1="110.000000" x2="231.600000" y2="110.000000"  style="stroke:black; stroke-linecap:round; stroke-width:0.25;"/>
<line x1="223.600000" y1="146.000000" x2="231.600000" y2="146.000000"  style="stroke:black; stroke-linecap:round; stroke-width:0.25;"/>
<line x1="223.600000" y1="200.000000" x2="223.600000" y2="146.000000"  style="stroke:black; stroke-linecap:round; stroke-width:0.25;"/>
<line x1="223.600000" y1="200.000000" x2="223.600000" y2="200.000000"  style="stroke:black; stroke-linecap:round; stroke-width:0.25;"/>
<line x1="231.600000" y1="110.000000" x2="231.600000" y2="138.000000"  style="stroke:black; stroke-linecap:round; stroke-width:0.25;"/>
<line x1="231.600000" y1="138.000000" x2="231.600000" y2="138.000000"  style="stroke:black; stroke-linecap:round; stroke-width:0.25;"/>
<line x1="231.600000" y1="138.000000" x2="235.600000" y2="138.000000"  style="stroke:black; stroke-linecap:round; stroke-width:0.25;"/>
<line x1="231.600000" y1="146.000000" x2="235.600000" y2="146.000000"  style="stroke:black; stroke-linecap:round; stroke-width:0.25;"/>
<line x1="259.600000" y1="142.000000" x2="263.600000" y2="142.000000"  style="stroke:black; stroke-linecap:round; stroke-width:0.25;"/>
<line x1="263.600000" y1="36.000000" x2="271.600000" y2="36.000000"  style="stroke:black; stroke-linecap:round; stroke-width:0.25;"/>
<line x1="263.600000" y1="130.000000" x2="271.600000" y2="130.000000"  style="stroke:black; stroke-linecap:round; stroke-width:0.25;"/>
<line x1="263.600000" y1="142.000000" x2="263.600000" y2="130.000000"  style="stroke:black; stroke-linecap:round; stroke-width:0.25;"/>
<line x1="263.600000" y1="142.000000" x2="263.600000" y2="142.000000"  style="stroke:black; stroke-linecap:round; stroke-width:0.25;"/>
<line x1="271.600000" y1="36.000000" x2="271.600000" y2="122.000000"  style="stroke:black; stroke-linecap:round; stroke-width:0.25;"/>
<line x1="271.600000" y1="122.000000" x2="271.600000" y2="122.000000"  style="stroke:black; stroke-linecap:round; stroke-width:0.25;"/>
<line x1="271.600000" y1="122.000000" x2="275.600000" y2="122.000000"  style="stroke:black; stroke-linecap:round; stroke-width:0.25;"/>
<line x1="271.600000" y1="130.000000" x2="275.600000" y2="130.000000"  style="stroke:black; stroke-linecap:round; stroke-width:0.25;"/>
<line x1="299.600000" y1="126.000000" x2="303.600000" y2="126.000000"  style="stroke:black; stroke-linecap:round; stroke-width:0.25;"/>
<line x1="303.600000" y1="126.000000" x2="313.600000" y2="126.000000"  style="stroke:black; stroke-linecap:round; stroke-width:0.25;"/>
</svg>
