<?xml version="1.0"?>
<svg xmlns="http://www.w3.org/2000/svg" xmlns:xlink="http://www.w3.org/1999/xlink" viewBox="0 0 403.600000 336.000000" width="201.800000mm" height="168.000000mm" version="1.1">
<a xlink:href="lowerBore-0x33d97d0.svg">
<rect x="1.000000" y="1.000000" width="402.600000" height="335.000000" rx="0" ry="0" style="stroke:none;fill:#cccccc;"/>
<rect x="0.000000" y="0.000000" width="402.600000" height="335.000000" rx="0" ry="0" style="stroke:none;fill:#ffffff;"/>
</a>
<text x="10.000000" y="7.000000" font-family="Arial" font-size="7"></text>
<rect x="170.800000" y="25.000000" width="24.000000" height="24.000000" rx="0" ry="0" style="stroke:none;fill:#cccccc;"/>
<rect x="169.800000" y="24.000000" width="24.000000" height="24.000000" rx="0" ry="0" style="stroke:none;fill:#47945E;"/>
<text x="181.800000" y="38.000000" font-family="Arial" font-size="7" text-anchor="middle" fill="#FFFFFF">x</text>
<circle cx="171.800000" cy="26.000000" r="1"/>
<a xlink:href="samplingfreq-0x331d860.svg">
<rect x="25.000000" y="57.000000" width="51.600000" height="24.000000" rx="0" ry="0" style="stroke:none;fill:#cccccc;"/>
<rect x="24.000000" y="56.000000" width="51.600000" height="24.000000" rx="0" ry="0" style="stroke:none;fill:#003366;"/>
</a>
<a xlink:href="samplingfreq-0x331d860.svg">
<text x="49.800000" y="70.000000" font-family="Arial" font-size="7" text-anchor="middle" fill="#FFFFFF">samplingfreq</text>
</a>
<circle cx="26.000000" cy="58.000000" r="1"/>
<a xlink:href="freq-0x331c780.svg">
<rect x="37.900000" y="89.000000" width="25.800000" height="24.000000" rx="0" ry="0" style="stroke:none;fill:#cccccc;"/>
<rect x="36.900000" y="88.000000" width="25.800000" height="24.000000" rx="0" ry="0" style="stroke:none;fill:#003366;"/>
</a>
<a xlink:href="freq-0x331c780.svg">
<text x="49.800000" y="102.000000" font-family="Arial" font-size="7" text-anchor="middle" fill="#FFFFFF">freq</text>
</a>
<circle cx="38.900000" cy="90.000000" r="1"/>
<rect x="92.600000" y="73.000000" width="24.000000" height="24.000000" rx="0" ry="0" style="stroke:none;fill:#cccccc;"/>
<rect x="91.600000" y="72.000000" width="24.000000" height="24.000000" rx="0" ry="0" style="stroke:none;fill:#4B71A1;"/>
<text x="103.600000" y="86.000000" font-family="Arial" font-size="7" text-anchor="middle" fill="#FFFFFF">/</text>
<circle cx="93.600000" cy="74.000000" r="1"/>
<line x1="88.600000" y1="79.000000" x2="91.600000" y2="80.000000"  transform="rotate(0.000000,91.600000,80.000000)" style="stroke: black; stroke-width:0.25;"/>
<line x1="88.600000" y1="81.000000" x2="91.600000" y2="80.000000"  transform="rotate(0.000000,91.600000,80.000000)" style="stroke: black; stroke-width:0.25;"/>
<line x1="88.600000" y1="87.000000" x2="91.600000" y2="88.000000"  transform="rotate(0.000000,91.600000,88.000000)" style="stroke: black; stroke-width:0.25;"/>
<line x1="88.600000" y1="89.000000" x2="91.600000" y2="88.000000"  transform="rotate(0.000000,91.600000,88.000000)" style="stroke: black; stroke-width:0.25;"/>
<rect x="58.800000" y="131.000000" width="24.000000" height="24.000000" rx="0" ry="0" style="stroke:none;fill:#cccccc;"/>
<rect x="57.800000" y="130.000000" width="24.000000" height="24.000000" rx="0" ry="0" style="stroke:none;fill:#f44800;"/>
<text x="69.800000" y="144.000000" font-family="Arial" font-size="7" text-anchor="middle" fill="#FFFFFF">0.5</text>
<circle cx="59.800000" cy="132.000000" r="1"/>
<line x1="48.800000" y1="121.000000" x2="48.800000" y2="163.000000"  style="stroke: black; stroke-linecap:round; stroke-width:0.25; stroke-dasharray:3,3;"/>
<line x1="48.800000" y1="163.000000" x2="90.800000" y2="163.000000"  style="stroke: black; stroke-linecap:round; stroke-width:0.25; stroke-dasharray:3,3;"/>
<line x1="90.800000" y1="163.000000" x2="90.800000" y2="121.000000"  style="stroke: black; stroke-linecap:round; stroke-width:0.25; stroke-dasharray:3,3;"/>
<line x1="48.800000" y1="121.000000" x2="53.800000" y2="121.000000"  style="stroke: black; stroke-linecap:round; stroke-width:0.25; stroke-dasharray:3,3;"/>
<line x1="90.800000" y1="121.000000" x2="90.800000" y2="121.000000"  style="stroke: black; stroke-linecap:round; stroke-width:0.25; stroke-dasharray:3,3;"/>
<text x="53.800000" y="123.000000" font-family="Arial" font-size="7">vibratoAttack</text>
<rect x="132.600000" y="99.000000" width="24.000000" height="24.000000" rx="0" ry="0" style="stroke:none;fill:#cccccc;"/>
<rect x="131.600000" y="98.000000" width="24.000000" height="24.000000" rx="0" ry="0" style="stroke:none;fill:#4B71A1;"/>
<text x="143.600000" y="112.000000" font-family="Arial" font-size="7" text-anchor="middle" fill="#FFFFFF">*</text>
<circle cx="133.600000" cy="100.000000" r="1"/>
<line x1="128.600000" y1="105.000000" x2="131.600000" y2="106.000000"  transform="rotate(0.000000,131.600000,106.000000)" style="stroke: black; stroke-width:0.25;"/>
<line x1="128.600000" y1="107.000000" x2="131.600000" y2="106.000000"  transform="rotate(0.000000,131.600000,106.000000)" style="stroke: black; stroke-width:0.25;"/>
<line x1="128.600000" y1="113.000000" x2="131.600000" y2="114.000000"  transform="rotate(0.000000,131.600000,114.000000)" style="stroke: black; stroke-width:0.25;"/>
<line x1="128.600000" y1="115.000000" x2="131.600000" y2="114.000000"  transform="rotate(0.000000,131.600000,114.000000)" style="stroke: black; stroke-width:0.25;"/>
<rect x="78.800000" y="183.000000" width="24.000000" height="24.000000" rx="0" ry="0" style="stroke:none;fill:#cccccc;"/>
<rect x="77.800000" y="182.000000" width="24.000000" height="24.000000" rx="0" ry="0" style="stroke:none;fill:#f44800;"/>
<text x="89.800000" y="196.000000" font-family="Arial" font-size="7" text-anchor="middle" fill="#FFFFFF">1</text>
<circle cx="79.800000" cy="184.000000" r="1"/>
<line x1="68.800000" y1="173.000000" x2="68.800000" y2="215.000000"  style="stroke: black; stroke-linecap:round; stroke-width:0.25; stroke-dasharray:3,3;"/>
<line x1="68.800000" y1="215.000000" x2="110.800000" y2="215.000000"  style="stroke: black; stroke-linecap:round; stroke-width:0.25; stroke-dasharray:3,3;"/>
<line x1="110.800000" y1="215.000000" x2="110.800000" y2="173.000000"  style="stroke: black; stroke-linecap:round; stroke-width:0.25; stroke-dasharray:3,3;"/>
<line x1="68.800000" y1="173.000000" x2="73.800000" y2="173.000000"  style="stroke: black; stroke-linecap:round; stroke-width:0.25; stroke-dasharray:3,3;"/>
<line x1="99.600000" y1="173.000000" x2="110.800000" y2="173.000000"  style="stroke: black; stroke-linecap:round; stroke-width:0.25; stroke-dasharray:3,3;"/>
<text x="73.800000" y="175.000000" font-family="Arial" font-size="7">sigmIn</text>
<rect x="172.600000" y="125.000000" width="24.000000" height="24.000000" rx="0" ry="0" style="stroke:none;fill:#cccccc;"/>
<rect x="171.600000" y="124.000000" width="24.000000" height="24.000000" rx="0" ry="0" style="stroke:none;fill:#4B71A1;"/>
<text x="183.600000" y="138.000000" font-family="Arial" font-size="7" text-anchor="middle" fill="#FFFFFF">-</text>
<circle cx="173.600000" cy="126.000000" r="1"/>
<line x1="168.600000" y1="131.000000" x2="171.600000" y2="132.000000"  transform="rotate(0.000000,171.600000,132.000000)" style="stroke: black; stroke-width:0.25;"/>
<line x1="168.600000" y1="133.000000" x2="171.600000" y2="132.000000"  transform="rotate(0.000000,171.600000,132.000000)" style="stroke: black; stroke-width:0.25;"/>
<line x1="168.600000" y1="139.000000" x2="171.600000" y2="140.000000"  transform="rotate(0.000000,171.600000,140.000000)" style="stroke: black; stroke-width:0.25;"/>
<line x1="168.600000" y1="141.000000" x2="171.600000" y2="140.000000"  transform="rotate(0.000000,171.600000,140.000000)" style="stroke: black; stroke-width:0.25;"/>
<rect x="204.600000" y="125.000000" width="24.000000" height="24.000000" rx="0" ry="0" style="stroke:none;fill:#cccccc;"/>
<rect x="203.600000" y="124.000000" width="24.000000" height="24.000000" rx="0" ry="0" style="stroke:none;fill:#4B71A1;"/>
<text x="215.600000" y="138.000000" font-family="Arial" font-size="7" text-anchor="middle" fill="#FFFFFF">int</text>
<circle cx="205.600000" cy="126.000000" r="1"/>
<line x1="200.600000" y1="135.000000" x2="203.600000" y2="136.000000"  transform="rotate(0.000000,203.600000,136.000000)" style="stroke: black; stroke-width:0.25;"/>
<line x1="200.600000" y1="137.000000" x2="203.600000" y2="136.000000"  transform="rotate(0.000000,203.600000,136.000000)" style="stroke: black; stroke-width:0.25;"/>
<rect x="114.800000" y="225.000000" width="24.000000" height="24.000000" rx="0" ry="0" style="stroke:none;fill:#cccccc;"/>
<rect x="113.800000" y="224.000000" width="24.000000" height="24.000000" rx="0" ry="0" style="stroke:none;fill:#f44800;"/>
<text x="125.800000" y="238.000000" font-family="Arial" font-size="7" text-anchor="middle" fill="#FFFFFF">1</text>
<circle cx="115.800000" cy="226.000000" r="1"/>
<rect x="244.600000" y="141.000000" width="24.000000" height="24.000000" rx="0" ry="0" style="stroke:none;fill:#cccccc;"/>
<rect x="243.600000" y="140.000000" width="24.000000" height="24.000000" rx="0" ry="0" style="stroke:none;fill:#4B71A1;"/>
<text x="255.600000" y="154.000000" font-family="Arial" font-size="7" text-anchor="middle" fill="#FFFFFF">+</text>
<circle cx="245.600000" cy="142.000000" r="1"/>
<line x1="240.600000" y1="147.000000" x2="243.600000" y2="148.000000"  transform="rotate(0.000000,243.600000,148.000000)" style="stroke: black; stroke-width:0.25;"/>
<line x1="240.600000" y1="149.000000" x2="243.600000" y2="148.000000"  transform="rotate(0.000000,243.600000,148.000000)" style="stroke: black; stroke-width:0.25;"/>
<line x1="240.600000" y1="155.000000" x2="243.600000" y2="156.000000"  transform="rotate(0.000000,243.600000,156.000000)" style="stroke: black; stroke-width:0.25;"/>
<line x1="240.600000" y1="157.000000" x2="243.600000" y2="156.000000"  transform="rotate(0.000000,243.600000,156.000000)" style="stroke: black; stroke-width:0.25;"/>
<rect x="276.600000" y="141.000000" width="24.000000" height="24.000000" rx="0" ry="0" style="stroke:none;fill:#cccccc;"/>
<rect x="275.600000" y="140.000000" width="24.000000" height="24.000000" rx="0" ry="0" style="stroke:none;fill:#4B71A1;"/>
<text x="287.600000" y="154.000000" font-family="Arial" font-size="7" text-anchor="middle" fill="#FFFFFF">int</text>
<circle cx="277.600000" cy="142.000000" r="1"/>
<line x1="272.600000" y1="151.000000" x2="275.600000" y2="152.000000"  transform="rotate(0.000000,275.600000,152.000000)" style="stroke: black; stroke-width:0.25;"/>
<line x1="272.600000" y1="153.000000" x2="275.600000" y2="152.000000"  transform="rotate(0.000000,275.600000,152.000000)" style="stroke: black; stroke-width:0.25;"/>
<rect x="129.900000" y="257.000000" width="25.800000" height="24.000000" rx="0" ry="0" style="stroke:none;fill:#cccccc;"/>
<rect x="128.900000" y="256.000000" width="25.800000" height="24.000000" rx="0" ry="0" style="stroke:none;fill:#f44800;"/>
<text x="141.800000" y="270.000000" font-family="Arial" font-size="7" text-anchor="middle" fill="#FFFFFF">4096</text>
<circle cx="130.900000" cy="258.000000" r="1"/>
<rect x="130.800000" y="289.000000" width="24.000000" height="24.000000" rx="0" ry="0" style="stroke:none;fill:#cccccc;"/>
<rect x="129.800000" y="288.000000" width="24.000000" height="24.000000" rx="0" ry="0" style="stroke:none;fill:#f44800;"/>
<text x="141.800000" y="302.000000" font-family="Arial" font-size="7" text-anchor="middle" fill="#FFFFFF">1</text>
<circle cx="131.800000" cy="290.000000" r="1"/>
<rect x="171.700000" y="273.000000" width="24.000000" height="24.000000" rx="0" ry="0" style="stroke:none;fill:#cccccc;"/>
<rect x="170.700000" y="272.000000" width="24.000000" height="24.000000" rx="0" ry="0" style="stroke:none;fill:#4B71A1;"/>
<text x="182.700000" y="286.000000" font-family="Arial" font-size="7" text-anchor="middle" fill="#FFFFFF">-</text>
<circle cx="172.700000" cy="274.000000" r="1"/>
<line x1="167.700000" y1="279.000000" x2="170.700000" y2="280.000000"  transform="rotate(0.000000,170.700000,280.000000)" style="stroke: black; stroke-width:0.25;"/>
<line x1="167.700000" y1="281.000000" x2="170.700000" y2="280.000000"  transform="rotate(0.000000,170.700000,280.000000)" style="stroke: black; stroke-width:0.25;"/>
<line x1="167.700000" y1="287.000000" x2="170.700000" y2="288.000000"  transform="rotate(0.000000,170.700000,288.000000)" style="stroke: black; stroke-width:0.25;"/>
<line x1="167.700000" y1="289.000000" x2="170.700000" y2="288.000000"  transform="rotate(0.000000,170.700000,288.000000)" style="stroke: black; stroke-width:0.25;"/>
<rect x="316.600000" y="173.000000" width="24.000000" height="24.000000" rx="0" ry="0" style="stroke:none;fill:#cccccc;"/>
<rect x="315.600000" y="172.000000" width="24.000000" height="24.000000" rx="0" ry="0" style="stroke:none;fill:#4B71A1;"/>
<text x="327.600000" y="186.000000" font-family="Arial" font-size="7" text-anchor="middle" fill="#FFFFFF">&amp;</text>
<circle cx="317.600000" cy="174.000000" r="1"/>
<line x1="312.600000" y1="179.000000" x2="315.600000" y2="180.000000"  transform="rotate(0.000000,315.600000,180.000000)" style="stroke: black; stroke-width:0.25;"/>
<line x1="312.600000" y1="181.000000" x2="315.600000" y2="180.000000"  transform="rotate(0.000000,315.600000,180.000000)" style="stroke: black; stroke-width:0.25;"/>
<line x1="312.600000" y1="187.000000" x2="315.600000" y2="188.000000"  transform="rotate(0.000000,315.600000,188.000000)" style="stroke: black; stroke-width:0.25;"/>
<line x1="312.600000" y1="189.000000" x2="315.600000" y2="188.000000"  transform="rotate(0.000000,315.600000,188.000000)" style="stroke: black; stroke-width:0.25;"/>
<rect x="356.600000" y="157.000000" width="24.000000" height="24.000000" rx="0" ry="0" style="stroke:none;fill:#cccccc;"/>
<rect x="355.600000" y="156.000000" width="24.000000" height="24.000000" rx="0" ry="0" style="stroke:none;fill:#4B71A1;"/>
<text x="367.600000" y="170.000000" font-family="Arial" font-size="7" text-anchor="middle" fill="#FFFFFF">@</text>
<circle cx="357.600000" cy="158.000000" r="1"/>
<line x1="352.600000" y1="163.000000" x2="355.600000" y2="164.000000"  transform="rotate(0.000000,355.600000,164.000000)" style="stroke: black; stroke-width:0.25;"/>
<line x1="352.600000" y1="165.000000" x2="355.600000" y2="164.000000"  transform="rotate(0.000000,355.600000,164.000000)" style="stroke: black; stroke-width:0.25;"/>
<line x1="352.600000" y1="171.000000" x2="355.600000" y2="172.000000"  transform="rotate(0.000000,355.600000,172.000000)" style="stroke: black; stroke-width:0.25;"/>
<line x1="352.600000" y1="173.000000" x2="355.600000" y2="172.000000"  transform="rotate(0.000000,355.600000,172.000000)" style="stroke: black; stroke-width:0.25;"/>
<line x1="15.000000" y1="15.000000" x2="15.000000" y2="321.000000"  style="stroke: black; stroke-linecap:round; stroke-width:0.25; stroke-dasharray:3,3;"/>
<line x1="15.000000" y1="321.000000" x2="388.600000" y2="321.000000"  style="stroke: black; stroke-linecap:round; stroke-width:0.25; stroke-dasharray:3,3;"/>
<line x1="388.600000" y1="321.000000" x2="388.600000" y2="15.000000"  style="stroke: black; stroke-linecap:round; stroke-width:0.25; stroke-dasharray:3,3;"/>
<line x1="15.000000" y1="15.000000" x2="20.000000" y2="15.000000"  style="stroke: black; stroke-linecap:round; stroke-width:0.25; stroke-dasharray:3,3;"/>
<line x1="42.575000" y1="15.000000" x2="388.600000" y2="15.000000"  style="stroke: black; stroke-linecap:round; stroke-width:0.25; stroke-dasharray:3,3;"/>
<text x="20.000000" y="17.000000" font-family="Arial" font-size="7">delay</text>
<line x1="390.600000" y1="167.000000" x2="393.600000" y2="168.000000"  transform="rotate(0.000000,393.600000,168.000000)" style="stroke: black; stroke-width:0.25;"/>
<line x1="390.600000" y1="169.000000" x2="393.600000" y2="168.000000"  transform="rotate(0.000000,393.600000,168.000000)" style="stroke: black; stroke-width:0.25;"/>
<line x1="62.700000" y1="100.000000" x2="66.700000" y2="100.000000"  style="stroke:black; stroke-linecap:round; stroke-width:0.25;"/>
<line x1="66.700000" y1="100.000000" x2="79.600000" y2="100.000000"  style="stroke:black; stroke-linecap:round; stroke-width:0.25;"/>
<line x1="75.600000" y1="68.000000" x2="79.600000" y2="68.000000"  style="stroke:black; stroke-linecap:round; stroke-width:0.25;"/>
<line x1="79.600000" y1="68.000000" x2="87.600000" y2="68.000000"  style="stroke:black; stroke-linecap:round; stroke-width:0.25;"/>
<line x1="79.600000" y1="88.000000" x2="87.600000" y2="88.000000"  style="stroke:black; stroke-linecap:round; stroke-width:0.25;"/>
<line x1="79.600000" y1="100.000000" x2="79.600000" y2="88.000000"  style="stroke:black; stroke-linecap:round; stroke-width:0.25;"/>
<line x1="79.600000" y1="100.000000" x2="79.600000" y2="100.000000"  style="stroke:black; stroke-linecap:round; stroke-width:0.25;"/>
<line x1="81.800000" y1="142.000000" x2="85.800000" y2="142.000000"  style="stroke:black; stroke-linecap:round; stroke-width:0.25;"/>
<line x1="85.800000" y1="142.000000" x2="95.800000" y2="142.000000"  style="stroke:black; stroke-linecap:round; stroke-width:0.25;"/>
<line x1="87.600000" y1="68.000000" x2="87.600000" y2="80.000000"  style="stroke:black; stroke-linecap:round; stroke-width:0.25;"/>
<line x1="87.600000" y1="80.000000" x2="87.600000" y2="80.000000"  style="stroke:black; stroke-linecap:round; stroke-width:0.25;"/>
<line x1="87.600000" y1="80.000000" x2="91.600000" y2="80.000000"  style="stroke:black; stroke-linecap:round; stroke-width:0.25;"/>
<line x1="87.600000" y1="88.000000" x2="91.600000" y2="88.000000"  style="stroke:black; stroke-linecap:round; stroke-width:0.25;"/>
<line x1="95.800000" y1="142.000000" x2="119.600000" y2="142.000000"  style="stroke:black; stroke-linecap:round; stroke-width:0.25;"/>
<line x1="101.800000" y1="194.000000" x2="105.800000" y2="194.000000"  style="stroke:black; stroke-linecap:round; stroke-width:0.25;"/>
<line x1="105.800000" y1="194.000000" x2="115.800000" y2="194.000000"  style="stroke:black; stroke-linecap:round; stroke-width:0.25;"/>
<line x1="115.600000" y1="84.000000" x2="119.600000" y2="84.000000"  style="stroke:black; stroke-linecap:round; stroke-width:0.25;"/>
<line x1="115.800000" y1="194.000000" x2="159.600000" y2="194.000000"  style="stroke:black; stroke-linecap:round; stroke-width:0.25;"/>
<line x1="119.600000" y1="84.000000" x2="127.600000" y2="84.000000"  style="stroke:black; stroke-linecap:round; stroke-width:0.25;"/>
<line x1="119.600000" y1="114.000000" x2="127.600000" y2="114.000000"  style="stroke:black; stroke-linecap:round; stroke-width:0.25;"/>
<line x1="119.600000" y1="142.000000" x2="119.600000" y2="114.000000"  style="stroke:black; stroke-linecap:round; stroke-width:0.25;"/>
<line x1="119.600000" y1="142.000000" x2="119.600000" y2="142.000000"  style="stroke:black; stroke-linecap:round; stroke-width:0.25;"/>
<line x1="127.600000" y1="84.000000" x2="127.600000" y2="106.000000"  style="stroke:black; stroke-linecap:round; stroke-width:0.25;"/>
<line x1="127.600000" y1="106.000000" x2="127.600000" y2="106.000000"  style="stroke:black; stroke-linecap:round; stroke-width:0.25;"/>
<line x1="127.600000" y1="106.000000" x2="131.600000" y2="106.000000"  style="stroke:black; stroke-linecap:round; stroke-width:0.25;"/>
<line x1="127.600000" y1="114.000000" x2="131.600000" y2="114.000000"  style="stroke:black; stroke-linecap:round; stroke-width:0.25;"/>
<line x1="137.800000" y1="236.000000" x2="141.800000" y2="236.000000"  style="stroke:black; stroke-linecap:round; stroke-width:0.25;"/>
<line x1="141.800000" y1="236.000000" x2="231.600000" y2="236.000000"  style="stroke:black; stroke-linecap:round; stroke-width:0.25;"/>
<line x1="153.800000" y1="300.000000" x2="157.800000" y2="300.000000"  style="stroke:black; stroke-linecap:round; stroke-width:0.25;"/>
<line x1="154.700000" y1="268.000000" x2="158.700000" y2="268.000000"  style="stroke:black; stroke-linecap:round; stroke-width:0.25;"/>
<line x1="155.600000" y1="110.000000" x2="159.600000" y2="110.000000"  style="stroke:black; stroke-linecap:round; stroke-width:0.25;"/>
<line x1="157.800000" y1="300.000000" x2="158.700000" y2="300.000000"  style="stroke:black; stroke-linecap:round; stroke-width:0.25;"/>
<line x1="158.700000" y1="268.000000" x2="166.700000" y2="268.000000"  style="stroke:black; stroke-linecap:round; stroke-width:0.25;"/>
<line x1="158.700000" y1="288.000000" x2="166.700000" y2="288.000000"  style="stroke:black; stroke-linecap:round; stroke-width:0.25;"/>
<line x1="158.700000" y1="300.000000" x2="158.700000" y2="288.000000"  style="stroke:black; stroke-linecap:round; stroke-width:0.25;"/>
<line x1="158.700000" y1="300.000000" x2="158.700000" y2="300.000000"  style="stroke:black; stroke-linecap:round; stroke-width:0.25;"/>
<line x1="159.600000" y1="110.000000" x2="167.600000" y2="110.000000"  style="stroke:black; stroke-linecap:round; stroke-width:0.25;"/>
<line x1="159.600000" y1="140.000000" x2="167.600000" y2="140.000000"  style="stroke:black; stroke-linecap:round; stroke-width:0.25;"/>
<line x1="159.600000" y1="194.000000" x2="159.600000" y2="140.000000"  style="stroke:black; stroke-linecap:round; stroke-width:0.25;"/>
<line x1="159.600000" y1="194.000000" x2="159.600000" y2="194.000000"  style="stroke:black; stroke-linecap:round; stroke-width:0.25;"/>
<line x1="166.700000" y1="268.000000" x2="166.700000" y2="280.000000"  style="stroke:black; stroke-linecap:round; stroke-width:0.25;"/>
<line x1="166.700000" y1="280.000000" x2="166.700000" y2="280.000000"  style="stroke:black; stroke-linecap:round; stroke-width:0.25;"/>
<line x1="166.700000" y1="280.000000" x2="170.700000" y2="280.000000"  style="stroke:black; stroke-linecap:round; stroke-width:0.25;"/>
<line x1="166.700000" y1="288.000000" x2="170.700000" y2="288.000000"  style="stroke:black; stroke-linecap:round; stroke-width:0.25;"/>
<line x1="167.600000" y1="110.000000" x2="167.600000" y2="132.000000"  style="stroke:black; stroke-linecap:round; stroke-width:0.25;"/>
<line x1="167.600000" y1="132.000000" x2="167.600000" y2="132.000000"  style="stroke:black; stroke-linecap:round; stroke-width:0.25;"/>
<line x1="167.600000" y1="132.000000" x2="171.600000" y2="132.000000"  style="stroke:black; stroke-linecap:round; stroke-width:0.25;"/>
<line x1="167.600000" y1="140.000000" x2="171.600000" y2="140.000000"  style="stroke:black; stroke-linecap:round; stroke-width:0.25;"/>
<line x1="193.800000" y1="36.000000" x2="197.800000" y2="36.000000"  style="stroke:black; stroke-linecap:round; stroke-width:0.25;"/>
<line x1="194.700000" y1="284.000000" x2="198.700000" y2="284.000000"  style="stroke:black; stroke-linecap:round; stroke-width:0.25;"/>
<line x1="195.600000" y1="136.000000" x2="199.600000" y2="136.000000"  style="stroke:black; stroke-linecap:round; stroke-width:0.25;"/>
<line x1="197.800000" y1="36.000000" x2="343.600000" y2="36.000000"  style="stroke:black; stroke-linecap:round; stroke-width:0.25;"/>
<line x1="198.700000" y1="284.000000" x2="303.600000" y2="284.000000"  style="stroke:black; stroke-linecap:round; stroke-width:0.25;"/>
<line x1="199.600000" y1="136.000000" x2="199.600000" y2="136.000000"  style="stroke:black; stroke-linecap:round; stroke-width:0.25;"/>
<line x1="199.600000" y1="136.000000" x2="203.600000" y2="136.000000"  style="stroke:black; stroke-linecap:round; stroke-width:0.25;"/>
<line x1="227.600000" y1="136.000000" x2="231.600000" y2="136.000000"  style="stroke:black; stroke-linecap:round; stroke-width:0.25;"/>
<line x1="231.600000" y1="136.000000" x2="239.600000" y2="136.000000"  style="stroke:black; stroke-linecap:round; stroke-width:0.25;"/>
<line x1="231.600000" y1="156.000000" x2="239.600000" y2="156.000000"  style="stroke:black; stroke-linecap:round; stroke-width:0.25;"/>
<line x1="231.600000" y1="236.000000" x2="231.600000" y2="156.000000"  style="stroke:black; stroke-linecap:round; stroke-width:0.25;"/>
<line x1="231.600000" y1="236.000000" x2="231.600000" y2="236.000000"  style="stroke:black; stroke-linecap:round; stroke-width:0.25;"/>
<line x1="239.600000" y1="136.000000" x2="239.600000" y2="148.000000"  style="stroke:black; stroke-linecap:round; stroke-width:0.25;"/>
<line x1="239.600000" y1="148.000000" x2="239.600000" y2="148.000000"  style="stroke:black; stroke-linecap:round; stroke-width:0.25;"/>
<line x1="239.600000" y1="148.000000" x2="243.600000" y2="148.000000"  style="stroke:black; stroke-linecap:round; stroke-width:0.25;"/>
<line x1="239.600000" y1="156.000000" x2="243.600000" y2="156.000000"  style="stroke:black; stroke-linecap:round; stroke-width:0.25;"/>
<line x1="267.600000" y1="152.000000" x2="271.600000" y2="152.000000"  style="stroke:black; stroke-linecap:round; stroke-width:0.25;"/>
<line x1="271.600000" y1="152.000000" x2="271.600000" y2="152.000000"  style="stroke:black; stroke-linecap:round; stroke-width:0.25;"/>
<line x1="271.600000" y1="152.000000" x2="275.600000" y2="152.000000"  style="stroke:black; stroke-linecap:round; stroke-width:0.25;"/>
<line x1="299.600000" y1="152.000000" x2="303.600000" y2="152.000000"  style="stroke:black; stroke-linecap:round; stroke-width:0.25;"/>
<line x1="303.600000" y1="152.000000" x2="311.600000" y2="152.000000"  style="stroke:black; stroke-linecap:round; stroke-width:0.25;"/>
<line x1="303.600000" y1="188.000000" x2="311.600000" y2="188.000000"  style="stroke:black; stroke-linecap:round; stroke-width:0.25;"/>
<line x1="303.600000" y1="284.000000" x2="303.600000" y2="188.000000"  style="stroke:black; stroke-linecap:round; stroke-width:0.25;"/>
<line x1="303.600000" y1="284.000000" x2="303.600000" y2="284.000000"  style="stroke:black; stroke-linecap:round; stroke-width:0.25;"/>
<line x1="311.600000" y1="152.000000" x2="311.600000" y2="180.000000"  style="stroke:black; stroke-linecap:round; stroke-width:0.25;"/>
<line x1="311.600000" y1="180.000000" x2="311.600000" y2="180.000000"  style="stroke:black; stroke-linecap:round; stroke-width:0.25;"/>
<line x1="311.600000" y1="180.000000" x2="315.600000" y2="180.000000"  style="stroke:black; stroke-linecap:round; stroke-width:0.25;"/>
<line x1="311.600000" y1="188.000000" x2="315.600000" y2="188.000000"  style="stroke:black; stroke-linecap:round; stroke-width:0.25;"/>
<line x1="339.600000" y1="184.000000" x2="343.600000" y2="184.000000"  style="stroke:black; stroke-linecap:round; stroke-width:0.25;"/>
<line x1="343.600000" y1="36.000000" x2="351.600000" y2="36.000000"  style="stroke:black; stroke-linecap:round; stroke-width:0.25;"/>
<line x1="343.600000" y1="172.000000" x2="351.600000" y2="172.000000"  style="stroke:black; stroke-linecap:round; stroke-width:0.25;"/>
<line x1="343.600000" y1="184.000000" x2="343.600000" y2="172.000000"  style="stroke:black; stroke-linecap:round; stroke-width:0.25;"/>
<line x1="343.600000" y1="184.000000" x2="343.600000" y2="184.000000"  style="stroke:black; stroke-linecap:round; stroke-width:0.25;"/>
<line x1="351.600000" y1="36.000000" x2="351.600000" y2="164.000000"  style="stroke:black; stroke-linecap:round; stroke-width:0.25;"/>
<line x1="351.600000" y1="164.000000" x2="351.600000" y2="164.000000"  style="stroke:black; stroke-linecap:round; stroke-width:0.25;"/>
<line x1="351.600000" y1="164.000000" x2="355.600000" y2="164.000000"  style="stroke:black; stroke-linecap:round; stroke-width:0.25;"/>
<line x1="351.600000" y1="172.000000" x2="355.600000" y2="172.000000"  style="stroke:black; stroke-linecap:round; stroke-width:0.25;"/>
<line x1="379.600000" y1="168.000000" x2="383.600000" y2="168.000000"  style="stroke:black; stroke-linecap:round; stroke-width:0.25;"/>
<line x1="383.600000" y1="168.000000" x2="393.600000" y2="168.000000"  style="stroke:black; stroke-linecap:round; stroke-width:0.25;"/>
</svg>
