<?xml version="1.0"?>
<svg xmlns="http://www.w3.org/2000/svg" xmlns:xlink="http://www.w3.org/1999/xlink" viewBox="0 0 246.800000 228.000000" width="123.400000mm" height="114.000000mm" version="1.1">
<a xlink:href="scale-0x3332450.svg">
<rect x="1.000000" y="1.000000" width="245.800000" height="227.000000" rx="0" ry="0" style="stroke:none;fill:#cccccc;"/>
<rect x="0.000000" y="0.000000" width="245.800000" height="227.000000" rx="0" ry="0" style="stroke:none;fill:#ffffff;"/>
</a>
<text x="10.000000" y="7.000000" font-family="Arial" font-size="7"></text>
<rect x="81.050000" y="35.000000" width="24.000000" height="24.000000" rx="0" ry="0" style="stroke:none;fill:#cccccc;"/>
<rect x="80.050000" y="34.000000" width="24.000000" height="24.000000" rx="0" ry="0" style="stroke:none;fill:#f44800;"/>
<text x="92.050000" y="48.000000" font-family="Arial" font-size="7" text-anchor="middle" fill="#FFFFFF">0</text>
<circle cx="82.050000" cy="36.000000" r="1"/>
<line x1="71.050000" y1="25.000000" x2="71.050000" y2="67.000000"  style="stroke: black; stroke-linecap:round; stroke-width:0.25; stroke-dasharray:3,3;"/>
<line x1="71.050000" y1="67.000000" x2="113.050000" y2="67.000000"  style="stroke: black; stroke-linecap:round; stroke-width:0.25; stroke-dasharray:3,3;"/>
<line x1="113.050000" y1="67.000000" x2="113.050000" y2="25.000000"  style="stroke: black; stroke-linecap:round; stroke-width:0.25; stroke-dasharray:3,3;"/>
<line x1="71.050000" y1="25.000000" x2="76.050000" y2="25.000000"  style="stroke: black; stroke-linecap:round; stroke-width:0.25; stroke-dasharray:3,3;"/>
<line x1="113.050000" y1="25.000000" x2="113.050000" y2="25.000000"  style="stroke: black; stroke-linecap:round; stroke-width:0.25; stroke-dasharray:3,3;"/>
<text x="76.050000" y="27.000000" font-family="Arial" font-size="7">sigmOffset</text>
<rect x="35.000000" y="87.000000" width="116.100000" height="24.000000" rx="0" ry="0" style="stroke:none;fill:#cccccc;"/>
<rect x="34.000000" y="86.000000" width="116.100000" height="24.000000" rx="0" ry="0" style="stroke:none;fill:#477881;"/>
<text x="92.050000" y="100.000000" font-family="Arial" font-size="7" text-anchor="middle" fill="#FFFFFF">nentry(gain, 1, 0, 1, 0.01)</text>
<circle cx="36.000000" cy="88.000000" r="1"/>
<line x1="25.000000" y1="77.000000" x2="25.000000" y2="119.000000"  style="stroke: black; stroke-linecap:round; stroke-width:0.25; stroke-dasharray:3,3;"/>
<line x1="25.000000" y1="119.000000" x2="159.100000" y2="119.000000"  style="stroke: black; stroke-linecap:round; stroke-width:0.25; stroke-dasharray:3,3;"/>
<line x1="159.100000" y1="119.000000" x2="159.100000" y2="77.000000"  style="stroke: black; stroke-linecap:round; stroke-width:0.25; stroke-dasharray:3,3;"/>
<line x1="25.000000" y1="77.000000" x2="30.000000" y2="77.000000"  style="stroke: black; stroke-linecap:round; stroke-width:0.25; stroke-dasharray:3,3;"/>
<line x1="49.350000" y1="77.000000" x2="159.100000" y2="77.000000"  style="stroke: black; stroke-linecap:round; stroke-width:0.25; stroke-dasharray:3,3;"/>
<text x="30.000000" y="79.000000" font-family="Arial" font-size="7">gain</text>
<rect x="81.050000" y="139.000000" width="24.000000" height="24.000000" rx="0" ry="0" style="stroke:none;fill:#cccccc;"/>
<rect x="80.050000" y="138.000000" width="24.000000" height="24.000000" rx="0" ry="0" style="stroke:none;fill:#f44800;"/>
<text x="92.050000" y="152.000000" font-family="Arial" font-size="7" text-anchor="middle" fill="#FFFFFF">1</text>
<circle cx="82.050000" cy="140.000000" r="1"/>
<line x1="71.050000" y1="129.000000" x2="71.050000" y2="171.000000"  style="stroke: black; stroke-linecap:round; stroke-width:0.25; stroke-dasharray:3,3;"/>
<line x1="71.050000" y1="171.000000" x2="113.050000" y2="171.000000"  style="stroke: black; stroke-linecap:round; stroke-width:0.25; stroke-dasharray:3,3;"/>
<line x1="113.050000" y1="171.000000" x2="113.050000" y2="129.000000"  style="stroke: black; stroke-linecap:round; stroke-width:0.25; stroke-dasharray:3,3;"/>
<line x1="71.050000" y1="129.000000" x2="76.050000" y2="129.000000"  style="stroke: black; stroke-linecap:round; stroke-width:0.25; stroke-dasharray:3,3;"/>
<line x1="101.850000" y1="129.000000" x2="113.050000" y2="129.000000"  style="stroke: black; stroke-linecap:round; stroke-width:0.25; stroke-dasharray:3,3;"/>
<text x="76.050000" y="131.000000" font-family="Arial" font-size="7">sigmIn</text>
<a xlink:href="breathControl-0x332fb90.svg">
<rect x="60.800000" y="181.000000" width="64.500000" height="24.000000" rx="0" ry="0" style="stroke:none;fill:#cccccc;"/>
<rect x="59.800000" y="180.000000" width="64.500000" height="24.000000" rx="0" ry="0" style="stroke:none;fill:#003366;"/>
</a>
<a xlink:href="breathControl-0x332fb90.svg">
<text x="92.050000" y="194.000000" font-family="Arial" font-size="7" text-anchor="middle" fill="#FFFFFF">breathControl</text>
</a>
<circle cx="61.800000" cy="182.000000" r="1"/>
<rect x="185.100000" y="99.000000" width="38.700000" height="32.000000" rx="0" ry="0" style="stroke:none;fill:#cccccc;"/>
<rect x="184.100000" y="98.000000" width="38.700000" height="32.000000" rx="0" ry="0" style="stroke:none;fill:#4B71A1;"/>
<text x="203.450000" y="116.000000" font-family="Arial" font-size="7" text-anchor="middle" fill="#FFFFFF">select3</text>
<circle cx="186.100000" cy="100.000000" r="1"/>
<line x1="181.100000" y1="101.000000" x2="184.100000" y2="102.000000"  transform="rotate(0.000000,184.100000,102.000000)" style="stroke: black; stroke-width:0.25;"/>
<line x1="181.100000" y1="103.000000" x2="184.100000" y2="102.000000"  transform="rotate(0.000000,184.100000,102.000000)" style="stroke: black; stroke-width:0.25;"/>
<line x1="181.100000" y1="109.000000" x2="184.100000" y2="110.000000"  transform="rotate(0.000000,184.100000,110.000000)" style="stroke: black; stroke-width:0.25;"/>
<line x1="181.100000" y1="111.000000" x2="184.100000" y2="110.000000"  transform="rotate(0.000000,184.100000,110.000000)" style="stroke: black; stroke-width:0.25;"/>
<line x1="181.100000" y1="117.000000" x2="184.100000" y2="118.000000"  transform="rotate(0.000000,184.100000,118.000000)" style="stroke: black; stroke-width:0.25;"/>
<line x1="181.100000" y1="119.000000" x2="184.100000" y2="118.000000"  transform="rotate(0.000000,184.100000,118.000000)" style="stroke: black; stroke-width:0.25;"/>
<line x1="181.100000" y1="125.000000" x2="184.100000" y2="126.000000"  transform="rotate(0.000000,184.100000,126.000000)" style="stroke: black; stroke-width:0.25;"/>
<line x1="181.100000" y1="127.000000" x2="184.100000" y2="126.000000"  transform="rotate(0.000000,184.100000,126.000000)" style="stroke: black; stroke-width:0.25;"/>
<line x1="15.000000" y1="15.000000" x2="15.000000" y2="213.000000"  style="stroke: black; stroke-linecap:round; stroke-width:0.25; stroke-dasharray:3,3;"/>
<line x1="15.000000" y1="213.000000" x2="231.800000" y2="213.000000"  style="stroke: black; stroke-linecap:round; stroke-width:0.25; stroke-dasharray:3,3;"/>
<line x1="231.800000" y1="213.000000" x2="231.800000" y2="15.000000"  style="stroke: black; stroke-linecap:round; stroke-width:0.25; stroke-dasharray:3,3;"/>
<line x1="15.000000" y1="15.000000" x2="20.000000" y2="15.000000"  style="stroke: black; stroke-linecap:round; stroke-width:0.25; stroke-dasharray:3,3;"/>
<line x1="68.375000" y1="15.000000" x2="231.800000" y2="15.000000"  style="stroke: black; stroke-linecap:round; stroke-width:0.25; stroke-dasharray:3,3;"/>
<text x="20.000000" y="17.000000" font-family="Arial" font-size="7">effectiveGain</text>
<line x1="233.800000" y1="113.000000" x2="236.800000" y2="114.000000"  transform="rotate(0.000000,236.800000,114.000000)" style="stroke: black; stroke-width:0.25;"/>
<line x1="233.800000" y1="115.000000" x2="236.800000" y2="114.000000"  transform="rotate(0.000000,236.800000,114.000000)" style="stroke: black; stroke-width:0.25;"/>
<line x1="104.050000" y1="46.000000" x2="108.050000" y2="46.000000"  style="stroke:black; stroke-linecap:round; stroke-width:0.25;"/>
<line x1="104.050000" y1="150.000000" x2="108.050000" y2="150.000000"  style="stroke:black; stroke-linecap:round; stroke-width:0.25;"/>
<line x1="108.050000" y1="46.000000" x2="118.050000" y2="46.000000"  style="stroke:black; stroke-linecap:round; stroke-width:0.25;"/>
<line x1="108.050000" y1="150.000000" x2="118.050000" y2="150.000000"  style="stroke:black; stroke-linecap:round; stroke-width:0.25;"/>
<line x1="118.050000" y1="46.000000" x2="164.100000" y2="46.000000"  style="stroke:black; stroke-linecap:round; stroke-width:0.25;"/>
<line x1="118.050000" y1="150.000000" x2="128.300000" y2="150.000000"  style="stroke:black; stroke-linecap:round; stroke-width:0.25;"/>
<line x1="124.300000" y1="192.000000" x2="128.300000" y2="192.000000"  style="stroke:black; stroke-linecap:round; stroke-width:0.25;"/>
<line x1="128.300000" y1="150.000000" x2="164.100000" y2="150.000000"  style="stroke:black; stroke-linecap:round; stroke-width:0.25;"/>
<line x1="128.300000" y1="192.000000" x2="164.100000" y2="192.000000"  style="stroke:black; stroke-linecap:round; stroke-width:0.25;"/>
<line x1="150.100000" y1="98.000000" x2="154.100000" y2="98.000000"  style="stroke:black; stroke-linecap:round; stroke-width:0.25;"/>
<line x1="154.100000" y1="98.000000" x2="164.100000" y2="98.000000"  style="stroke:black; stroke-linecap:round; stroke-width:0.25;"/>
<line x1="164.100000" y1="46.000000" x2="180.100000" y2="46.000000"  style="stroke:black; stroke-linecap:round; stroke-width:0.25;"/>
<line x1="164.100000" y1="98.000000" x2="172.100000" y2="98.000000"  style="stroke:black; stroke-linecap:round; stroke-width:0.25;"/>
<line x1="164.100000" y1="118.000000" x2="180.100000" y2="118.000000"  style="stroke:black; stroke-linecap:round; stroke-width:0.25;"/>
<line x1="164.100000" y1="150.000000" x2="164.100000" y2="118.000000"  style="stroke:black; stroke-linecap:round; stroke-width:0.25;"/>
<line x1="164.100000" y1="150.000000" x2="164.100000" y2="150.000000"  style="stroke:black; stroke-linecap:round; stroke-width:0.25;"/>
<line x1="164.100000" y1="192.000000" x2="172.100000" y2="192.000000"  style="stroke:black; stroke-linecap:round; stroke-width:0.25;"/>
<line x1="172.100000" y1="98.000000" x2="172.100000" y2="110.000000"  style="stroke:black; stroke-linecap:round; stroke-width:0.25;"/>
<line x1="172.100000" y1="110.000000" x2="180.100000" y2="110.000000"  style="stroke:black; stroke-linecap:round; stroke-width:0.25;"/>
<line x1="172.100000" y1="126.000000" x2="180.100000" y2="126.000000"  style="stroke:black; stroke-linecap:round; stroke-width:0.25;"/>
<line x1="172.100000" y1="192.000000" x2="172.100000" y2="126.000000"  style="stroke:black; stroke-linecap:round; stroke-width:0.25;"/>
<line x1="180.100000" y1="46.000000" x2="180.100000" y2="102.000000"  style="stroke:black; stroke-linecap:round; stroke-width:0.25;"/>
<line x1="180.100000" y1="102.000000" x2="180.100000" y2="102.000000"  style="stroke:black; stroke-linecap:round; stroke-width:0.25;"/>
<line x1="180.100000" y1="102.000000" x2="184.100000" y2="102.000000"  style="stroke:black; stroke-linecap:round; stroke-width:0.25;"/>
<line x1="180.100000" y1="110.000000" x2="184.100000" y2="110.000000"  style="stroke:black; stroke-linecap:round; stroke-width:0.25;"/>
<line x1="180.100000" y1="118.000000" x2="184.100000" y2="118.000000"  style="stroke:black; stroke-linecap:round; stroke-width:0.25;"/>
<line x1="180.100000" y1="126.000000" x2="184.100000" y2="126.000000"  style="stroke:black; stroke-linecap:round; stroke-width:0.25;"/>
<line x1="222.800000" y1="114.000000" x2="226.800000" y2="114.000000"  style="stroke:black; stroke-linecap:round; stroke-width:0.25;"/>
<line x1="226.800000" y1="114.000000" x2="236.800000" y2="114.000000"  style="stroke:black; stroke-linecap:round; stroke-width:0.25;"/>
</svg>
