<?xml version="1.0"?>
<svg xmlns="http://www.w3.org/2000/svg" xmlns:xlink="http://www.w3.org/1999/xlink" viewBox="0 0 268.500000 184.000000" width="134.250000mm" height="92.000000mm" version="1.1">
<a xlink:href="flute-0x27a8c60.svg">
<rect x="1.000000" y="1.000000" width="267.500000" height="183.000000" rx="0" ry="0" style="stroke:none;fill:#cccccc;"/>
<rect x="0.000000" y="0.000000" width="267.500000" height="183.000000" rx="0" ry="0" style="stroke:none;fill:#ffffff;"/>
</a>
<text x="10.000000" y="7.000000" font-family="Arial" font-size="7"></text>
<rect x="35.900000" y="35.000000" width="24.000000" height="24.000000" rx="0" ry="0" style="stroke:none;fill:#cccccc;"/>
<rect x="34.900000" y="34.000000" width="24.000000" height="24.000000" rx="0" ry="0" style="stroke:none;fill:#f44800;"/>
<text x="46.900000" y="48.000000" font-family="Arial" font-size="7" text-anchor="middle" fill="#FFFFFF">0.7</text>
<circle cx="36.900000" cy="36.000000" r="1"/>
<line x1="25.900000" y1="25.000000" x2="25.900000" y2="67.000000"  style="stroke: black; stroke-linecap:round; stroke-width:0.25; stroke-dasharray:3,3;"/>
<line x1="25.900000" y1="67.000000" x2="67.900000" y2="67.000000"  style="stroke: black; stroke-linecap:round; stroke-width:0.25; stroke-dasharray:3,3;"/>
<line x1="67.900000" y1="67.000000" x2="67.900000" y2="25.000000"  style="stroke: black; stroke-linecap:round; stroke-width:0.25; stroke-dasharray:3,3;"/>
<line x1="25.900000" y1="25.000000" x2="30.900000" y2="25.000000"  style="stroke: black; stroke-linecap:round; stroke-width:0.25; stroke-dasharray:3,3;"/>
<line x1="67.900000" y1="25.000000" x2="67.900000" y2="25.000000"  style="stroke: black; stroke-linecap:round; stroke-width:0.25; stroke-dasharray:3,3;"/>
<text x="30.900000" y="27.000000" font-family="Arial" font-size="7">voicedGain</text>
<rect x="85.900000" y="39.000000" width="24.000000" height="24.000000" rx="0" ry="0" style="stroke:none;fill:#cccccc;"/>
<rect x="84.900000" y="38.000000" width="24.000000" height="24.000000" rx="0" ry="0" style="stroke:none;fill:#4B71A1;"/>
<text x="96.900000" y="52.000000" font-family="Arial" font-size="7" text-anchor="middle" fill="#FFFFFF">*</text>
<circle cx="86.900000" cy="40.000000" r="1"/>
<line x1="81.900000" y1="45.000000" x2="84.900000" y2="46.000000"  transform="rotate(0.000000,84.900000,46.000000)" style="stroke: black; stroke-width:0.25;"/>
<line x1="81.900000" y1="47.000000" x2="84.900000" y2="46.000000"  transform="rotate(0.000000,84.900000,46.000000)" style="stroke: black; stroke-width:0.25;"/>
<line x1="81.900000" y1="53.000000" x2="84.900000" y2="54.000000"  transform="rotate(0.000000,84.900000,54.000000)" style="stroke: black; stroke-width:0.25;"/>
<line x1="81.900000" y1="55.000000" x2="84.900000" y2="54.000000"  transform="rotate(0.000000,84.900000,54.000000)" style="stroke: black; stroke-width:0.25;"/>
<rect x="35.000000" y="95.000000" width="25.800000" height="24.000000" rx="0" ry="0" style="stroke:none;fill:#cccccc;"/>
<rect x="34.000000" y="94.000000" width="25.800000" height="24.000000" rx="0" ry="0" style="stroke:none;fill:#f44800;"/>
<text x="46.900000" y="108.000000" font-family="Arial" font-size="7" text-anchor="middle" fill="#FFFFFF">0.02</text>
<circle cx="36.000000" cy="96.000000" r="1"/>
<line x1="25.000000" y1="85.000000" x2="25.000000" y2="127.000000"  style="stroke: black; stroke-linecap:round; stroke-width:0.25; stroke-dasharray:3,3;"/>
<line x1="25.000000" y1="127.000000" x2="68.800000" y2="127.000000"  style="stroke: black; stroke-linecap:round; stroke-width:0.25; stroke-dasharray:3,3;"/>
<line x1="68.800000" y1="127.000000" x2="68.800000" y2="85.000000"  style="stroke: black; stroke-linecap:round; stroke-width:0.25; stroke-dasharray:3,3;"/>
<line x1="25.000000" y1="85.000000" x2="30.000000" y2="85.000000"  style="stroke: black; stroke-linecap:round; stroke-width:0.25; stroke-dasharray:3,3;"/>
<line x1="65.475000" y1="85.000000" x2="68.800000" y2="85.000000"  style="stroke: black; stroke-linecap:round; stroke-width:0.25; stroke-dasharray:3,3;"/>
<text x="30.000000" y="87.000000" font-family="Arial" font-size="7">noiseGain</text>
<a xlink:href="noise-0x2740130.svg">
<rect x="35.000000" y="137.000000" width="25.800000" height="24.000000" rx="0" ry="0" style="stroke:none;fill:#cccccc;"/>
<rect x="34.000000" y="136.000000" width="25.800000" height="24.000000" rx="0" ry="0" style="stroke:none;fill:#003366;"/>
</a>
<a xlink:href="noise-0x2740130.svg">
<text x="46.900000" y="150.000000" font-family="Arial" font-size="7" text-anchor="middle" fill="#FFFFFF">noise</text>
</a>
<circle cx="36.000000" cy="138.000000" r="1"/>
<rect x="86.800000" y="111.000000" width="24.000000" height="24.000000" rx="0" ry="0" style="stroke:none;fill:#cccccc;"/>
<rect x="85.800000" y="110.000000" width="24.000000" height="24.000000" rx="0" ry="0" style="stroke:none;fill:#4B71A1;"/>
<text x="97.800000" y="124.000000" font-family="Arial" font-size="7" text-anchor="middle" fill="#FFFFFF">*</text>
<circle cx="87.800000" cy="112.000000" r="1"/>
<line x1="82.800000" y1="117.000000" x2="85.800000" y2="118.000000"  transform="rotate(0.000000,85.800000,118.000000)" style="stroke: black; stroke-width:0.25;"/>
<line x1="82.800000" y1="119.000000" x2="85.800000" y2="118.000000"  transform="rotate(0.000000,85.800000,118.000000)" style="stroke: black; stroke-width:0.25;"/>
<line x1="82.800000" y1="125.000000" x2="85.800000" y2="126.000000"  transform="rotate(0.000000,85.800000,126.000000)" style="stroke: black; stroke-width:0.25;"/>
<line x1="82.800000" y1="127.000000" x2="85.800000" y2="126.000000"  transform="rotate(0.000000,85.800000,126.000000)" style="stroke: black; stroke-width:0.25;"/>
<rect x="126.800000" y="81.000000" width="24.000000" height="24.000000" rx="0" ry="0" style="stroke:none;fill:#cccccc;"/>
<rect x="125.800000" y="80.000000" width="24.000000" height="24.000000" rx="0" ry="0" style="stroke:none;fill:#4B71A1;"/>
<text x="137.800000" y="94.000000" font-family="Arial" font-size="7" text-anchor="middle" fill="#FFFFFF">+</text>
<circle cx="127.800000" cy="82.000000" r="1"/>
<line x1="122.800000" y1="87.000000" x2="125.800000" y2="88.000000"  transform="rotate(0.000000,125.800000,88.000000)" style="stroke: black; stroke-width:0.25;"/>
<line x1="122.800000" y1="89.000000" x2="125.800000" y2="88.000000"  transform="rotate(0.000000,125.800000,88.000000)" style="stroke: black; stroke-width:0.25;"/>
<line x1="122.800000" y1="95.000000" x2="125.800000" y2="96.000000"  transform="rotate(0.000000,125.800000,96.000000)" style="stroke: black; stroke-width:0.25;"/>
<line x1="122.800000" y1="97.000000" x2="125.800000" y2="96.000000"  transform="rotate(0.000000,125.800000,96.000000)" style="stroke: black; stroke-width:0.25;"/>
<a xlink:href="envelope-0x2778dc0.svg">
<rect x="166.800000" y="77.000000" width="38.700000" height="24.000000" rx="0" ry="0" style="stroke:none;fill:#cccccc;"/>
<rect x="165.800000" y="76.000000" width="38.700000" height="24.000000" rx="0" ry="0" style="stroke:none;fill:#003366;"/>
</a>
<a xlink:href="envelope-0x2778dc0.svg">
<text x="185.150000" y="90.000000" font-family="Arial" font-size="7" text-anchor="middle" fill="#FFFFFF">envelope</text>
</a>
<circle cx="167.800000" cy="78.000000" r="1"/>
<rect x="221.500000" y="81.000000" width="24.000000" height="24.000000" rx="0" ry="0" style="stroke:none;fill:#cccccc;"/>
<rect x="220.500000" y="80.000000" width="24.000000" height="24.000000" rx="0" ry="0" style="stroke:none;fill:#4B71A1;"/>
<text x="232.500000" y="94.000000" font-family="Arial" font-size="7" text-anchor="middle" fill="#FFFFFF">*</text>
<circle cx="222.500000" cy="82.000000" r="1"/>
<line x1="217.500000" y1="87.000000" x2="220.500000" y2="88.000000"  transform="rotate(0.000000,220.500000,88.000000)" style="stroke: black; stroke-width:0.25;"/>
<line x1="217.500000" y1="89.000000" x2="220.500000" y2="88.000000"  transform="rotate(0.000000,220.500000,88.000000)" style="stroke: black; stroke-width:0.25;"/>
<line x1="217.500000" y1="95.000000" x2="220.500000" y2="96.000000"  transform="rotate(0.000000,220.500000,96.000000)" style="stroke: black; stroke-width:0.25;"/>
<line x1="217.500000" y1="97.000000" x2="220.500000" y2="96.000000"  transform="rotate(0.000000,220.500000,96.000000)" style="stroke: black; stroke-width:0.25;"/>
<line x1="15.000000" y1="15.000000" x2="15.000000" y2="169.000000"  style="stroke: black; stroke-linecap:round; stroke-width:0.25; stroke-dasharray:3,3;"/>
<line x1="15.000000" y1="169.000000" x2="253.500000" y2="169.000000"  style="stroke: black; stroke-linecap:round; stroke-width:0.25; stroke-dasharray:3,3;"/>
<line x1="253.500000" y1="169.000000" x2="253.500000" y2="15.000000"  style="stroke: black; stroke-linecap:round; stroke-width:0.25; stroke-dasharray:3,3;"/>
<line x1="15.000000" y1="15.000000" x2="20.000000" y2="15.000000"  style="stroke: black; stroke-linecap:round; stroke-width:0.25; stroke-dasharray:3,3;"/>
<line x1="58.700000" y1="15.000000" x2="253.500000" y2="15.000000"  style="stroke: black; stroke-linecap:round; stroke-width:0.25; stroke-dasharray:3,3;"/>
<text x="20.000000" y="17.000000" font-family="Arial" font-size="7">excitation</text>
<line x1="255.500000" y1="91.000000" x2="258.500000" y2="92.000000"  transform="rotate(0.000000,258.500000,92.000000)" style="stroke: black; stroke-width:0.25;"/>
<line x1="255.500000" y1="93.000000" x2="258.500000" y2="92.000000"  transform="rotate(0.000000,258.500000,92.000000)" style="stroke: black; stroke-width:0.25;"/>
<line x1="10.000000" y1="76.000000" x2="20.000000" y2="76.000000"  style="stroke:black; stroke-linecap:round; stroke-width:0.25;"/>
<line x1="20.000000" y1="76.000000" x2="20.900000" y2="76.000000"  style="stroke:black; stroke-linecap:round; stroke-width:0.25;"/>
<line x1="20.900000" y1="76.000000" x2="46.900000" y2="76.000000"  style="stroke:black; stroke-linecap:round; stroke-width:0.25;"/>
<line x1="46.900000" y1="76.000000" x2="72.900000" y2="76.000000"  style="stroke:black; stroke-linecap:round; stroke-width:0.25;"/>
<line x1="58.900000" y1="46.000000" x2="62.900000" y2="46.000000"  style="stroke:black; stroke-linecap:round; stroke-width:0.25;"/>
<line x1="59.800000" y1="106.000000" x2="63.800000" y2="106.000000"  style="stroke:black; stroke-linecap:round; stroke-width:0.25;"/>
<line x1="59.800000" y1="148.000000" x2="63.800000" y2="148.000000"  style="stroke:black; stroke-linecap:round; stroke-width:0.25;"/>
<line x1="62.900000" y1="46.000000" x2="72.900000" y2="46.000000"  style="stroke:black; stroke-linecap:round; stroke-width:0.25;"/>
<line x1="63.800000" y1="106.000000" x2="73.800000" y2="106.000000"  style="stroke:black; stroke-linecap:round; stroke-width:0.25;"/>
<line x1="63.800000" y1="148.000000" x2="73.800000" y2="148.000000"  style="stroke:black; stroke-linecap:round; stroke-width:0.25;"/>
<line x1="72.900000" y1="46.000000" x2="80.900000" y2="46.000000"  style="stroke:black; stroke-linecap:round; stroke-width:0.25;"/>
<line x1="72.900000" y1="54.000000" x2="80.900000" y2="54.000000"  style="stroke:black; stroke-linecap:round; stroke-width:0.25;"/>
<line x1="72.900000" y1="76.000000" x2="72.900000" y2="54.000000"  style="stroke:black; stroke-linecap:round; stroke-width:0.25;"/>
<line x1="72.900000" y1="76.000000" x2="72.900000" y2="76.000000"  style="stroke:black; stroke-linecap:round; stroke-width:0.25;"/>
<line x1="73.800000" y1="106.000000" x2="81.800000" y2="106.000000"  style="stroke:black; stroke-linecap:round; stroke-width:0.25;"/>
<line x1="73.800000" y1="126.000000" x2="81.800000" y2="126.000000"  style="stroke:black; stroke-linecap:round; stroke-width:0.25;"/>
<line x1="73.800000" y1="148.000000" x2="73.800000" y2="126.000000"  style="stroke:black; stroke-linecap:round; stroke-width:0.25;"/>
<line x1="73.800000" y1="148.000000" x2="73.800000" y2="148.000000"  style="stroke:black; stroke-linecap:round; stroke-width:0.25;"/>
<line x1="80.900000" y1="46.000000" x2="84.900000" y2="46.000000"  style="stroke:black; stroke-linecap:round; stroke-width:0.25;"/>
<line x1="80.900000" y1="54.000000" x2="84.900000" y2="54.000000"  style="stroke:black; stroke-linecap:round; stroke-width:0.25;"/>
<line x1="81.800000" y1="106.000000" x2="81.800000" y2="118.000000"  style="stroke:black; stroke-linecap:round; stroke-width:0.25;"/>
<line x1="81.800000" y1="118.000000" x2="81.800000" y2="118.000000"  style="stroke:black; stroke-linecap:round; stroke-width:0.25;"/>
<line x1="81.800000" y1="118.000000" x2="85.800000" y2="118.000000"  style="stroke:black; stroke-linecap:round; stroke-width:0.25;"/>
<line x1="81.800000" y1="126.000000" x2="85.800000" y2="126.000000"  style="stroke:black; stroke-linecap:round; stroke-width:0.25;"/>
<line x1="108.900000" y1="50.000000" x2="112.900000" y2="50.000000"  style="stroke:black; stroke-linecap:round; stroke-width:0.25;"/>
<line x1="109.800000" y1="122.000000" x2="113.800000" y2="122.000000"  style="stroke:black; stroke-linecap:round; stroke-width:0.25;"/>
<line x1="112.900000" y1="50.000000" x2="113.800000" y2="50.000000"  style="stroke:black; stroke-linecap:round; stroke-width:0.25;"/>
<line x1="113.800000" y1="96.000000" x2="121.800000" y2="96.000000"  style="stroke:black; stroke-linecap:round; stroke-width:0.25;"/>
<line x1="113.800000" y1="122.000000" x2="113.800000" y2="96.000000"  style="stroke:black; stroke-linecap:round; stroke-width:0.25;"/>
<line x1="113.800000" y1="122.000000" x2="113.800000" y2="122.000000"  style="stroke:black; stroke-linecap:round; stroke-width:0.25;"/>
<line x1="113.800000" y1="50.000000" x2="121.800000" y2="50.000000"  style="stroke:black; stroke-linecap:round; stroke-width:0.25;"/>
<line x1="121.800000" y1="88.000000" x2="125.800000" y2="88.000000"  style="stroke:black; stroke-linecap:round; stroke-width:0.25;"/>
<line x1="121.800000" y1="96.000000" x2="125.800000" y2="96.000000"  style="stroke:black; stroke-linecap:round; stroke-width:0.25;"/>
<line x1="121.800000" y1="50.000000" x2="121.800000" y2="88.000000"  style="stroke:black; stroke-linecap:round; stroke-width:0.25;"/>
<line x1="121.800000" y1="88.000000" x2="121.800000" y2="88.000000"  style="stroke:black; stroke-linecap:round; stroke-width:0.25;"/>
<line x1="149.800000" y1="92.000000" x2="153.800000" y2="92.000000"  style="stroke:black; stroke-linecap:round; stroke-width:0.25;"/>
<line x1="153.800000" y1="92.000000" x2="161.800000" y2="92.000000"  style="stroke:black; stroke-linecap:round; stroke-width:0.25;"/>
<line x1="161.800000" y1="92.000000" x2="161.800000" y2="108.000000"  style="stroke:black; stroke-linecap:round; stroke-width:0.25;"/>
<line x1="161.800000" y1="108.000000" x2="161.800000" y2="108.000000"  style="stroke:black; stroke-linecap:round; stroke-width:0.25;"/>
<line x1="161.800000" y1="108.000000" x2="185.150000" y2="108.000000"  style="stroke:black; stroke-linecap:round; stroke-width:0.25;"/>
<line x1="185.150000" y1="108.000000" x2="208.500000" y2="108.000000"  style="stroke:black; stroke-linecap:round; stroke-width:0.25;"/>
<line x1="204.500000" y1="88.000000" x2="208.500000" y2="88.000000"  style="stroke:black; stroke-linecap:round; stroke-width:0.25;"/>
<line x1="208.500000" y1="88.000000" x2="216.500000" y2="88.000000"  style="stroke:black; stroke-linecap:round; stroke-width:0.25;"/>
<line x1="208.500000" y1="96.000000" x2="216.500000" y2="96.000000"  style="stroke:black; stroke-linecap:round; stroke-width:0.25;"/>
<line x1="208.500000" y1="108.000000" x2="208.500000" y2="96.000000"  style="stroke:black; stroke-linecap:round; stroke-width:0.25;"/>
<line x1="208.500000" y1="108.000000" x2="208.500000" y2="108.000000"  style="stroke:black; stroke-linecap:round; stroke-width:0.25;"/>
<line x1="216.500000" y1="88.000000" x2="220.500000" y2="88.000000"  style="stroke:black; stroke-linecap:round; stroke-width:0.25;"/>
<line x1="216.500000" y1="96.000000" x2="220.500000" y2="96.000000"  style="stroke:black; stroke-linecap:round; stroke-width:0.25;"/>
<line x1="244.500000" y1="92.000000" x2="248.500000" y2="92.000000"  style="stroke:black; stroke-linecap:round; stroke-width:0.25;"/>
<line x1="248.500000" y1="92.000000" x2="258.500000" y2="92.000000"  style="stroke:black; stroke-linecap:round; stroke-width:0.25;"/>
</svg>
