<?xml version="1.0"?>
<svg xmlns="http://www.w3.org/2000/svg" xmlns:xlink="http://www.w3.org/1999/xlink" viewBox="0 0 515.660000 224.080000" width="257.830000mm" height="112.040000mm" version="1.1">
<a xlink:href="process.svg">
<rect x="1.000000" y="1.000000" width="514.660000" height="223.080000" rx="0" ry="0" style="stroke:none;fill:#cccccc;"/>
<rect x="0.000000" y="0.000000" width="514.660000" height="223.080000" rx="0" ry="0" style="stroke:none;fill:#ffffff;"/>
</a>
<text x="10.000000" y="7.000000" font-family="Arial" font-size="7"></text>
<a xlink:href="excitation-0x33a71b0.svg">
<rect x="41.000000" y="135.040000" width="51.600000" height="24.000000" rx="0" ry="0" style="stroke:none;fill:#cccccc;"/>
<rect x="40.000000" y="134.040000" width="51.600000" height="24.000000" rx="0" ry="0" style="stroke:none;fill:#003366;"/>
</a>
<a xlink:href="excitation-0x33a71b0.svg">
<text x="65.800000" y="148.040000" font-family="Arial" font-size="7" text-anchor="middle" fill="#FFFFFF">excitation</text>
</a>
<circle cx="42.000000" cy="136.040000" r="1"/>
<line x1="37.000000" y1="145.040000" x2="40.000000" y2="146.040000"  transform="rotate(0.000000,40.000000,146.040000)" style="stroke: black; stroke-width:0.25;"/>
<line x1="37.000000" y1="147.040000" x2="40.000000" y2="146.040000"  transform="rotate(0.000000,40.000000,146.040000)" style="stroke: black; stroke-width:0.25;"/>
<a xlink:href="jet-0x33b71c0.svg">
<rect x="100.600000" y="135.040000" width="24.000000" height="24.000000" rx="0" ry="0" style="stroke:none;fill:#cccccc;"/>
<rect x="99.600000" y="134.040000" width="24.000000" height="24.000000" rx="0" ry="0" style="stroke:none;fill:#003366;"/>
</a>
<a xlink:href="jet-0x33b71c0.svg">
<text x="111.600000" y="148.040000" font-family="Arial" font-size="7" text-anchor="middle" fill="#FFFFFF">jet</text>
</a>
<circle cx="101.600000" cy="136.040000" r="1"/>
<line x1="96.600000" y1="145.040000" x2="99.600000" y2="146.040000"  transform="rotate(0.000000,99.600000,146.040000)" style="stroke: black; stroke-width:0.25;"/>
<line x1="96.600000" y1="147.040000" x2="99.600000" y2="146.040000"  transform="rotate(0.000000,99.600000,146.040000)" style="stroke: black; stroke-width:0.25;"/>
<rect x="177.620000" y="169.040000" width="24.000000" height="24.000000" rx="0" ry="0" style="stroke:none;fill:#cccccc;"/>
<rect x="176.620000" y="168.040000" width="24.000000" height="24.000000" rx="0" ry="0" style="stroke:none;fill:#4B71A1;"/>
<text x="188.620000" y="182.040000" font-family="Arial" font-size="7" text-anchor="middle" fill="#FFFFFF">+</text>
<circle cx="178.620000" cy="170.040000" r="1"/>
<line x1="173.620000" y1="175.040000" x2="176.620000" y2="176.040000"  transform="rotate(0.000000,176.620000,176.040000)" style="stroke: black; stroke-width:0.25;"/>
<line x1="173.620000" y1="177.040000" x2="176.620000" y2="176.040000"  transform="rotate(0.000000,176.620000,176.040000)" style="stroke: black; stroke-width:0.25;"/>
<line x1="173.620000" y1="183.040000" x2="176.620000" y2="184.040000"  transform="rotate(0.000000,176.620000,184.040000)" style="stroke: black; stroke-width:0.25;"/>
<line x1="173.620000" y1="185.040000" x2="176.620000" y2="184.040000"  transform="rotate(0.000000,176.620000,184.040000)" style="stroke: black; stroke-width:0.25;"/>
<a xlink:href="upperBore-0x33b8fd0.svg">
<rect x="209.620000" y="169.040000" width="38.700000" height="24.000000" rx="0" ry="0" style="stroke:none;fill:#cccccc;"/>
<rect x="208.620000" y="168.040000" width="38.700000" height="24.000000" rx="0" ry="0" style="stroke:none;fill:#003366;"/>
</a>
<a xlink:href="upperBore-0x33b8fd0.svg">
<text x="227.970000" y="182.040000" font-family="Arial" font-size="7" text-anchor="middle" fill="#FFFFFF">upperBore</text>
</a>
<circle cx="210.620000" cy="170.040000" r="1"/>
<line x1="205.620000" y1="179.040000" x2="208.620000" y2="180.040000"  transform="rotate(0.000000,208.620000,180.040000)" style="stroke: black; stroke-width:0.25;"/>
<line x1="205.620000" y1="181.040000" x2="208.620000" y2="180.040000"  transform="rotate(0.000000,208.620000,180.040000)" style="stroke: black; stroke-width:0.25;"/>
<a xlink:href="reflection-0x33c85e0.svg">
<rect x="276.340000" y="165.040000" width="51.600000" height="24.000000" rx="0" ry="0" style="stroke:none;fill:#cccccc;"/>
<rect x="275.340000" y="164.040000" width="51.600000" height="24.000000" rx="0" ry="0" style="stroke:none;fill:#003366;"/>
</a>
<a xlink:href="reflection-0x33c85e0.svg">
<text x="301.140000" y="178.040000" font-family="Arial" font-size="7" text-anchor="middle" fill="#FFFFFF">reflection</text>
</a>
<circle cx="277.340000" cy="166.040000" r="1"/>
<line x1="272.340000" y1="175.040000" x2="275.340000" y2="176.040000"  transform="rotate(0.000000,275.340000,176.040000)" style="stroke: black; stroke-width:0.25;"/>
<line x1="272.340000" y1="177.040000" x2="275.340000" y2="176.040000"  transform="rotate(0.000000,275.340000,176.040000)" style="stroke: black; stroke-width:0.25;"/>
<a xlink:href="lowerBore-0x33d97d0.svg">
<rect x="357.960000" y="161.000000" width="38.700000" height="24.000000" rx="0" ry="0" style="stroke:none;fill:#cccccc;"/>
<rect x="356.960000" y="160.000000" width="38.700000" height="24.000000" rx="0" ry="0" style="stroke:none;fill:#003366;"/>
</a>
<a xlink:href="lowerBore-0x33d97d0.svg">
<text x="376.310000" y="174.000000" font-family="Arial" font-size="7" text-anchor="middle" fill="#FFFFFF">lowerBore</text>
</a>
<circle cx="358.960000" cy="162.000000" r="1"/>
<line x1="353.960000" y1="171.000000" x2="356.960000" y2="172.000000"  transform="rotate(0.000000,356.960000,172.000000)" style="stroke: black; stroke-width:0.25;"/>
<line x1="353.960000" y1="173.000000" x2="356.960000" y2="172.000000"  transform="rotate(0.000000,356.960000,172.000000)" style="stroke: black; stroke-width:0.25;"/>
<rect x="294.240000" y="119.000000" width="25.800000" height="24.000000" rx="0" ry="0" style="stroke:none;fill:#cccccc;"/>
<rect x="293.240000" y="118.000000" width="25.800000" height="24.000000" rx="0" ry="0" style="stroke:none;fill:#f44800;"/>
<text x="306.140000" y="132.000000" font-family="Arial" font-size="7" text-anchor="middle" fill="#FFFFFF">-0.97</text>
<circle cx="317.040000" cy="140.000000" r="1"/>
<line x1="284.240000" y1="109.000000" x2="284.240000" y2="151.000000"  style="stroke: black; stroke-linecap:round; stroke-width:0.25; stroke-dasharray:3,3;"/>
<line x1="284.240000" y1="151.000000" x2="328.040000" y2="151.000000"  style="stroke: black; stroke-linecap:round; stroke-width:0.25; stroke-dasharray:3,3;"/>
<line x1="328.040000" y1="151.000000" x2="328.040000" y2="109.000000"  style="stroke: black; stroke-linecap:round; stroke-width:0.25; stroke-dasharray:3,3;"/>
<line x1="284.240000" y1="109.000000" x2="289.240000" y2="109.000000"  style="stroke: black; stroke-linecap:round; stroke-width:0.25; stroke-dasharray:3,3;"/>
<line x1="328.040000" y1="109.000000" x2="328.040000" y2="109.000000"  style="stroke: black; stroke-linecap:round; stroke-width:0.25; stroke-dasharray:3,3;"/>
<text x="289.240000" y="111.000000" font-family="Arial" font-size="7">feedbackGain</text>
<rect x="244.240000" y="115.000000" width="24.000000" height="24.000000" rx="0" ry="0" style="stroke:none;fill:#cccccc;"/>
<rect x="243.240000" y="114.000000" width="24.000000" height="24.000000" rx="0" ry="0" style="stroke:none;fill:#4B71A1;"/>
<text x="255.240000" y="128.000000" font-family="Arial" font-size="7" text-anchor="middle" fill="#FFFFFF">*</text>
<circle cx="265.240000" cy="136.000000" r="1"/>
<line x1="270.240000" y1="129.000000" x2="267.240000" y2="130.000000"  transform="rotate(0.000000,267.240000,130.000000)" style="stroke: black; stroke-width:0.25;"/>
<line x1="270.240000" y1="131.000000" x2="267.240000" y2="130.000000"  transform="rotate(0.000000,267.240000,130.000000)" style="stroke: black; stroke-width:0.25;"/>
<line x1="270.240000" y1="121.000000" x2="267.240000" y2="122.000000"  transform="rotate(0.000000,267.240000,122.000000)" style="stroke: black; stroke-width:0.25;"/>
<line x1="270.240000" y1="123.000000" x2="267.240000" y2="122.000000"  transform="rotate(0.000000,267.240000,122.000000)" style="stroke: black; stroke-width:0.25;"/>
<line x1="397.660000" y1="172.000000" x2="397.660000" y2="168.000000"  style="stroke:black; stroke-linecap:round; stroke-width:0.25;"/>
<line x1="397.660000" y1="168.000000" x2="401.660000" y2="168.000000"  style="stroke:black; stroke-linecap:round; stroke-width:0.25;"/>
<line x1="401.660000" y1="168.000000" x2="401.660000" y2="172.000000"  style="stroke:black; stroke-linecap:round; stroke-width:0.25;"/>
<rect x="241.930000" y="51.000000" width="25.800000" height="24.000000" rx="0" ry="0" style="stroke:none;fill:#cccccc;"/>
<rect x="240.930000" y="50.000000" width="25.800000" height="24.000000" rx="0" ry="0" style="stroke:none;fill:#f44800;"/>
<text x="253.830000" y="64.000000" font-family="Arial" font-size="7" text-anchor="middle" fill="#FFFFFF">-0.1</text>
<circle cx="264.730000" cy="72.000000" r="1"/>
<line x1="231.930000" y1="41.000000" x2="231.930000" y2="83.000000"  style="stroke: black; stroke-linecap:round; stroke-width:0.25; stroke-dasharray:3,3;"/>
<line x1="231.930000" y1="83.000000" x2="275.730000" y2="83.000000"  style="stroke: black; stroke-linecap:round; stroke-width:0.25; stroke-dasharray:3,3;"/>
<line x1="275.730000" y1="83.000000" x2="275.730000" y2="41.000000"  style="stroke: black; stroke-linecap:round; stroke-width:0.25; stroke-dasharray:3,3;"/>
<line x1="231.930000" y1="41.000000" x2="236.930000" y2="41.000000"  style="stroke: black; stroke-linecap:round; stroke-width:0.25; stroke-dasharray:3,3;"/>
<line x1="275.730000" y1="41.000000" x2="275.730000" y2="41.000000"  style="stroke: black; stroke-linecap:round; stroke-width:0.25; stroke-dasharray:3,3;"/>
<text x="236.930000" y="43.000000" font-family="Arial" font-size="7">directFeedbackGain</text>
<rect x="191.930000" y="47.000000" width="24.000000" height="24.000000" rx="0" ry="0" style="stroke:none;fill:#cccccc;"/>
<rect x="190.930000" y="46.000000" width="24.000000" height="24.000000" rx="0" ry="0" style="stroke:none;fill:#4B71A1;"/>
<text x="202.930000" y="60.000000" font-family="Arial" font-size="7" text-anchor="middle" fill="#FFFFFF">*</text>
<circle cx="212.930000" cy="68.000000" r="1"/>
<line x1="217.930000" y1="61.000000" x2="214.930000" y2="62.000000"  transform="rotate(0.000000,214.930000,62.000000)" style="stroke: black; stroke-width:0.25;"/>
<line x1="217.930000" y1="63.000000" x2="214.930000" y2="62.000000"  transform="rotate(0.000000,214.930000,62.000000)" style="stroke: black; stroke-width:0.25;"/>
<line x1="217.930000" y1="53.000000" x2="214.930000" y2="54.000000"  transform="rotate(0.000000,214.930000,54.000000)" style="stroke: black; stroke-width:0.25;"/>
<line x1="217.930000" y1="55.000000" x2="214.930000" y2="54.000000"  transform="rotate(0.000000,214.930000,54.000000)" style="stroke: black; stroke-width:0.25;"/>
<rect x="151.930000" y="43.000000" width="24.000000" height="24.000000" rx="0" ry="0" style="stroke:none;fill:#cccccc;"/>
<rect x="150.930000" y="42.000000" width="24.000000" height="24.000000" rx="0" ry="0" style="stroke:none;fill:#4B71A1;"/>
<text x="162.930000" y="56.000000" font-family="Arial" font-size="7" text-anchor="middle" fill="#FFFFFF">+</text>
<circle cx="172.930000" cy="64.000000" r="1"/>
<line x1="177.930000" y1="57.000000" x2="174.930000" y2="58.000000"  transform="rotate(0.000000,174.930000,58.000000)" style="stroke: black; stroke-width:0.25;"/>
<line x1="177.930000" y1="59.000000" x2="174.930000" y2="58.000000"  transform="rotate(0.000000,174.930000,58.000000)" style="stroke: black; stroke-width:0.25;"/>
<line x1="177.930000" y1="49.000000" x2="174.930000" y2="50.000000"  transform="rotate(0.000000,174.930000,50.000000)" style="stroke: black; stroke-width:0.25;"/>
<line x1="177.930000" y1="51.000000" x2="174.930000" y2="50.000000"  transform="rotate(0.000000,174.930000,50.000000)" style="stroke: black; stroke-width:0.25;"/>
<line x1="405.660000" y1="92.000000" x2="405.660000" y2="88.000000"  style="stroke:black; stroke-linecap:round; stroke-width:0.25;"/>
<line x1="405.660000" y1="88.000000" x2="409.660000" y2="88.000000"  style="stroke:black; stroke-linecap:round; stroke-width:0.25;"/>
<line x1="409.660000" y1="88.000000" x2="409.660000" y2="92.000000"  style="stroke:black; stroke-linecap:round; stroke-width:0.25;"/>
<line x1="413.660000" y1="172.000000" x2="413.660000" y2="168.000000"  style="stroke:black; stroke-linecap:round; stroke-width:0.25;"/>
<line x1="413.660000" y1="168.000000" x2="417.660000" y2="168.000000"  style="stroke:black; stroke-linecap:round; stroke-width:0.25;"/>
<line x1="417.660000" y1="168.000000" x2="417.660000" y2="172.000000"  style="stroke:black; stroke-linecap:round; stroke-width:0.25;"/>
<rect x="468.660000" y="101.040000" width="24.000000" height="24.000000" rx="0" ry="0" style="stroke:none;fill:#cccccc;"/>
<rect x="467.660000" y="100.040000" width="24.000000" height="24.000000" rx="0" ry="0" style="stroke:none;fill:#4B71A1;"/>
<text x="479.660000" y="114.040000" font-family="Arial" font-size="7" text-anchor="middle" fill="#FFFFFF">+</text>
<circle cx="469.660000" cy="102.040000" r="1"/>
<line x1="464.660000" y1="107.040000" x2="467.660000" y2="108.040000"  transform="rotate(0.000000,467.660000,108.040000)" style="stroke: black; stroke-width:0.25;"/>
<line x1="464.660000" y1="109.040000" x2="467.660000" y2="108.040000"  transform="rotate(0.000000,467.660000,108.040000)" style="stroke: black; stroke-width:0.25;"/>
<line x1="464.660000" y1="115.040000" x2="467.660000" y2="116.040000"  transform="rotate(0.000000,467.660000,116.040000)" style="stroke: black; stroke-width:0.25;"/>
<line x1="464.660000" y1="117.040000" x2="467.660000" y2="116.040000"  transform="rotate(0.000000,467.660000,116.040000)" style="stroke: black; stroke-width:0.25;"/>
<line x1="15.000000" y1="15.000000" x2="15.000000" y2="209.080000"  style="stroke: black; stroke-linecap:round; stroke-width:0.25; stroke-dasharray:3,3;"/>
<line x1="15.000000" y1="209.080000" x2="500.660000" y2="209.080000"  style="stroke: black; stroke-linecap:round; stroke-width:0.25; stroke-dasharray:3,3;"/>
<line x1="500.660000" y1="209.080000" x2="500.660000" y2="15.000000"  style="stroke: black; stroke-linecap:round; stroke-width:0.25; stroke-dasharray:3,3;"/>
<line x1="15.000000" y1="15.000000" x2="20.000000" y2="15.000000"  style="stroke: black; stroke-linecap:round; stroke-width:0.25; stroke-dasharray:3,3;"/>
<line x1="42.575000" y1="15.000000" x2="500.660000" y2="15.000000"  style="stroke: black; stroke-linecap:round; stroke-width:0.25; stroke-dasharray:3,3;"/>
<text x="20.000000" y="17.000000" font-family="Arial" font-size="7">flute</text>
<line x1="502.660000" y1="111.040000" x2="505.660000" y2="112.040000"  transform="rotate(0.000000,505.660000,112.040000)" style="stroke: black; stroke-width:0.25;"/>
<line x1="502.660000" y1="113.040000" x2="505.660000" y2="112.040000"  transform="rotate(0.000000,505.660000,112.040000)" style="stroke: black; stroke-width:0.25;"/>
<line x1="36.000000" y1="54.000000" x2="36.000000" y2="54.000000"  style="stroke:black; stroke-linecap:round; stroke-width:0.25;"/>
<line x1="36.000000" y1="54.000000" x2="36.000000" y2="146.040000"  style="stroke:black; stroke-linecap:round; stroke-width:0.25;"/>
<line x1="36.000000" y1="146.040000" x2="36.000000" y2="146.040000"  style="stroke:black; stroke-linecap:round; stroke-width:0.25;"/>
<line x1="36.000000" y1="146.040000" x2="40.000000" y2="146.040000"  style="stroke:black; stroke-linecap:round; stroke-width:0.25;"/>
<line x1="91.600000" y1="146.040000" x2="95.600000" y2="146.040000"  style="stroke:black; stroke-linecap:round; stroke-width:0.25;"/>
<line x1="95.600000" y1="146.040000" x2="95.600000" y2="146.040000"  style="stroke:black; stroke-linecap:round; stroke-width:0.25;"/>
<line x1="95.600000" y1="146.040000" x2="99.600000" y2="146.040000"  style="stroke:black; stroke-linecap:round; stroke-width:0.25;"/>
<line x1="123.600000" y1="146.040000" x2="127.600000" y2="146.040000"  style="stroke:black; stroke-linecap:round; stroke-width:0.25;"/>
<line x1="127.600000" y1="146.040000" x2="164.620000" y2="92.000000"  style="stroke:black; stroke-linecap:round; stroke-width:0.25;"/>
<line x1="127.600000" y1="146.040000" x2="164.620000" y2="184.040000"  style="stroke:black; stroke-linecap:round; stroke-width:0.25;"/>
<line x1="146.930000" y1="54.000000" x2="36.000000" y2="54.000000"  style="stroke:black; stroke-linecap:round; stroke-width:0.25;"/>
<line x1="150.930000" y1="54.000000" x2="146.930000" y2="54.000000"  style="stroke:black; stroke-linecap:round; stroke-width:0.25;"/>
<line x1="164.620000" y1="92.000000" x2="286.140000" y2="92.000000"  style="stroke:black; stroke-linecap:round; stroke-width:0.25;"/>
<line x1="164.620000" y1="184.040000" x2="172.620000" y2="184.040000"  style="stroke:black; stroke-linecap:round; stroke-width:0.25;"/>
<line x1="172.620000" y1="126.000000" x2="172.620000" y2="126.000000"  style="stroke:black; stroke-linecap:round; stroke-width:0.25;"/>
<line x1="172.620000" y1="126.000000" x2="172.620000" y2="176.040000"  style="stroke:black; stroke-linecap:round; stroke-width:0.25;"/>
<line x1="172.620000" y1="176.040000" x2="172.620000" y2="176.040000"  style="stroke:black; stroke-linecap:round; stroke-width:0.25;"/>
<line x1="172.620000" y1="176.040000" x2="176.620000" y2="176.040000"  style="stroke:black; stroke-linecap:round; stroke-width:0.25;"/>
<line x1="172.620000" y1="184.040000" x2="172.620000" y2="184.040000"  style="stroke:black; stroke-linecap:round; stroke-width:0.25;"/>
<line x1="172.620000" y1="184.040000" x2="176.620000" y2="184.040000"  style="stroke:black; stroke-linecap:round; stroke-width:0.25;"/>
<line x1="178.930000" y1="50.000000" x2="174.930000" y2="50.000000"  style="stroke:black; stroke-linecap:round; stroke-width:0.25;"/>
<line x1="178.930000" y1="58.000000" x2="174.930000" y2="58.000000"  style="stroke:black; stroke-linecap:round; stroke-width:0.25;"/>
<line x1="186.930000" y1="24.000000" x2="186.930000" y2="24.000000"  style="stroke:black; stroke-linecap:round; stroke-width:0.25;"/>
<line x1="186.930000" y1="24.000000" x2="186.930000" y2="50.000000"  style="stroke:black; stroke-linecap:round; stroke-width:0.25;"/>
<line x1="186.930000" y1="50.000000" x2="178.930000" y2="50.000000"  style="stroke:black; stroke-linecap:round; stroke-width:0.25;"/>
<line x1="186.930000" y1="58.000000" x2="178.930000" y2="58.000000"  style="stroke:black; stroke-linecap:round; stroke-width:0.25;"/>
<line x1="190.930000" y1="58.000000" x2="186.930000" y2="58.000000"  style="stroke:black; stroke-linecap:round; stroke-width:0.25;"/>
<line x1="200.620000" y1="180.040000" x2="204.620000" y2="180.040000"  style="stroke:black; stroke-linecap:round; stroke-width:0.25;"/>
<line x1="204.620000" y1="180.040000" x2="204.620000" y2="180.040000"  style="stroke:black; stroke-linecap:round; stroke-width:0.25;"/>
<line x1="204.620000" y1="180.040000" x2="208.620000" y2="180.040000"  style="stroke:black; stroke-linecap:round; stroke-width:0.25;"/>
<line x1="218.930000" y1="54.000000" x2="214.930000" y2="54.000000"  style="stroke:black; stroke-linecap:round; stroke-width:0.25;"/>
<line x1="218.930000" y1="62.000000" x2="214.930000" y2="62.000000"  style="stroke:black; stroke-linecap:round; stroke-width:0.25;"/>
<line x1="226.930000" y1="32.000000" x2="226.930000" y2="32.000000"  style="stroke:black; stroke-linecap:round; stroke-width:0.25;"/>
<line x1="226.930000" y1="32.000000" x2="226.930000" y2="54.000000"  style="stroke:black; stroke-linecap:round; stroke-width:0.25;"/>
<line x1="226.930000" y1="54.000000" x2="218.930000" y2="54.000000"  style="stroke:black; stroke-linecap:round; stroke-width:0.25;"/>
<line x1="226.930000" y1="62.000000" x2="218.930000" y2="62.000000"  style="stroke:black; stroke-linecap:round; stroke-width:0.25;"/>
<line x1="233.830000" y1="24.000000" x2="186.930000" y2="24.000000"  style="stroke:black; stroke-linecap:round; stroke-width:0.25;"/>
<line x1="236.930000" y1="62.000000" x2="226.930000" y2="62.000000"  style="stroke:black; stroke-linecap:round; stroke-width:0.25;"/>
<line x1="239.240000" y1="126.000000" x2="172.620000" y2="126.000000"  style="stroke:black; stroke-linecap:round; stroke-width:0.25;"/>
<line x1="240.930000" y1="62.000000" x2="236.930000" y2="62.000000"  style="stroke:black; stroke-linecap:round; stroke-width:0.25;"/>
<line x1="243.240000" y1="126.000000" x2="239.240000" y2="126.000000"  style="stroke:black; stroke-linecap:round; stroke-width:0.25;"/>
<line x1="247.320000" y1="180.040000" x2="251.320000" y2="180.040000"  style="stroke:black; stroke-linecap:round; stroke-width:0.25;"/>
<line x1="251.320000" y1="180.040000" x2="271.340000" y2="176.040000"  style="stroke:black; stroke-linecap:round; stroke-width:0.25;"/>
<line x1="251.320000" y1="180.040000" x2="271.340000" y2="196.040000"  style="stroke:black; stroke-linecap:round; stroke-width:0.25;"/>
<line x1="253.830000" y1="32.000000" x2="226.930000" y2="32.000000"  style="stroke:black; stroke-linecap:round; stroke-width:0.25;"/>
<line x1="271.240000" y1="122.000000" x2="267.240000" y2="122.000000"  style="stroke:black; stroke-linecap:round; stroke-width:0.25;"/>
<line x1="271.240000" y1="130.000000" x2="267.240000" y2="130.000000"  style="stroke:black; stroke-linecap:round; stroke-width:0.25;"/>
<line x1="271.340000" y1="176.040000" x2="275.340000" y2="176.040000"  style="stroke:black; stroke-linecap:round; stroke-width:0.25;"/>
<line x1="271.340000" y1="196.040000" x2="301.140000" y2="196.040000"  style="stroke:black; stroke-linecap:round; stroke-width:0.25;"/>
<line x1="279.240000" y1="100.000000" x2="279.240000" y2="100.000000"  style="stroke:black; stroke-linecap:round; stroke-width:0.25;"/>
<line x1="279.240000" y1="100.000000" x2="279.240000" y2="122.000000"  style="stroke:black; stroke-linecap:round; stroke-width:0.25;"/>
<line x1="279.240000" y1="122.000000" x2="271.240000" y2="122.000000"  style="stroke:black; stroke-linecap:round; stroke-width:0.25;"/>
<line x1="279.240000" y1="130.000000" x2="271.240000" y2="130.000000"  style="stroke:black; stroke-linecap:round; stroke-width:0.25;"/>
<line x1="280.730000" y1="24.000000" x2="233.830000" y2="24.000000"  style="stroke:black; stroke-linecap:round; stroke-width:0.25;"/>
<line x1="280.730000" y1="32.000000" x2="253.830000" y2="32.000000"  style="stroke:black; stroke-linecap:round; stroke-width:0.25;"/>
<line x1="280.730000" y1="32.000000" x2="280.730000" y2="32.000000"  style="stroke:black; stroke-linecap:round; stroke-width:0.25;"/>
<line x1="280.730000" y1="58.000000" x2="280.730000" y2="32.000000"  style="stroke:black; stroke-linecap:round; stroke-width:0.25;"/>
<line x1="286.140000" y1="92.000000" x2="407.660000" y2="92.000000"  style="stroke:black; stroke-linecap:round; stroke-width:0.25;"/>
<line x1="288.730000" y1="24.000000" x2="280.730000" y2="24.000000"  style="stroke:black; stroke-linecap:round; stroke-width:0.25;"/>
<line x1="288.730000" y1="50.000000" x2="288.730000" y2="24.000000"  style="stroke:black; stroke-linecap:round; stroke-width:0.25;"/>
<line x1="289.240000" y1="130.000000" x2="279.240000" y2="130.000000"  style="stroke:black; stroke-linecap:round; stroke-width:0.25;"/>
<line x1="293.240000" y1="130.000000" x2="289.240000" y2="130.000000"  style="stroke:black; stroke-linecap:round; stroke-width:0.25;"/>
<line x1="296.730000" y1="50.000000" x2="288.730000" y2="50.000000"  style="stroke:black; stroke-linecap:round; stroke-width:0.25;"/>
<line x1="296.730000" y1="58.000000" x2="280.730000" y2="58.000000"  style="stroke:black; stroke-linecap:round; stroke-width:0.25;"/>
<line x1="301.140000" y1="196.040000" x2="330.940000" y2="196.040000"  style="stroke:black; stroke-linecap:round; stroke-width:0.25;"/>
<line x1="306.140000" y1="100.000000" x2="279.240000" y2="100.000000"  style="stroke:black; stroke-linecap:round; stroke-width:0.25;"/>
<line x1="326.940000" y1="176.040000" x2="330.940000" y2="176.040000"  style="stroke:black; stroke-linecap:round; stroke-width:0.25;"/>
<line x1="330.940000" y1="176.040000" x2="352.960000" y2="172.000000"  style="stroke:black; stroke-linecap:round; stroke-width:0.25;"/>
<line x1="330.940000" y1="176.040000" x2="352.960000" y2="200.000000"  style="stroke:black; stroke-linecap:round; stroke-width:0.25;"/>
<line x1="330.940000" y1="196.040000" x2="352.960000" y2="192.000000"  style="stroke:black; stroke-linecap:round; stroke-width:0.25;"/>
<line x1="333.040000" y1="100.000000" x2="306.140000" y2="100.000000"  style="stroke:black; stroke-linecap:round; stroke-width:0.25;"/>
<line x1="352.960000" y1="172.000000" x2="356.960000" y2="172.000000"  style="stroke:black; stroke-linecap:round; stroke-width:0.25;"/>
<line x1="352.960000" y1="192.000000" x2="376.310000" y2="192.000000"  style="stroke:black; stroke-linecap:round; stroke-width:0.25;"/>
<line x1="352.960000" y1="200.000000" x2="376.310000" y2="200.000000"  style="stroke:black; stroke-linecap:round; stroke-width:0.25;"/>
<line x1="376.310000" y1="192.000000" x2="399.660000" y2="192.000000"  style="stroke:black; stroke-linecap:round; stroke-width:0.25;"/>
<line x1="376.310000" y1="200.000000" x2="399.660000" y2="200.000000"  style="stroke:black; stroke-linecap:round; stroke-width:0.25;"/>
<line x1="395.660000" y1="172.000000" x2="399.660000" y2="172.000000"  style="stroke:black; stroke-linecap:round; stroke-width:0.25;"/>
<line x1="399.660000" y1="100.000000" x2="399.660000" y2="100.000000"  style="stroke:black; stroke-linecap:round; stroke-width:0.25;"/>
<line x1="399.660000" y1="168.000000" x2="399.660000" y2="100.000000"  style="stroke:black; stroke-linecap:round; stroke-width:0.25;"/>
<line x1="399.660000" y1="172.000000" x2="401.660000" y2="172.000000"  style="stroke:black; stroke-linecap:round; stroke-width:0.25;"/>
<line x1="399.660000" y1="100.000000" x2="333.040000" y2="100.000000"  style="stroke:black; stroke-linecap:round; stroke-width:0.25;"/>
<line x1="399.660000" y1="192.000000" x2="407.660000" y2="192.000000"  style="stroke:black; stroke-linecap:round; stroke-width:0.25;"/>
<line x1="399.660000" y1="200.000000" x2="407.660000" y2="200.000000"  style="stroke:black; stroke-linecap:round; stroke-width:0.25;"/>
<line x1="401.660000" y1="172.000000" x2="407.660000" y2="172.000000"  style="stroke:black; stroke-linecap:round; stroke-width:0.25;"/>
<line x1="407.660000" y1="172.000000" x2="417.660000" y2="172.000000"  style="stroke:black; stroke-linecap:round; stroke-width:0.25;"/>
<line x1="407.660000" y1="50.000000" x2="296.730000" y2="50.000000"  style="stroke:black; stroke-linecap:round; stroke-width:0.25;"/>
<line x1="407.660000" y1="58.000000" x2="296.730000" y2="58.000000"  style="stroke:black; stroke-linecap:round; stroke-width:0.25;"/>
<line x1="407.660000" y1="58.000000" x2="407.660000" y2="58.000000"  style="stroke:black; stroke-linecap:round; stroke-width:0.25;"/>
<line x1="407.660000" y1="88.000000" x2="407.660000" y2="58.000000"  style="stroke:black; stroke-linecap:round; stroke-width:0.25;"/>
<line x1="407.660000" y1="92.000000" x2="409.660000" y2="92.000000"  style="stroke:black; stroke-linecap:round; stroke-width:0.25;"/>
<line x1="407.660000" y1="192.000000" x2="423.660000" y2="192.000000"  style="stroke:black; stroke-linecap:round; stroke-width:0.25;"/>
<line x1="407.660000" y1="200.000000" x2="423.660000" y2="200.000000"  style="stroke:black; stroke-linecap:round; stroke-width:0.25;"/>
<line x1="415.660000" y1="50.000000" x2="407.660000" y2="50.000000"  style="stroke:black; stroke-linecap:round; stroke-width:0.25;"/>
<line x1="415.660000" y1="168.000000" x2="415.660000" y2="50.000000"  style="stroke:black; stroke-linecap:round; stroke-width:0.25;"/>
<line x1="423.660000" y1="192.000000" x2="431.660000" y2="192.000000"  style="stroke:black; stroke-linecap:round; stroke-width:0.25;"/>
<line x1="423.660000" y1="200.000000" x2="439.660000" y2="200.000000"  style="stroke:black; stroke-linecap:round; stroke-width:0.25;"/>
<line x1="431.660000" y1="108.120000" x2="447.660000" y2="108.120000"  style="stroke:black; stroke-linecap:round; stroke-width:0.25;"/>
<line x1="431.660000" y1="192.000000" x2="431.660000" y2="108.120000"  style="stroke:black; stroke-linecap:round; stroke-width:0.25;"/>
<line x1="439.660000" y1="116.120000" x2="447.660000" y2="116.120000"  style="stroke:black; stroke-linecap:round; stroke-width:0.25;"/>
<line x1="439.660000" y1="200.000000" x2="439.660000" y2="116.120000"  style="stroke:black; stroke-linecap:round; stroke-width:0.25;"/>
<line x1="447.660000" y1="108.040000" x2="463.660000" y2="108.040000"  style="stroke:black; stroke-linecap:round; stroke-width:0.25;"/>
<line x1="447.660000" y1="108.120000" x2="447.660000" y2="108.040000"  style="stroke:black; stroke-linecap:round; stroke-width:0.25;"/>
<line x1="447.660000" y1="108.120000" x2="447.660000" y2="108.120000"  style="stroke:black; stroke-linecap:round; stroke-width:0.25;"/>
<line x1="447.660000" y1="116.120000" x2="455.660000" y2="116.120000"  style="stroke:black; stroke-linecap:round; stroke-width:0.25;"/>
<line x1="455.660000" y1="116.040000" x2="463.660000" y2="116.040000"  style="stroke:black; stroke-linecap:round; stroke-width:0.25;"/>
<line x1="455.660000" y1="116.120000" x2="455.660000" y2="116.040000"  style="stroke:black; stroke-linecap:round; stroke-width:0.25;"/>
<line x1="463.660000" y1="108.040000" x2="463.660000" y2="108.040000"  style="stroke:black; stroke-linecap:round; stroke-width:0.25;"/>
<line x1="463.660000" y1="108.040000" x2="467.660000" y2="108.040000"  style="stroke:black; stroke-linecap:round; stroke-width:0.25;"/>
<line x1="463.660000" y1="116.040000" x2="463.660000" y2="116.040000"  style="stroke:black; stroke-linecap:round; stroke-width:0.25;"/>
<line x1="463.660000" y1="116.040000" x2="467.660000" y2="116.040000"  style="stroke:black; stroke-linecap:round; stroke-width:0.25;"/>
<line x1="491.660000" y1="112.040000" x2="495.660000" y2="112.040000"  style="stroke:black; stroke-linecap:round; stroke-width:0.25;"/>
<line x1="495.660000" y1="112.040000" x2="505.660000" y2="112.040000"  style="stroke:black; stroke-linecap:round; stroke-width:0.25;"/>
</svg>
