<?xml version="1.0"?>
<svg xmlns="http://www.w3.org/2000/svg" xmlns:xlink="http://www.w3.org/1999/xlink" viewBox="0 0 291.600000 376.000000" width="145.800000mm" height="188.000000mm" version="1.1">
<a xlink:href="lowerBore-0x33d97d0.svg">
<rect x="1.000000" y="1.000000" width="290.600000" height="375.000000" rx="0" ry="0" style="stroke:none;fill:#cccccc;"/>
<rect x="0.000000" y="0.000000" width="290.600000" height="375.000000" rx="0" ry="0" style="stroke:none;fill:#ffffff;"/>
</a>
<text x="10.000000" y="7.000000" font-family="Arial" font-size="7"></text>
<a xlink:href="samplingfreq-0x331d860.svg">
<rect x="41.000000" y="25.000000" width="51.600000" height="24.000000" rx="0" ry="0" style="stroke:none;fill:#cccccc;"/>
<rect x="40.000000" y="24.000000" width="51.600000" height="24.000000" rx="0" ry="0" style="stroke:none;fill:#003366;"/>
</a>
<a xlink:href="samplingfreq-0x331d860.svg">
<text x="65.800000" y="38.000000" font-family="Arial" font-size="7" text-anchor="middle" fill="#FFFFFF">samplingfreq</text>
</a>
<circle cx="42.000000" cy="26.000000" r="1"/>
<a xlink:href="freq-0x331c780.svg">
<rect x="53.900000" y="57.000000" width="25.800000" height="24.000000" rx="0" ry="0" style="stroke:none;fill:#cccccc;"/>
<rect x="52.900000" y="56.000000" width="25.800000" height="24.000000" rx="0" ry="0" style="stroke:none;fill:#003366;"/>
</a>
<a xlink:href="freq-0x331c780.svg">
<text x="65.800000" y="70.000000" font-family="Arial" font-size="7" text-anchor="middle" fill="#FFFFFF">freq</text>
</a>
<circle cx="54.900000" cy="58.000000" r="1"/>
<rect x="108.600000" y="41.000000" width="24.000000" height="24.000000" rx="0" ry="0" style="stroke:none;fill:#cccccc;"/>
<rect x="107.600000" y="40.000000" width="24.000000" height="24.000000" rx="0" ry="0" style="stroke:none;fill:#4B71A1;"/>
<text x="119.600000" y="54.000000" font-family="Arial" font-size="7" text-anchor="middle" fill="#FFFFFF">/</text>
<circle cx="109.600000" cy="42.000000" r="1"/>
<line x1="104.600000" y1="47.000000" x2="107.600000" y2="48.000000"  transform="rotate(0.000000,107.600000,48.000000)" style="stroke: black; stroke-width:0.25;"/>
<line x1="104.600000" y1="49.000000" x2="107.600000" y2="48.000000"  transform="rotate(0.000000,107.600000,48.000000)" style="stroke: black; stroke-width:0.25;"/>
<line x1="104.600000" y1="55.000000" x2="107.600000" y2="56.000000"  transform="rotate(0.000000,107.600000,56.000000)" style="stroke: black; stroke-width:0.25;"/>
<line x1="104.600000" y1="57.000000" x2="107.600000" y2="56.000000"  transform="rotate(0.000000,107.600000,56.000000)" style="stroke: black; stroke-width:0.25;"/>
<rect x="74.800000" y="99.000000" width="24.000000" height="24.000000" rx="0" ry="0" style="stroke:none;fill:#cccccc;"/>
<rect x="73.800000" y="98.000000" width="24.000000" height="24.000000" rx="0" ry="0" style="stroke:none;fill:#f44800;"/>
<text x="85.800000" y="112.000000" font-family="Arial" font-size="7" text-anchor="middle" fill="#FFFFFF">0.5</text>
<circle cx="75.800000" cy="100.000000" r="1"/>
<line x1="64.800000" y1="89.000000" x2="64.800000" y2="131.000000"  style="stroke: black; stroke-linecap:round; stroke-width:0.25; stroke-dasharray:3,3;"/>
<line x1="64.800000" y1="131.000000" x2="106.800000" y2="131.000000"  style="stroke: black; stroke-linecap:round; stroke-width:0.25; stroke-dasharray:3,3;"/>
<line x1="106.800000" y1="131.000000" x2="106.800000" y2="89.000000"  style="stroke: black; stroke-linecap:round; stroke-width:0.25; stroke-dasharray:3,3;"/>
<line x1="64.800000" y1="89.000000" x2="69.800000" y2="89.000000"  style="stroke: black; stroke-linecap:round; stroke-width:0.25; stroke-dasharray:3,3;"/>
<line x1="106.800000" y1="89.000000" x2="106.800000" y2="89.000000"  style="stroke: black; stroke-linecap:round; stroke-width:0.25; stroke-dasharray:3,3;"/>
<text x="69.800000" y="91.000000" font-family="Arial" font-size="7">vibratoAttack</text>
<rect x="148.600000" y="67.000000" width="24.000000" height="24.000000" rx="0" ry="0" style="stroke:none;fill:#cccccc;"/>
<rect x="147.600000" y="66.000000" width="24.000000" height="24.000000" rx="0" ry="0" style="stroke:none;fill:#4B71A1;"/>
<text x="159.600000" y="80.000000" font-family="Arial" font-size="7" text-anchor="middle" fill="#FFFFFF">*</text>
<circle cx="149.600000" cy="68.000000" r="1"/>
<line x1="144.600000" y1="73.000000" x2="147.600000" y2="74.000000"  transform="rotate(0.000000,147.600000,74.000000)" style="stroke: black; stroke-width:0.25;"/>
<line x1="144.600000" y1="75.000000" x2="147.600000" y2="74.000000"  transform="rotate(0.000000,147.600000,74.000000)" style="stroke: black; stroke-width:0.25;"/>
<line x1="144.600000" y1="81.000000" x2="147.600000" y2="82.000000"  transform="rotate(0.000000,147.600000,82.000000)" style="stroke: black; stroke-width:0.25;"/>
<line x1="144.600000" y1="83.000000" x2="147.600000" y2="82.000000"  transform="rotate(0.000000,147.600000,82.000000)" style="stroke: black; stroke-width:0.25;"/>
<rect x="94.800000" y="151.000000" width="24.000000" height="24.000000" rx="0" ry="0" style="stroke:none;fill:#cccccc;"/>
<rect x="93.800000" y="150.000000" width="24.000000" height="24.000000" rx="0" ry="0" style="stroke:none;fill:#f44800;"/>
<text x="105.800000" y="164.000000" font-family="Arial" font-size="7" text-anchor="middle" fill="#FFFFFF">1</text>
<circle cx="95.800000" cy="152.000000" r="1"/>
<line x1="84.800000" y1="141.000000" x2="84.800000" y2="183.000000"  style="stroke: black; stroke-linecap:round; stroke-width:0.25; stroke-dasharray:3,3;"/>
<line x1="84.800000" y1="183.000000" x2="126.800000" y2="183.000000"  style="stroke: black; stroke-linecap:round; stroke-width:0.25; stroke-dasharray:3,3;"/>
<line x1="126.800000" y1="183.000000" x2="126.800000" y2="141.000000"  style="stroke: black; stroke-linecap:round; stroke-width:0.25; stroke-dasharray:3,3;"/>
<line x1="84.800000" y1="141.000000" x2="89.800000" y2="141.000000"  style="stroke: black; stroke-linecap:round; stroke-width:0.25; stroke-dasharray:3,3;"/>
<line x1="115.600000" y1="141.000000" x2="126.800000" y2="141.000000"  style="stroke: black; stroke-linecap:round; stroke-width:0.25; stroke-dasharray:3,3;"/>
<text x="89.800000" y="143.000000" font-family="Arial" font-size="7">sigmIn</text>
<rect x="188.600000" y="93.000000" width="24.000000" height="24.000000" rx="0" ry="0" style="stroke:none;fill:#cccccc;"/>
<rect x="187.600000" y="92.000000" width="24.000000" height="24.000000" rx="0" ry="0" style="stroke:none;fill:#4B71A1;"/>
<text x="199.600000" y="106.000000" font-family="Arial" font-size="7" text-anchor="middle" fill="#FFFFFF">-</text>
<circle cx="189.600000" cy="94.000000" r="1"/>
<line x1="184.600000" y1="99.000000" x2="187.600000" y2="100.000000"  transform="rotate(0.000000,187.600000,100.000000)" style="stroke: black; stroke-width:0.25;"/>
<line x1="184.600000" y1="101.000000" x2="187.600000" y2="100.000000"  transform="rotate(0.000000,187.600000,100.000000)" style="stroke: black; stroke-width:0.25;"/>
<line x1="184.600000" y1="107.000000" x2="187.600000" y2="108.000000"  transform="rotate(0.000000,187.600000,108.000000)" style="stroke: black; stroke-width:0.25;"/>
<line x1="184.600000" y1="109.000000" x2="187.600000" y2="108.000000"  transform="rotate(0.000000,187.600000,108.000000)" style="stroke: black; stroke-width:0.25;"/>
<a xlink:href="samplingfreq-0x331d860.svg">
<rect x="25.000000" y="193.000000" width="51.600000" height="24.000000" rx="0" ry="0" style="stroke:none;fill:#cccccc;"/>
<rect x="24.000000" y="192.000000" width="51.600000" height="24.000000" rx="0" ry="0" style="stroke:none;fill:#003366;"/>
</a>
<a xlink:href="samplingfreq-0x331d860.svg">
<text x="49.800000" y="206.000000" font-family="Arial" font-size="7" text-anchor="middle" fill="#FFFFFF">samplingfreq</text>
</a>
<circle cx="26.000000" cy="194.000000" r="1"/>
<a xlink:href="freq-0x331c780.svg">
<rect x="37.900000" y="225.000000" width="25.800000" height="24.000000" rx="0" ry="0" style="stroke:none;fill:#cccccc;"/>
<rect x="36.900000" y="224.000000" width="25.800000" height="24.000000" rx="0" ry="0" style="stroke:none;fill:#003366;"/>
</a>
<a xlink:href="freq-0x331c780.svg">
<text x="49.800000" y="238.000000" font-family="Arial" font-size="7" text-anchor="middle" fill="#FFFFFF">freq</text>
</a>
<circle cx="38.900000" cy="226.000000" r="1"/>
<rect x="92.600000" y="209.000000" width="24.000000" height="24.000000" rx="0" ry="0" style="stroke:none;fill:#cccccc;"/>
<rect x="91.600000" y="208.000000" width="24.000000" height="24.000000" rx="0" ry="0" style="stroke:none;fill:#4B71A1;"/>
<text x="103.600000" y="222.000000" font-family="Arial" font-size="7" text-anchor="middle" fill="#FFFFFF">/</text>
<circle cx="93.600000" cy="210.000000" r="1"/>
<line x1="88.600000" y1="215.000000" x2="91.600000" y2="216.000000"  transform="rotate(0.000000,91.600000,216.000000)" style="stroke: black; stroke-width:0.25;"/>
<line x1="88.600000" y1="217.000000" x2="91.600000" y2="216.000000"  transform="rotate(0.000000,91.600000,216.000000)" style="stroke: black; stroke-width:0.25;"/>
<line x1="88.600000" y1="223.000000" x2="91.600000" y2="224.000000"  transform="rotate(0.000000,91.600000,224.000000)" style="stroke: black; stroke-width:0.25;"/>
<line x1="88.600000" y1="225.000000" x2="91.600000" y2="224.000000"  transform="rotate(0.000000,91.600000,224.000000)" style="stroke: black; stroke-width:0.25;"/>
<rect x="58.800000" y="267.000000" width="24.000000" height="24.000000" rx="0" ry="0" style="stroke:none;fill:#cccccc;"/>
<rect x="57.800000" y="266.000000" width="24.000000" height="24.000000" rx="0" ry="0" style="stroke:none;fill:#f44800;"/>
<text x="69.800000" y="280.000000" font-family="Arial" font-size="7" text-anchor="middle" fill="#FFFFFF">0.5</text>
<circle cx="59.800000" cy="268.000000" r="1"/>
<line x1="48.800000" y1="257.000000" x2="48.800000" y2="299.000000"  style="stroke: black; stroke-linecap:round; stroke-width:0.25; stroke-dasharray:3,3;"/>
<line x1="48.800000" y1="299.000000" x2="90.800000" y2="299.000000"  style="stroke: black; stroke-linecap:round; stroke-width:0.25; stroke-dasharray:3,3;"/>
<line x1="90.800000" y1="299.000000" x2="90.800000" y2="257.000000"  style="stroke: black; stroke-linecap:round; stroke-width:0.25; stroke-dasharray:3,3;"/>
<line x1="48.800000" y1="257.000000" x2="53.800000" y2="257.000000"  style="stroke: black; stroke-linecap:round; stroke-width:0.25; stroke-dasharray:3,3;"/>
<line x1="90.800000" y1="257.000000" x2="90.800000" y2="257.000000"  style="stroke: black; stroke-linecap:round; stroke-width:0.25; stroke-dasharray:3,3;"/>
<text x="53.800000" y="259.000000" font-family="Arial" font-size="7">vibratoAttack</text>
<rect x="132.600000" y="235.000000" width="24.000000" height="24.000000" rx="0" ry="0" style="stroke:none;fill:#cccccc;"/>
<rect x="131.600000" y="234.000000" width="24.000000" height="24.000000" rx="0" ry="0" style="stroke:none;fill:#4B71A1;"/>
<text x="143.600000" y="248.000000" font-family="Arial" font-size="7" text-anchor="middle" fill="#FFFFFF">*</text>
<circle cx="133.600000" cy="236.000000" r="1"/>
<line x1="128.600000" y1="241.000000" x2="131.600000" y2="242.000000"  transform="rotate(0.000000,131.600000,242.000000)" style="stroke: black; stroke-width:0.25;"/>
<line x1="128.600000" y1="243.000000" x2="131.600000" y2="242.000000"  transform="rotate(0.000000,131.600000,242.000000)" style="stroke: black; stroke-width:0.25;"/>
<line x1="128.600000" y1="249.000000" x2="131.600000" y2="250.000000"  transform="rotate(0.000000,131.600000,250.000000)" style="stroke: black; stroke-width:0.25;"/>
<line x1="128.600000" y1="251.000000" x2="131.600000" y2="250.000000"  transform="rotate(0.000000,131.600000,250.000000)" style="stroke: black; stroke-width:0.25;"/>
<rect x="78.800000" y="319.000000" width="24.000000" height="24.000000" rx="0" ry="0" style="stroke:none;fill:#cccccc;"/>
<rect x="77.800000" y="318.000000" width="24.000000" height="24.000000" rx="0" ry="0" style="stroke:none;fill:#f44800;"/>
<text x="89.800000" y="332.000000" font-family="Arial" font-size="7" text-anchor="middle" fill="#FFFFFF">1</text>
<circle cx="79.800000" cy="320.000000" r="1"/>
<line x1="68.800000" y1="309.000000" x2="68.800000" y2="351.000000"  style="stroke: black; stroke-linecap:round; stroke-width:0.25; stroke-dasharray:3,3;"/>
<line x1="68.800000" y1="351.000000" x2="110.800000" y2="351.000000"  style="stroke: black; stroke-linecap:round; stroke-width:0.25; stroke-dasharray:3,3;"/>
<line x1="110.800000" y1="351.000000" x2="110.800000" y2="309.000000"  style="stroke: black; stroke-linecap:round; stroke-width:0.25; stroke-dasharray:3,3;"/>
<line x1="68.800000" y1="309.000000" x2="73.800000" y2="309.000000"  style="stroke: black; stroke-linecap:round; stroke-width:0.25; stroke-dasharray:3,3;"/>
<line x1="99.600000" y1="309.000000" x2="110.800000" y2="309.000000"  style="stroke: black; stroke-linecap:round; stroke-width:0.25; stroke-dasharray:3,3;"/>
<text x="73.800000" y="311.000000" font-family="Arial" font-size="7">sigmIn</text>
<rect x="172.600000" y="261.000000" width="24.000000" height="24.000000" rx="0" ry="0" style="stroke:none;fill:#cccccc;"/>
<rect x="171.600000" y="260.000000" width="24.000000" height="24.000000" rx="0" ry="0" style="stroke:none;fill:#4B71A1;"/>
<text x="183.600000" y="274.000000" font-family="Arial" font-size="7" text-anchor="middle" fill="#FFFFFF">-</text>
<circle cx="173.600000" cy="262.000000" r="1"/>
<line x1="168.600000" y1="267.000000" x2="171.600000" y2="268.000000"  transform="rotate(0.000000,171.600000,268.000000)" style="stroke: black; stroke-width:0.25;"/>
<line x1="168.600000" y1="269.000000" x2="171.600000" y2="268.000000"  transform="rotate(0.000000,171.600000,268.000000)" style="stroke: black; stroke-width:0.25;"/>
<line x1="168.600000" y1="275.000000" x2="171.600000" y2="276.000000"  transform="rotate(0.000000,171.600000,276.000000)" style="stroke: black; stroke-width:0.25;"/>
<line x1="168.600000" y1="277.000000" x2="171.600000" y2="276.000000"  transform="rotate(0.000000,171.600000,276.000000)" style="stroke: black; stroke-width:0.25;"/>
<rect x="204.600000" y="261.000000" width="24.000000" height="24.000000" rx="0" ry="0" style="stroke:none;fill:#cccccc;"/>
<rect x="203.600000" y="260.000000" width="24.000000" height="24.000000" rx="0" ry="0" style="stroke:none;fill:#4B71A1;"/>
<text x="215.600000" y="274.000000" font-family="Arial" font-size="7" text-anchor="middle" fill="#FFFFFF">int</text>
<circle cx="205.600000" cy="262.000000" r="1"/>
<line x1="200.600000" y1="271.000000" x2="203.600000" y2="272.000000"  transform="rotate(0.000000,203.600000,272.000000)" style="stroke: black; stroke-width:0.25;"/>
<line x1="200.600000" y1="273.000000" x2="203.600000" y2="272.000000"  transform="rotate(0.000000,203.600000,272.000000)" style="stroke: black; stroke-width:0.25;"/>
<rect x="244.600000" y="177.000000" width="24.000000" height="24.000000" rx="0" ry="0" style="stroke:none;fill:#cccccc;"/>
<rect x="243.600000" y="176.000000" width="24.000000" height="24.000000" rx="0" ry="0" style="stroke:none;fill:#4B71A1;"/>
<text x="255.600000" y="190.000000" font-family="Arial" font-size="7" text-anchor="middle" fill="#FFFFFF">-</text>
<circle cx="245.600000" cy="178.000000" r="1"/>
<line x1="240.600000" y1="183.000000" x2="243.600000" y2="184.000000"  transform="rotate(0.000000,243.600000,184.000000)" style="stroke: black; stroke-width:0.25;"/>
<line x1="240.600000" y1="185.000000" x2="243.600000" y2="184.000000"  transform="rotate(0.000000,243.600000,184.000000)" style="stroke: black; stroke-width:0.25;"/>
<line x1="240.600000" y1="191.000000" x2="243.600000" y2="192.000000"  transform="rotate(0.000000,243.600000,192.000000)" style="stroke: black; stroke-width:0.25;"/>
<line x1="240.600000" y1="193.000000" x2="243.600000" y2="192.000000"  transform="rotate(0.000000,243.600000,192.000000)" style="stroke: black; stroke-width:0.25;"/>
<line x1="15.000000" y1="15.000000" x2="15.000000" y2="361.000000"  style="stroke: black; stroke-linecap:round; stroke-width:0.25; stroke-dasharray:3,3;"/>
<line x1="15.000000" y1="361.000000" x2="276.600000" y2="361.000000"  style="stroke: black; stroke-linecap:round; stroke-width:0.25; stroke-dasharray:3,3;"/>
<line x1="276.600000" y1="361.000000" x2="276.600000" y2="15.000000"  style="stroke: black; stroke-linecap:round; stroke-width:0.25; stroke-dasharray:3,3;"/>
<line x1="15.000000" y1="15.000000" x2="20.000000" y2="15.000000"  style="stroke: black; stroke-linecap:round; stroke-width:0.25; stroke-dasharray:3,3;"/>
<line x1="39.350000" y1="15.000000" x2="276.600000" y2="15.000000"  style="stroke: black; stroke-linecap:round; stroke-width:0.25; stroke-dasharray:3,3;"/>
<text x="20.000000" y="17.000000" font-family="Arial" font-size="7">frac</text>
<line x1="278.600000" y1="187.000000" x2="281.600000" y2="188.000000"  transform="rotate(0.000000,281.600000,188.000000)" style="stroke: black; stroke-width:0.25;"/>
<line x1="278.600000" y1="189.000000" x2="281.600000" y2="188.000000"  transform="rotate(0.000000,281.600000,188.000000)" style="stroke: black; stroke-width:0.25;"/>
<line x1="62.700000" y1="236.000000" x2="66.700000" y2="236.000000"  style="stroke:black; stroke-linecap:round; stroke-width:0.25;"/>
<line x1="66.700000" y1="236.000000" x2="79.600000" y2="236.000000"  style="stroke:black; stroke-linecap:round; stroke-width:0.25;"/>
<line x1="75.600000" y1="204.000000" x2="79.600000" y2="204.000000"  style="stroke:black; stroke-linecap:round; stroke-width:0.25;"/>
<line x1="78.700000" y1="68.000000" x2="82.700000" y2="68.000000"  style="stroke:black; stroke-linecap:round; stroke-width:0.25;"/>
<line x1="79.600000" y1="204.000000" x2="87.600000" y2="204.000000"  style="stroke:black; stroke-linecap:round; stroke-width:0.25;"/>
<line x1="79.600000" y1="224.000000" x2="87.600000" y2="224.000000"  style="stroke:black; stroke-linecap:round; stroke-width:0.25;"/>
<line x1="79.600000" y1="236.000000" x2="79.600000" y2="224.000000"  style="stroke:black; stroke-linecap:round; stroke-width:0.25;"/>
<line x1="79.600000" y1="236.000000" x2="79.600000" y2="236.000000"  style="stroke:black; stroke-linecap:round; stroke-width:0.25;"/>
<line x1="81.800000" y1="278.000000" x2="85.800000" y2="278.000000"  style="stroke:black; stroke-linecap:round; stroke-width:0.25;"/>
<line x1="82.700000" y1="68.000000" x2="95.600000" y2="68.000000"  style="stroke:black; stroke-linecap:round; stroke-width:0.25;"/>
<line x1="85.800000" y1="278.000000" x2="95.800000" y2="278.000000"  style="stroke:black; stroke-linecap:round; stroke-width:0.25;"/>
<line x1="87.600000" y1="204.000000" x2="87.600000" y2="216.000000"  style="stroke:black; stroke-linecap:round; stroke-width:0.25;"/>
<line x1="87.600000" y1="216.000000" x2="87.600000" y2="216.000000"  style="stroke:black; stroke-linecap:round; stroke-width:0.25;"/>
<line x1="87.600000" y1="216.000000" x2="91.600000" y2="216.000000"  style="stroke:black; stroke-linecap:round; stroke-width:0.25;"/>
<line x1="87.600000" y1="224.000000" x2="91.600000" y2="224.000000"  style="stroke:black; stroke-linecap:round; stroke-width:0.25;"/>
<line x1="91.600000" y1="36.000000" x2="95.600000" y2="36.000000"  style="stroke:black; stroke-linecap:round; stroke-width:0.25;"/>
<line x1="95.600000" y1="36.000000" x2="103.600000" y2="36.000000"  style="stroke:black; stroke-linecap:round; stroke-width:0.25;"/>
<line x1="95.600000" y1="56.000000" x2="103.600000" y2="56.000000"  style="stroke:black; stroke-linecap:round; stroke-width:0.25;"/>
<line x1="95.600000" y1="68.000000" x2="95.600000" y2="56.000000"  style="stroke:black; stroke-linecap:round; stroke-width:0.25;"/>
<line x1="95.600000" y1="68.000000" x2="95.600000" y2="68.000000"  style="stroke:black; stroke-linecap:round; stroke-width:0.25;"/>
<line x1="95.800000" y1="278.000000" x2="119.600000" y2="278.000000"  style="stroke:black; stroke-linecap:round; stroke-width:0.25;"/>
<line x1="97.800000" y1="110.000000" x2="101.800000" y2="110.000000"  style="stroke:black; stroke-linecap:round; stroke-width:0.25;"/>
<line x1="101.800000" y1="110.000000" x2="111.800000" y2="110.000000"  style="stroke:black; stroke-linecap:round; stroke-width:0.25;"/>
<line x1="101.800000" y1="330.000000" x2="105.800000" y2="330.000000"  style="stroke:black; stroke-linecap:round; stroke-width:0.25;"/>
<line x1="103.600000" y1="36.000000" x2="103.600000" y2="48.000000"  style="stroke:black; stroke-linecap:round; stroke-width:0.25;"/>
<line x1="103.600000" y1="48.000000" x2="103.600000" y2="48.000000"  style="stroke:black; stroke-linecap:round; stroke-width:0.25;"/>
<line x1="103.600000" y1="48.000000" x2="107.600000" y2="48.000000"  style="stroke:black; stroke-linecap:round; stroke-width:0.25;"/>
<line x1="103.600000" y1="56.000000" x2="107.600000" y2="56.000000"  style="stroke:black; stroke-linecap:round; stroke-width:0.25;"/>
<line x1="105.800000" y1="330.000000" x2="115.800000" y2="330.000000"  style="stroke:black; stroke-linecap:round; stroke-width:0.25;"/>
<line x1="111.800000" y1="110.000000" x2="135.600000" y2="110.000000"  style="stroke:black; stroke-linecap:round; stroke-width:0.25;"/>
<line x1="115.600000" y1="220.000000" x2="119.600000" y2="220.000000"  style="stroke:black; stroke-linecap:round; stroke-width:0.25;"/>
<line x1="115.800000" y1="330.000000" x2="159.600000" y2="330.000000"  style="stroke:black; stroke-linecap:round; stroke-width:0.25;"/>
<line x1="117.800000" y1="162.000000" x2="121.800000" y2="162.000000"  style="stroke:black; stroke-linecap:round; stroke-width:0.25;"/>
<line x1="119.600000" y1="220.000000" x2="127.600000" y2="220.000000"  style="stroke:black; stroke-linecap:round; stroke-width:0.25;"/>
<line x1="119.600000" y1="250.000000" x2="127.600000" y2="250.000000"  style="stroke:black; stroke-linecap:round; stroke-width:0.25;"/>
<line x1="119.600000" y1="278.000000" x2="119.600000" y2="250.000000"  style="stroke:black; stroke-linecap:round; stroke-width:0.25;"/>
<line x1="119.600000" y1="278.000000" x2="119.600000" y2="278.000000"  style="stroke:black; stroke-linecap:round; stroke-width:0.25;"/>
<line x1="121.800000" y1="162.000000" x2="131.800000" y2="162.000000"  style="stroke:black; stroke-linecap:round; stroke-width:0.25;"/>
<line x1="127.600000" y1="220.000000" x2="127.600000" y2="242.000000"  style="stroke:black; stroke-linecap:round; stroke-width:0.25;"/>
<line x1="127.600000" y1="242.000000" x2="127.600000" y2="242.000000"  style="stroke:black; stroke-linecap:round; stroke-width:0.25;"/>
<line x1="127.600000" y1="242.000000" x2="131.600000" y2="242.000000"  style="stroke:black; stroke-linecap:round; stroke-width:0.25;"/>
<line x1="127.600000" y1="250.000000" x2="131.600000" y2="250.000000"  style="stroke:black; stroke-linecap:round; stroke-width:0.25;"/>
<line x1="131.600000" y1="52.000000" x2="135.600000" y2="52.000000"  style="stroke:black; stroke-linecap:round; stroke-width:0.25;"/>
<line x1="131.800000" y1="162.000000" x2="175.600000" y2="162.000000"  style="stroke:black; stroke-linecap:round; stroke-width:0.25;"/>
<line x1="135.600000" y1="52.000000" x2="143.600000" y2="52.000000"  style="stroke:black; stroke-linecap:round; stroke-width:0.25;"/>
<line x1="135.600000" y1="82.000000" x2="143.600000" y2="82.000000"  style="stroke:black; stroke-linecap:round; stroke-width:0.25;"/>
<line x1="135.600000" y1="110.000000" x2="135.600000" y2="82.000000"  style="stroke:black; stroke-linecap:round; stroke-width:0.25;"/>
<line x1="135.600000" y1="110.000000" x2="135.600000" y2="110.000000"  style="stroke:black; stroke-linecap:round; stroke-width:0.25;"/>
<line x1="143.600000" y1="52.000000" x2="143.600000" y2="74.000000"  style="stroke:black; stroke-linecap:round; stroke-width:0.25;"/>
<line x1="143.600000" y1="74.000000" x2="143.600000" y2="74.000000"  style="stroke:black; stroke-linecap:round; stroke-width:0.25;"/>
<line x1="143.600000" y1="74.000000" x2="147.600000" y2="74.000000"  style="stroke:black; stroke-linecap:round; stroke-width:0.25;"/>
<line x1="143.600000" y1="82.000000" x2="147.600000" y2="82.000000"  style="stroke:black; stroke-linecap:round; stroke-width:0.25;"/>
<line x1="155.600000" y1="246.000000" x2="159.600000" y2="246.000000"  style="stroke:black; stroke-linecap:round; stroke-width:0.25;"/>
<line x1="159.600000" y1="246.000000" x2="167.600000" y2="246.000000"  style="stroke:black; stroke-linecap:round; stroke-width:0.25;"/>
<line x1="159.600000" y1="276.000000" x2="167.600000" y2="276.000000"  style="stroke:black; stroke-linecap:round; stroke-width:0.25;"/>
<line x1="159.600000" y1="330.000000" x2="159.600000" y2="276.000000"  style="stroke:black; stroke-linecap:round; stroke-width:0.25;"/>
<line x1="159.600000" y1="330.000000" x2="159.600000" y2="330.000000"  style="stroke:black; stroke-linecap:round; stroke-width:0.25;"/>
<line x1="167.600000" y1="246.000000" x2="167.600000" y2="268.000000"  style="stroke:black; stroke-linecap:round; stroke-width:0.25;"/>
<line x1="167.600000" y1="268.000000" x2="167.600000" y2="268.000000"  style="stroke:black; stroke-linecap:round; stroke-width:0.25;"/>
<line x1="167.600000" y1="268.000000" x2="171.600000" y2="268.000000"  style="stroke:black; stroke-linecap:round; stroke-width:0.25;"/>
<line x1="167.600000" y1="276.000000" x2="171.600000" y2="276.000000"  style="stroke:black; stroke-linecap:round; stroke-width:0.25;"/>
<line x1="171.600000" y1="78.000000" x2="175.600000" y2="78.000000"  style="stroke:black; stroke-linecap:round; stroke-width:0.25;"/>
<line x1="175.600000" y1="78.000000" x2="183.600000" y2="78.000000"  style="stroke:black; stroke-linecap:round; stroke-width:0.25;"/>
<line x1="175.600000" y1="108.000000" x2="183.600000" y2="108.000000"  style="stroke:black; stroke-linecap:round; stroke-width:0.25;"/>
<line x1="175.600000" y1="162.000000" x2="175.600000" y2="108.000000"  style="stroke:black; stroke-linecap:round; stroke-width:0.25;"/>
<line x1="175.600000" y1="162.000000" x2="175.600000" y2="162.000000"  style="stroke:black; stroke-linecap:round; stroke-width:0.25;"/>
<line x1="183.600000" y1="78.000000" x2="183.600000" y2="100.000000"  style="stroke:black; stroke-linecap:round; stroke-width:0.25;"/>
<line x1="183.600000" y1="100.000000" x2="183.600000" y2="100.000000"  style="stroke:black; stroke-linecap:round; stroke-width:0.25;"/>
<line x1="183.600000" y1="100.000000" x2="187.600000" y2="100.000000"  style="stroke:black; stroke-linecap:round; stroke-width:0.25;"/>
<line x1="183.600000" y1="108.000000" x2="187.600000" y2="108.000000"  style="stroke:black; stroke-linecap:round; stroke-width:0.25;"/>
<line x1="195.600000" y1="272.000000" x2="199.600000" y2="272.000000"  style="stroke:black; stroke-linecap:round; stroke-width:0.25;"/>
<line x1="199.600000" y1="272.000000" x2="199.600000" y2="272.000000"  style="stroke:black; stroke-linecap:round; stroke-width:0.25;"/>
<line x1="199.600000" y1="272.000000" x2="203.600000" y2="272.000000"  style="stroke:black; stroke-linecap:round; stroke-width:0.25;"/>
<line x1="211.600000" y1="104.000000" x2="215.600000" y2="104.000000"  style="stroke:black; stroke-linecap:round; stroke-width:0.25;"/>
<line x1="215.600000" y1="104.000000" x2="231.600000" y2="104.000000"  style="stroke:black; stroke-linecap:round; stroke-width:0.25;"/>
<line x1="227.600000" y1="272.000000" x2="231.600000" y2="272.000000"  style="stroke:black; stroke-linecap:round; stroke-width:0.25;"/>
<line x1="231.600000" y1="104.000000" x2="239.600000" y2="104.000000"  style="stroke:black; stroke-linecap:round; stroke-width:0.25;"/>
<line x1="231.600000" y1="192.000000" x2="239.600000" y2="192.000000"  style="stroke:black; stroke-linecap:round; stroke-width:0.25;"/>
<line x1="231.600000" y1="272.000000" x2="231.600000" y2="192.000000"  style="stroke:black; stroke-linecap:round; stroke-width:0.25;"/>
<line x1="231.600000" y1="272.000000" x2="231.600000" y2="272.000000"  style="stroke:black; stroke-linecap:round; stroke-width:0.25;"/>
<line x1="239.600000" y1="104.000000" x2="239.600000" y2="184.000000"  style="stroke:black; stroke-linecap:round; stroke-width:0.25;"/>
<line x1="239.600000" y1="184.000000" x2="239.600000" y2="184.000000"  style="stroke:black; stroke-linecap:round; stroke-width:0.25;"/>
<line x1="239.600000" y1="184.000000" x2="243.600000" y2="184.000000"  style="stroke:black; stroke-linecap:round; stroke-width:0.25;"/>
<line x1="239.600000" y1="192.000000" x2="243.600000" y2="192.000000"  style="stroke:black; stroke-linecap:round; stroke-width:0.25;"/>
<line x1="267.600000" y1="188.000000" x2="271.600000" y2="188.000000"  style="stroke:black; stroke-linecap:round; stroke-width:0.25;"/>
<line x1="271.600000" y1="188.000000" x2="281.600000" y2="188.000000"  style="stroke:black; stroke-linecap:round; stroke-width:0.25;"/>
</svg>
