<?xml version="1.0"?>
<svg xmlns="http://www.w3.org/2000/svg" xmlns:xlink="http://www.w3.org/1999/xlink" viewBox="0 0 558.800000 228.000000" width="279.400000mm" height="114.000000mm" version="1.1">
<a xlink:href="delay-0x33b6200.svg">
<rect x="1.000000" y="1.000000" width="557.800000" height="227.000000" rx="0" ry="0" style="stroke:none;fill:#cccccc;"/>
<rect x="0.000000" y="0.000000" width="557.800000" height="227.000000" rx="0" ry="0" style="stroke:none;fill:#ffffff;"/>
</a>
<text x="10.000000" y="7.000000" font-family="Arial" font-size="7"></text>
<rect x="248.400000" y="25.000000" width="24.000000" height="24.000000" rx="0" ry="0" style="stroke:none;fill:#cccccc;"/>
<rect x="247.400000" y="24.000000" width="24.000000" height="24.000000" rx="0" ry="0" style="stroke:none;fill:#f44800;"/>
<text x="259.400000" y="38.000000" font-family="Arial" font-size="7" text-anchor="middle" fill="#FFFFFF">440</text>
<circle cx="249.400000" cy="26.000000" r="1"/>
<rect x="227.500000" y="57.000000" width="24.000000" height="24.000000" rx="0" ry="0" style="stroke:none;fill:#cccccc;"/>
<rect x="226.500000" y="56.000000" width="24.000000" height="24.000000" rx="0" ry="0" style="stroke:none;fill:#f44800;"/>
<text x="238.500000" y="70.000000" font-family="Arial" font-size="7" text-anchor="middle" fill="#FFFFFF">2</text>
<circle cx="228.500000" cy="58.000000" r="1"/>
<rect x="35.000000" y="103.000000" width="129.000000" height="24.000000" rx="0" ry="0" style="stroke:none;fill:#cccccc;"/>
<rect x="34.000000" y="102.000000" width="129.000000" height="24.000000" rx="0" ry="0" style="stroke:none;fill:#477881;"/>
<text x="98.500000" y="116.000000" font-family="Arial" font-size="7" text-anchor="middle" fill="#FFFFFF">hslider(pitch, 64, 32, 100, 1)</text>
<circle cx="36.000000" cy="104.000000" r="1"/>
<line x1="25.000000" y1="93.000000" x2="25.000000" y2="135.000000"  style="stroke: black; stroke-linecap:round; stroke-width:0.25; stroke-dasharray:3,3;"/>
<line x1="25.000000" y1="135.000000" x2="172.000000" y2="135.000000"  style="stroke: black; stroke-linecap:round; stroke-width:0.25; stroke-dasharray:3,3;"/>
<line x1="172.000000" y1="135.000000" x2="172.000000" y2="93.000000"  style="stroke: black; stroke-linecap:round; stroke-width:0.25; stroke-dasharray:3,3;"/>
<line x1="25.000000" y1="93.000000" x2="30.000000" y2="93.000000"  style="stroke: black; stroke-linecap:round; stroke-width:0.25; stroke-dasharray:3,3;"/>
<line x1="52.575000" y1="93.000000" x2="172.000000" y2="93.000000"  style="stroke: black; stroke-linecap:round; stroke-width:0.25; stroke-dasharray:3,3;"/>
<text x="30.000000" y="95.000000" font-family="Arial" font-size="7">pitch</text>
<rect x="200.000000" y="99.000000" width="24.000000" height="24.000000" rx="0" ry="0" style="stroke:none;fill:#cccccc;"/>
<rect x="199.000000" y="98.000000" width="24.000000" height="24.000000" rx="0" ry="0" style="stroke:none;fill:#f44800;"/>
<text x="211.000000" y="112.000000" font-family="Arial" font-size="7" text-anchor="middle" fill="#FFFFFF">60</text>
<circle cx="201.000000" cy="100.000000" r="1"/>
<line x1="190.000000" y1="89.000000" x2="190.000000" y2="131.000000"  style="stroke: black; stroke-linecap:round; stroke-width:0.25; stroke-dasharray:3,3;"/>
<line x1="190.000000" y1="131.000000" x2="232.000000" y2="131.000000"  style="stroke: black; stroke-linecap:round; stroke-width:0.25; stroke-dasharray:3,3;"/>
<line x1="232.000000" y1="131.000000" x2="232.000000" y2="89.000000"  style="stroke: black; stroke-linecap:round; stroke-width:0.25; stroke-dasharray:3,3;"/>
<line x1="190.000000" y1="89.000000" x2="195.000000" y2="89.000000"  style="stroke: black; stroke-linecap:round; stroke-width:0.25; stroke-dasharray:3,3;"/>
<line x1="227.250000" y1="89.000000" x2="232.000000" y2="89.000000"  style="stroke: black; stroke-linecap:round; stroke-width:0.25; stroke-dasharray:3,3;"/>
<text x="195.000000" y="91.000000" font-family="Arial" font-size="7">minPitch</text>
<rect x="250.000000" y="103.000000" width="24.000000" height="24.000000" rx="0" ry="0" style="stroke:none;fill:#cccccc;"/>
<rect x="249.000000" y="102.000000" width="24.000000" height="24.000000" rx="0" ry="0" style="stroke:none;fill:#4B71A1;"/>
<text x="261.000000" y="116.000000" font-family="Arial" font-size="7" text-anchor="middle" fill="#FFFFFF">max</text>
<circle cx="251.000000" cy="104.000000" r="1"/>
<line x1="246.000000" y1="109.000000" x2="249.000000" y2="110.000000"  transform="rotate(0.000000,249.000000,110.000000)" style="stroke: black; stroke-width:0.25;"/>
<line x1="246.000000" y1="111.000000" x2="249.000000" y2="110.000000"  transform="rotate(0.000000,249.000000,110.000000)" style="stroke: black; stroke-width:0.25;"/>
<line x1="246.000000" y1="117.000000" x2="249.000000" y2="118.000000"  transform="rotate(0.000000,249.000000,118.000000)" style="stroke: black; stroke-width:0.25;"/>
<line x1="246.000000" y1="119.000000" x2="249.000000" y2="118.000000"  transform="rotate(0.000000,249.000000,118.000000)" style="stroke: black; stroke-width:0.25;"/>
<rect x="300.000000" y="99.000000" width="24.000000" height="24.000000" rx="0" ry="0" style="stroke:none;fill:#cccccc;"/>
<rect x="299.000000" y="98.000000" width="24.000000" height="24.000000" rx="0" ry="0" style="stroke:none;fill:#f44800;"/>
<text x="311.000000" y="112.000000" font-family="Arial" font-size="7" text-anchor="middle" fill="#FFFFFF">100</text>
<circle cx="301.000000" cy="100.000000" r="1"/>
<line x1="290.000000" y1="89.000000" x2="290.000000" y2="131.000000"  style="stroke: black; stroke-linecap:round; stroke-width:0.25; stroke-dasharray:3,3;"/>
<line x1="290.000000" y1="131.000000" x2="332.000000" y2="131.000000"  style="stroke: black; stroke-linecap:round; stroke-width:0.25; stroke-dasharray:3,3;"/>
<line x1="332.000000" y1="131.000000" x2="332.000000" y2="89.000000"  style="stroke: black; stroke-linecap:round; stroke-width:0.25; stroke-dasharray:3,3;"/>
<line x1="290.000000" y1="89.000000" x2="295.000000" y2="89.000000"  style="stroke: black; stroke-linecap:round; stroke-width:0.25; stroke-dasharray:3,3;"/>
<line x1="327.250000" y1="89.000000" x2="332.000000" y2="89.000000"  style="stroke: black; stroke-linecap:round; stroke-width:0.25; stroke-dasharray:3,3;"/>
<text x="295.000000" y="91.000000" font-family="Arial" font-size="7">maxPitch</text>
<rect x="350.000000" y="103.000000" width="24.000000" height="24.000000" rx="0" ry="0" style="stroke:none;fill:#cccccc;"/>
<rect x="349.000000" y="102.000000" width="24.000000" height="24.000000" rx="0" ry="0" style="stroke:none;fill:#4B71A1;"/>
<text x="361.000000" y="116.000000" font-family="Arial" font-size="7" text-anchor="middle" fill="#FFFFFF">min</text>
<circle cx="351.000000" cy="104.000000" r="1"/>
<line x1="346.000000" y1="109.000000" x2="349.000000" y2="110.000000"  transform="rotate(0.000000,349.000000,110.000000)" style="stroke: black; stroke-width:0.25;"/>
<line x1="346.000000" y1="111.000000" x2="349.000000" y2="110.000000"  transform="rotate(0.000000,349.000000,110.000000)" style="stroke: black; stroke-width:0.25;"/>
<line x1="346.000000" y1="117.000000" x2="349.000000" y2="118.000000"  transform="rotate(0.000000,349.000000,118.000000)" style="stroke: black; stroke-width:0.25;"/>
<line x1="346.000000" y1="119.000000" x2="349.000000" y2="118.000000"  transform="rotate(0.000000,349.000000,118.000000)" style="stroke: black; stroke-width:0.25;"/>
<rect x="187.500000" y="149.000000" width="24.000000" height="24.000000" rx="0" ry="0" style="stroke:none;fill:#cccccc;"/>
<rect x="186.500000" y="148.000000" width="24.000000" height="24.000000" rx="0" ry="0" style="stroke:none;fill:#f44800;"/>
<text x="198.500000" y="162.000000" font-family="Arial" font-size="7" text-anchor="middle" fill="#FFFFFF">69</text>
<circle cx="188.500000" cy="150.000000" r="1"/>
<rect x="390.000000" y="119.000000" width="24.000000" height="24.000000" rx="0" ry="0" style="stroke:none;fill:#cccccc;"/>
<rect x="389.000000" y="118.000000" width="24.000000" height="24.000000" rx="0" ry="0" style="stroke:none;fill:#4B71A1;"/>
<text x="401.000000" y="132.000000" font-family="Arial" font-size="7" text-anchor="middle" fill="#FFFFFF">-</text>
<circle cx="391.000000" cy="120.000000" r="1"/>
<line x1="386.000000" y1="125.000000" x2="389.000000" y2="126.000000"  transform="rotate(0.000000,389.000000,126.000000)" style="stroke: black; stroke-width:0.25;"/>
<line x1="386.000000" y1="127.000000" x2="389.000000" y2="126.000000"  transform="rotate(0.000000,389.000000,126.000000)" style="stroke: black; stroke-width:0.25;"/>
<line x1="386.000000" y1="133.000000" x2="389.000000" y2="134.000000"  transform="rotate(0.000000,389.000000,134.000000)" style="stroke: black; stroke-width:0.25;"/>
<line x1="386.000000" y1="135.000000" x2="389.000000" y2="134.000000"  transform="rotate(0.000000,389.000000,134.000000)" style="stroke: black; stroke-width:0.25;"/>
<rect x="207.500000" y="181.000000" width="24.000000" height="24.000000" rx="0" ry="0" style="stroke:none;fill:#cccccc;"/>
<rect x="206.500000" y="180.000000" width="24.000000" height="24.000000" rx="0" ry="0" style="stroke:none;fill:#f44800;"/>
<text x="218.500000" y="194.000000" font-family="Arial" font-size="7" text-anchor="middle" fill="#FFFFFF">12</text>
<circle cx="208.500000" cy="182.000000" r="1"/>
<rect x="430.000000" y="135.000000" width="24.000000" height="24.000000" rx="0" ry="0" style="stroke:none;fill:#cccccc;"/>
<rect x="429.000000" y="134.000000" width="24.000000" height="24.000000" rx="0" ry="0" style="stroke:none;fill:#4B71A1;"/>
<text x="441.000000" y="148.000000" font-family="Arial" font-size="7" text-anchor="middle" fill="#FFFFFF">/</text>
<circle cx="431.000000" cy="136.000000" r="1"/>
<line x1="426.000000" y1="141.000000" x2="429.000000" y2="142.000000"  transform="rotate(0.000000,429.000000,142.000000)" style="stroke: black; stroke-width:0.25;"/>
<line x1="426.000000" y1="143.000000" x2="429.000000" y2="142.000000"  transform="rotate(0.000000,429.000000,142.000000)" style="stroke: black; stroke-width:0.25;"/>
<line x1="426.000000" y1="149.000000" x2="429.000000" y2="150.000000"  transform="rotate(0.000000,429.000000,150.000000)" style="stroke: black; stroke-width:0.25;"/>
<line x1="426.000000" y1="151.000000" x2="429.000000" y2="150.000000"  transform="rotate(0.000000,429.000000,150.000000)" style="stroke: black; stroke-width:0.25;"/>
<rect x="470.000000" y="119.000000" width="25.800000" height="24.000000" rx="0" ry="0" style="stroke:none;fill:#cccccc;"/>
<rect x="469.000000" y="118.000000" width="25.800000" height="24.000000" rx="0" ry="0" style="stroke:none;fill:#4B71A1;"/>
<text x="481.900000" y="132.000000" font-family="Arial" font-size="7" text-anchor="middle" fill="#FFFFFF">powf</text>
<circle cx="471.000000" cy="120.000000" r="1"/>
<line x1="466.000000" y1="125.000000" x2="469.000000" y2="126.000000"  transform="rotate(0.000000,469.000000,126.000000)" style="stroke: black; stroke-width:0.25;"/>
<line x1="466.000000" y1="127.000000" x2="469.000000" y2="126.000000"  transform="rotate(0.000000,469.000000,126.000000)" style="stroke: black; stroke-width:0.25;"/>
<line x1="466.000000" y1="133.000000" x2="469.000000" y2="134.000000"  transform="rotate(0.000000,469.000000,134.000000)" style="stroke: black; stroke-width:0.25;"/>
<line x1="466.000000" y1="135.000000" x2="469.000000" y2="134.000000"  transform="rotate(0.000000,469.000000,134.000000)" style="stroke: black; stroke-width:0.25;"/>
<rect x="511.800000" y="103.000000" width="24.000000" height="24.000000" rx="0" ry="0" style="stroke:none;fill:#cccccc;"/>
<rect x="510.800000" y="102.000000" width="24.000000" height="24.000000" rx="0" ry="0" style="stroke:none;fill:#4B71A1;"/>
<text x="522.800000" y="116.000000" font-family="Arial" font-size="7" text-anchor="middle" fill="#FFFFFF">*</text>
<circle cx="512.800000" cy="104.000000" r="1"/>
<line x1="507.800000" y1="109.000000" x2="510.800000" y2="110.000000"  transform="rotate(0.000000,510.800000,110.000000)" style="stroke: black; stroke-width:0.25;"/>
<line x1="507.800000" y1="111.000000" x2="510.800000" y2="110.000000"  transform="rotate(0.000000,510.800000,110.000000)" style="stroke: black; stroke-width:0.25;"/>
<line x1="507.800000" y1="117.000000" x2="510.800000" y2="118.000000"  transform="rotate(0.000000,510.800000,118.000000)" style="stroke: black; stroke-width:0.25;"/>
<line x1="507.800000" y1="119.000000" x2="510.800000" y2="118.000000"  transform="rotate(0.000000,510.800000,118.000000)" style="stroke: black; stroke-width:0.25;"/>
<line x1="15.000000" y1="15.000000" x2="15.000000" y2="213.000000"  style="stroke: black; stroke-linecap:round; stroke-width:0.25; stroke-dasharray:3,3;"/>
<line x1="15.000000" y1="213.000000" x2="543.800000" y2="213.000000"  style="stroke: black; stroke-linecap:round; stroke-width:0.25; stroke-dasharray:3,3;"/>
<line x1="543.800000" y1="213.000000" x2="543.800000" y2="15.000000"  style="stroke: black; stroke-linecap:round; stroke-width:0.25; stroke-dasharray:3,3;"/>
<line x1="15.000000" y1="15.000000" x2="20.000000" y2="15.000000"  style="stroke: black; stroke-linecap:round; stroke-width:0.25; stroke-dasharray:3,3;"/>
<line x1="39.350000" y1="15.000000" x2="543.800000" y2="15.000000"  style="stroke: black; stroke-linecap:round; stroke-width:0.25; stroke-dasharray:3,3;"/>
<text x="20.000000" y="17.000000" font-family="Arial" font-size="7">freq</text>
<line x1="545.800000" y1="113.000000" x2="548.800000" y2="114.000000"  transform="rotate(0.000000,548.800000,114.000000)" style="stroke: black; stroke-width:0.25;"/>
<line x1="545.800000" y1="115.000000" x2="548.800000" y2="114.000000"  transform="rotate(0.000000,548.800000,114.000000)" style="stroke: black; stroke-width:0.25;"/>
<line x1="163.000000" y1="114.000000" x2="167.000000" y2="114.000000"  style="stroke:black; stroke-linecap:round; stroke-width:0.25;"/>
<line x1="167.000000" y1="114.000000" x2="177.000000" y2="114.000000"  style="stroke:black; stroke-linecap:round; stroke-width:0.25;"/>
<line x1="177.000000" y1="114.000000" x2="185.000000" y2="114.000000"  style="stroke:black; stroke-linecap:round; stroke-width:0.25;"/>
<line x1="185.000000" y1="114.000000" x2="185.000000" y2="140.000000"  style="stroke:black; stroke-linecap:round; stroke-width:0.25;"/>
<line x1="185.000000" y1="140.000000" x2="185.000000" y2="140.000000"  style="stroke:black; stroke-linecap:round; stroke-width:0.25;"/>
<line x1="185.000000" y1="140.000000" x2="211.000000" y2="140.000000"  style="stroke:black; stroke-linecap:round; stroke-width:0.25;"/>
<line x1="210.500000" y1="160.000000" x2="214.500000" y2="160.000000"  style="stroke:black; stroke-linecap:round; stroke-width:0.25;"/>
<line x1="211.000000" y1="140.000000" x2="237.000000" y2="140.000000"  style="stroke:black; stroke-linecap:round; stroke-width:0.25;"/>
<line x1="214.500000" y1="160.000000" x2="377.000000" y2="160.000000"  style="stroke:black; stroke-linecap:round; stroke-width:0.25;"/>
<line x1="223.000000" y1="110.000000" x2="227.000000" y2="110.000000"  style="stroke:black; stroke-linecap:round; stroke-width:0.25;"/>
<line x1="227.000000" y1="110.000000" x2="237.000000" y2="110.000000"  style="stroke:black; stroke-linecap:round; stroke-width:0.25;"/>
<line x1="230.500000" y1="192.000000" x2="234.500000" y2="192.000000"  style="stroke:black; stroke-linecap:round; stroke-width:0.25;"/>
<line x1="234.500000" y1="192.000000" x2="417.000000" y2="192.000000"  style="stroke:black; stroke-linecap:round; stroke-width:0.25;"/>
<line x1="237.000000" y1="110.000000" x2="245.000000" y2="110.000000"  style="stroke:black; stroke-linecap:round; stroke-width:0.25;"/>
<line x1="237.000000" y1="118.000000" x2="245.000000" y2="118.000000"  style="stroke:black; stroke-linecap:round; stroke-width:0.25;"/>
<line x1="237.000000" y1="140.000000" x2="237.000000" y2="118.000000"  style="stroke:black; stroke-linecap:round; stroke-width:0.25;"/>
<line x1="237.000000" y1="140.000000" x2="237.000000" y2="140.000000"  style="stroke:black; stroke-linecap:round; stroke-width:0.25;"/>
<line x1="245.000000" y1="110.000000" x2="249.000000" y2="110.000000"  style="stroke:black; stroke-linecap:round; stroke-width:0.25;"/>
<line x1="245.000000" y1="118.000000" x2="249.000000" y2="118.000000"  style="stroke:black; stroke-linecap:round; stroke-width:0.25;"/>
<line x1="250.500000" y1="68.000000" x2="254.500000" y2="68.000000"  style="stroke:black; stroke-linecap:round; stroke-width:0.25;"/>
<line x1="254.500000" y1="68.000000" x2="457.000000" y2="68.000000"  style="stroke:black; stroke-linecap:round; stroke-width:0.25;"/>
<line x1="271.400000" y1="36.000000" x2="275.400000" y2="36.000000"  style="stroke:black; stroke-linecap:round; stroke-width:0.25;"/>
<line x1="273.000000" y1="114.000000" x2="277.000000" y2="114.000000"  style="stroke:black; stroke-linecap:round; stroke-width:0.25;"/>
<line x1="275.400000" y1="36.000000" x2="498.800000" y2="36.000000"  style="stroke:black; stroke-linecap:round; stroke-width:0.25;"/>
<line x1="277.000000" y1="114.000000" x2="285.000000" y2="114.000000"  style="stroke:black; stroke-linecap:round; stroke-width:0.25;"/>
<line x1="285.000000" y1="114.000000" x2="285.000000" y2="140.000000"  style="stroke:black; stroke-linecap:round; stroke-width:0.25;"/>
<line x1="285.000000" y1="140.000000" x2="285.000000" y2="140.000000"  style="stroke:black; stroke-linecap:round; stroke-width:0.25;"/>
<line x1="285.000000" y1="140.000000" x2="311.000000" y2="140.000000"  style="stroke:black; stroke-linecap:round; stroke-width:0.25;"/>
<line x1="311.000000" y1="140.000000" x2="337.000000" y2="140.000000"  style="stroke:black; stroke-linecap:round; stroke-width:0.25;"/>
<line x1="323.000000" y1="110.000000" x2="327.000000" y2="110.000000"  style="stroke:black; stroke-linecap:round; stroke-width:0.25;"/>
<line x1="327.000000" y1="110.000000" x2="337.000000" y2="110.000000"  style="stroke:black; stroke-linecap:round; stroke-width:0.25;"/>
<line x1="337.000000" y1="110.000000" x2="345.000000" y2="110.000000"  style="stroke:black; stroke-linecap:round; stroke-width:0.25;"/>
<line x1="337.000000" y1="118.000000" x2="345.000000" y2="118.000000"  style="stroke:black; stroke-linecap:round; stroke-width:0.25;"/>
<line x1="337.000000" y1="140.000000" x2="337.000000" y2="118.000000"  style="stroke:black; stroke-linecap:round; stroke-width:0.25;"/>
<line x1="337.000000" y1="140.000000" x2="337.000000" y2="140.000000"  style="stroke:black; stroke-linecap:round; stroke-width:0.25;"/>
<line x1="345.000000" y1="110.000000" x2="349.000000" y2="110.000000"  style="stroke:black; stroke-linecap:round; stroke-width:0.25;"/>
<line x1="345.000000" y1="118.000000" x2="349.000000" y2="118.000000"  style="stroke:black; stroke-linecap:round; stroke-width:0.25;"/>
<line x1="373.000000" y1="114.000000" x2="377.000000" y2="114.000000"  style="stroke:black; stroke-linecap:round; stroke-width:0.25;"/>
<line x1="377.000000" y1="114.000000" x2="385.000000" y2="114.000000"  style="stroke:black; stroke-linecap:round; stroke-width:0.25;"/>
<line x1="377.000000" y1="134.000000" x2="385.000000" y2="134.000000"  style="stroke:black; stroke-linecap:round; stroke-width:0.25;"/>
<line x1="377.000000" y1="160.000000" x2="377.000000" y2="134.000000"  style="stroke:black; stroke-linecap:round; stroke-width:0.25;"/>
<line x1="377.000000" y1="160.000000" x2="377.000000" y2="160.000000"  style="stroke:black; stroke-linecap:round; stroke-width:0.25;"/>
<line x1="385.000000" y1="114.000000" x2="385.000000" y2="126.000000"  style="stroke:black; stroke-linecap:round; stroke-width:0.25;"/>
<line x1="385.000000" y1="126.000000" x2="385.000000" y2="126.000000"  style="stroke:black; stroke-linecap:round; stroke-width:0.25;"/>
<line x1="385.000000" y1="126.000000" x2="389.000000" y2="126.000000"  style="stroke:black; stroke-linecap:round; stroke-width:0.25;"/>
<line x1="385.000000" y1="134.000000" x2="389.000000" y2="134.000000"  style="stroke:black; stroke-linecap:round; stroke-width:0.25;"/>
<line x1="413.000000" y1="130.000000" x2="417.000000" y2="130.000000"  style="stroke:black; stroke-linecap:round; stroke-width:0.25;"/>
<line x1="417.000000" y1="130.000000" x2="425.000000" y2="130.000000"  style="stroke:black; stroke-linecap:round; stroke-width:0.25;"/>
<line x1="417.000000" y1="150.000000" x2="425.000000" y2="150.000000"  style="stroke:black; stroke-linecap:round; stroke-width:0.25;"/>
<line x1="417.000000" y1="192.000000" x2="417.000000" y2="150.000000"  style="stroke:black; stroke-linecap:round; stroke-width:0.25;"/>
<line x1="417.000000" y1="192.000000" x2="417.000000" y2="192.000000"  style="stroke:black; stroke-linecap:round; stroke-width:0.25;"/>
<line x1="425.000000" y1="130.000000" x2="425.000000" y2="142.000000"  style="stroke:black; stroke-linecap:round; stroke-width:0.25;"/>
<line x1="425.000000" y1="142.000000" x2="425.000000" y2="142.000000"  style="stroke:black; stroke-linecap:round; stroke-width:0.25;"/>
<line x1="425.000000" y1="142.000000" x2="429.000000" y2="142.000000"  style="stroke:black; stroke-linecap:round; stroke-width:0.25;"/>
<line x1="425.000000" y1="150.000000" x2="429.000000" y2="150.000000"  style="stroke:black; stroke-linecap:round; stroke-width:0.25;"/>
<line x1="453.000000" y1="146.000000" x2="457.000000" y2="146.000000"  style="stroke:black; stroke-linecap:round; stroke-width:0.25;"/>
<line x1="457.000000" y1="68.000000" x2="465.000000" y2="68.000000"  style="stroke:black; stroke-linecap:round; stroke-width:0.25;"/>
<line x1="457.000000" y1="134.000000" x2="465.000000" y2="134.000000"  style="stroke:black; stroke-linecap:round; stroke-width:0.25;"/>
<line x1="457.000000" y1="146.000000" x2="457.000000" y2="134.000000"  style="stroke:black; stroke-linecap:round; stroke-width:0.25;"/>
<line x1="457.000000" y1="146.000000" x2="457.000000" y2="146.000000"  style="stroke:black; stroke-linecap:round; stroke-width:0.25;"/>
<line x1="465.000000" y1="68.000000" x2="465.000000" y2="126.000000"  style="stroke:black; stroke-linecap:round; stroke-width:0.25;"/>
<line x1="465.000000" y1="126.000000" x2="465.000000" y2="126.000000"  style="stroke:black; stroke-linecap:round; stroke-width:0.25;"/>
<line x1="465.000000" y1="126.000000" x2="469.000000" y2="126.000000"  style="stroke:black; stroke-linecap:round; stroke-width:0.25;"/>
<line x1="465.000000" y1="134.000000" x2="469.000000" y2="134.000000"  style="stroke:black; stroke-linecap:round; stroke-width:0.25;"/>
<line x1="494.800000" y1="130.000000" x2="498.800000" y2="130.000000"  style="stroke:black; stroke-linecap:round; stroke-width:0.25;"/>
<line x1="498.800000" y1="36.000000" x2="506.800000" y2="36.000000"  style="stroke:black; stroke-linecap:round; stroke-width:0.25;"/>
<line x1="498.800000" y1="118.000000" x2="506.800000" y2="118.000000"  style="stroke:black; stroke-linecap:round; stroke-width:0.25;"/>
<line x1="498.800000" y1="130.000000" x2="498.800000" y2="118.000000"  style="stroke:black; stroke-linecap:round; stroke-width:0.25;"/>
<line x1="498.800000" y1="130.000000" x2="498.800000" y2="130.000000"  style="stroke:black; stroke-linecap:round; stroke-width:0.25;"/>
<line x1="506.800000" y1="36.000000" x2="506.800000" y2="110.000000"  style="stroke:black; stroke-linecap:round; stroke-width:0.25;"/>
<line x1="506.800000" y1="110.000000" x2="506.800000" y2="110.000000"  style="stroke:black; stroke-linecap:round; stroke-width:0.25;"/>
<line x1="506.800000" y1="110.000000" x2="510.800000" y2="110.000000"  style="stroke:black; stroke-linecap:round; stroke-width:0.25;"/>
<line x1="506.800000" y1="118.000000" x2="510.800000" y2="118.000000"  style="stroke:black; stroke-linecap:round; stroke-width:0.25;"/>
<line x1="534.800000" y1="114.000000" x2="538.800000" y2="114.000000"  style="stroke:black; stroke-linecap:round; stroke-width:0.25;"/>
<line x1="538.800000" y1="114.000000" x2="548.800000" y2="114.000000"  style="stroke:black; stroke-linecap:round; stroke-width:0.25;"/>
</svg>
