<?xml version="1.0"?>
<svg xmlns="http://www.w3.org/2000/svg" xmlns:xlink="http://www.w3.org/1999/xlink" viewBox="0 0 205.900000 72.000000" width="102.950000mm" height="36.000000mm" version="1.1">
<a xlink:href="flute-0x33d9f90.svg">
<rect x="1.000000" y="1.000000" width="204.900000" height="71.000000" rx="0" ry="0" style="stroke:none;fill:#cccccc;"/>
<rect x="0.000000" y="0.000000" width="204.900000" height="71.000000" rx="0" ry="0" style="stroke:none;fill:#ffffff;"/>
</a>
<text x="10.000000" y="7.000000" font-family="Arial" font-size="7"></text>
<a xlink:href="jetDelay-0x33b6e80.svg">
<rect x="25.000000" y="25.000000" width="38.700000" height="24.000000" rx="0" ry="0" style="stroke:none;fill:#cccccc;"/>
<rect x="24.000000" y="24.000000" width="38.700000" height="24.000000" rx="0" ry="0" style="stroke:none;fill:#003366;"/>
</a>
<a xlink:href="jetDelay-0x33b6e80.svg">
<text x="43.350000" y="38.000000" font-family="Arial" font-size="7" text-anchor="middle" fill="#FFFFFF">jetDelay</text>
</a>
<circle cx="26.000000" cy="26.000000" r="1"/>
<line x1="21.000000" y1="35.000000" x2="24.000000" y2="36.000000"  transform="rotate(0.000000,24.000000,36.000000)" style="stroke: black; stroke-width:0.25;"/>
<line x1="21.000000" y1="37.000000" x2="24.000000" y2="36.000000"  transform="rotate(0.000000,24.000000,36.000000)" style="stroke: black; stroke-width:0.25;"/>
<a xlink:href="jetNonlinearity-0x33466b0.svg">
<rect x="71.700000" y="25.000000" width="64.500000" height="24.000000" rx="0" ry="0" style="stroke:none;fill:#cccccc;"/>
<rect x="70.700000" y="24.000000" width="64.500000" height="24.000000" rx="0" ry="0" style="stroke:none;fill:#003366;"/>
</a>
<a xlink:href="jetNonlinearity-0x33466b0.svg">
<text x="102.950000" y="38.000000" font-family="Arial" font-size="7" text-anchor="middle" fill="#FFFFFF">jetNonlinearity</text>
</a>
<circle cx="72.700000" cy="26.000000" r="1"/>
<line x1="67.700000" y1="35.000000" x2="70.700000" y2="36.000000"  transform="rotate(0.000000,70.700000,36.000000)" style="stroke: black; stroke-width:0.25;"/>
<line x1="67.700000" y1="37.000000" x2="70.700000" y2="36.000000"  transform="rotate(0.000000,70.700000,36.000000)" style="stroke: black; stroke-width:0.25;"/>
<a xlink:href="dcblocker-0x3343e30.svg">
<rect x="144.200000" y="25.000000" width="38.700000" height="24.000000" rx="0" ry="0" style="stroke:none;fill:#cccccc;"/>
<rect x="143.200000" y="24.000000" width="38.700000" height="24.000000" rx="0" ry="0" style="stroke:none;fill:#003366;"/>
</a>
<a xlink:href="dcblocker-0x3343e30.svg">
<text x="162.550000" y="38.000000" font-family="Arial" font-size="7" text-anchor="middle" fill="#FFFFFF">dcblocker</text>
</a>
<circle cx="145.200000" cy="26.000000" r="1"/>
<line x1="140.200000" y1="35.000000" x2="143.200000" y2="36.000000"  transform="rotate(0.000000,143.200000,36.000000)" style="stroke: black; stroke-width:0.25;"/>
<line x1="140.200000" y1="37.000000" x2="143.200000" y2="36.000000"  transform="rotate(0.000000,143.200000,36.000000)" style="stroke: black; stroke-width:0.25;"/>
<line x1="15.000000" y1="15.000000" x2="15.000000" y2="57.000000"  style="stroke: black; stroke-linecap:round; stroke-width:0.25; stroke-dasharray:3,3;"/>
<line x1="15.000000" y1="57.000000" x2="190.900000" y2="57.000000"  style="stroke: black; stroke-linecap:round; stroke-width:0.25; stroke-dasharray:3,3;"/>
<line x1="190.900000" y1="57.000000" x2="190.900000" y2="15.000000"  style="stroke: black; stroke-linecap:round; stroke-width:0.25; stroke-dasharray:3,3;"/>
<line x1="15.000000" y1="15.000000" x2="20.000000" y2="15.000000"  style="stroke: black; stroke-linecap:round; stroke-width:0.25; stroke-dasharray:3,3;"/>
<line x1="36.125000" y1="15.000000" x2="190.900000" y2="15.000000"  style="stroke: black; stroke-linecap:round; stroke-width:0.25; stroke-dasharray:3,3;"/>
<text x="20.000000" y="17.000000" font-family="Arial" font-size="7">jet</text>
<line x1="192.900000" y1="35.000000" x2="195.900000" y2="36.000000"  transform="rotate(0.000000,195.900000,36.000000)" style="stroke: black; stroke-width:0.25;"/>
<line x1="192.900000" y1="37.000000" x2="195.900000" y2="36.000000"  transform="rotate(0.000000,195.900000,36.000000)" style="stroke: black; stroke-width:0.25;"/>
<line x1="10.000000" y1="36.000000" x2="20.000000" y2="36.000000"  style="stroke:black; stroke-linecap:round; stroke-width:0.25;"/>
<line x1="20.000000" y1="36.000000" x2="24.000000" y2="36.000000"  style="stroke:black; stroke-linecap:round; stroke-width:0.25;"/>
<line x1="62.700000" y1="36.000000" x2="66.700000" y2="36.000000"  style="stroke:black; stroke-linecap:round; stroke-width:0.25;"/>
<line x1="66.700000" y1="36.000000" x2="66.700000" y2="36.000000"  style="stroke:black; stroke-linecap:round; stroke-width:0.25;"/>
<line x1="66.700000" y1="36.000000" x2="70.700000" y2="36.000000"  style="stroke:black; stroke-linecap:round; stroke-width:0.25;"/>
<line x1="135.200000" y1="36.000000" x2="139.200000" y2="36.000000"  style="stroke:black; stroke-linecap:round; stroke-width:0.25;"/>
<line x1="139.200000" y1="36.000000" x2="139.200000" y2="36.000000"  style="stroke:black; stroke-linecap:round; stroke-width:0.25;"/>
<line x1="139.200000" y1="36.000000" x2="143.200000" y2="36.000000"  style="stroke:black; stroke-linecap:round; stroke-width:0.25;"/>
<line x1="181.900000" y1="36.000000" x2="185.900000" y2="36.000000"  style="stroke:black; stroke-linecap:round; stroke-width:0.25;"/>
<line x1="185.900000" y1="36.000000" x2="195.900000" y2="36.000000"  style="stroke:black; stroke-linecap:round; stroke-width:0.25;"/>
</svg>
