<?xml version="1.0"?>
<svg xmlns="http://www.w3.org/2000/svg" xmlns:xlink="http://www.w3.org/1999/xlink" viewBox="0 0 225.800000 200.000000" width="112.900000mm" height="100.000000mm" version="1.1">
<a xlink:href="jet-0x33b71c0.svg">
<rect x="1.000000" y="1.000000" width="224.800000" height="199.000000" rx="0" ry="0" style="stroke:none;fill:#cccccc;"/>
<rect x="0.000000" y="0.000000" width="224.800000" height="199.000000" rx="0" ry="0" style="stroke:none;fill:#ffffff;"/>
</a>
<text x="10.000000" y="7.000000" font-family="Arial" font-size="7"></text>
<rect x="25.000000" y="89.000000" width="24.000000" height="24.000000" rx="0" ry="0" style="stroke:none;fill:#cccccc;"/>
<rect x="24.000000" y="88.000000" width="24.000000" height="24.000000" rx="0" ry="0" style="stroke:none;fill:#47945E;"/>
<text x="36.000000" y="102.000000" font-family="Arial" font-size="7" text-anchor="middle" fill="#FFFFFF">x</text>
<circle cx="26.000000" cy="90.000000" r="1"/>
<line x1="21.000000" y1="99.000000" x2="24.000000" y2="100.000000"  transform="rotate(0.000000,24.000000,100.000000)" style="stroke: black; stroke-width:0.25;"/>
<line x1="21.000000" y1="101.000000" x2="24.000000" y2="100.000000"  transform="rotate(0.000000,24.000000,100.000000)" style="stroke: black; stroke-width:0.25;"/>
<a xlink:href="delay-0x33b6200.svg">
<rect x="77.000000" y="25.000000" width="25.800000" height="24.000000" rx="0" ry="0" style="stroke:none;fill:#cccccc;"/>
<rect x="76.000000" y="24.000000" width="25.800000" height="24.000000" rx="0" ry="0" style="stroke:none;fill:#003366;"/>
</a>
<a xlink:href="delay-0x33b6200.svg">
<text x="88.900000" y="38.000000" font-family="Arial" font-size="7" text-anchor="middle" fill="#FFFFFF">delay</text>
</a>
<circle cx="78.000000" cy="26.000000" r="1"/>
<rect x="57.900000" y="57.000000" width="24.000000" height="24.000000" rx="0" ry="0" style="stroke:none;fill:#cccccc;"/>
<rect x="56.900000" y="56.000000" width="24.000000" height="24.000000" rx="0" ry="0" style="stroke:none;fill:#f44800;"/>
<text x="68.900000" y="70.000000" font-family="Arial" font-size="7" text-anchor="middle" fill="#FFFFFF">1</text>
<circle cx="58.900000" cy="58.000000" r="1"/>
<a xlink:href="frac-0x33a9580.svg">
<rect x="57.000000" y="89.000000" width="25.800000" height="24.000000" rx="0" ry="0" style="stroke:none;fill:#cccccc;"/>
<rect x="56.000000" y="88.000000" width="25.800000" height="24.000000" rx="0" ry="0" style="stroke:none;fill:#003366;"/>
</a>
<a xlink:href="frac-0x33a9580.svg">
<text x="68.900000" y="102.000000" font-family="Arial" font-size="7" text-anchor="middle" fill="#FFFFFF">frac</text>
</a>
<circle cx="58.000000" cy="90.000000" r="1"/>
<rect x="98.800000" y="73.000000" width="24.000000" height="24.000000" rx="0" ry="0" style="stroke:none;fill:#cccccc;"/>
<rect x="97.800000" y="72.000000" width="24.000000" height="24.000000" rx="0" ry="0" style="stroke:none;fill:#4B71A1;"/>
<text x="109.800000" y="86.000000" font-family="Arial" font-size="7" text-anchor="middle" fill="#FFFFFF">-</text>
<circle cx="99.800000" cy="74.000000" r="1"/>
<line x1="94.800000" y1="79.000000" x2="97.800000" y2="80.000000"  transform="rotate(0.000000,97.800000,80.000000)" style="stroke: black; stroke-width:0.25;"/>
<line x1="94.800000" y1="81.000000" x2="97.800000" y2="80.000000"  transform="rotate(0.000000,97.800000,80.000000)" style="stroke: black; stroke-width:0.25;"/>
<line x1="94.800000" y1="87.000000" x2="97.800000" y2="88.000000"  transform="rotate(0.000000,97.800000,88.000000)" style="stroke: black; stroke-width:0.25;"/>
<line x1="94.800000" y1="89.000000" x2="97.800000" y2="88.000000"  transform="rotate(0.000000,97.800000,88.000000)" style="stroke: black; stroke-width:0.25;"/>
<rect x="138.800000" y="57.000000" width="24.000000" height="24.000000" rx="0" ry="0" style="stroke:none;fill:#cccccc;"/>
<rect x="137.800000" y="56.000000" width="24.000000" height="24.000000" rx="0" ry="0" style="stroke:none;fill:#4B71A1;"/>
<text x="149.800000" y="70.000000" font-family="Arial" font-size="7" text-anchor="middle" fill="#FFFFFF">*</text>
<circle cx="139.800000" cy="58.000000" r="1"/>
<line x1="134.800000" y1="63.000000" x2="137.800000" y2="64.000000"  transform="rotate(0.000000,137.800000,64.000000)" style="stroke: black; stroke-width:0.25;"/>
<line x1="134.800000" y1="65.000000" x2="137.800000" y2="64.000000"  transform="rotate(0.000000,137.800000,64.000000)" style="stroke: black; stroke-width:0.25;"/>
<line x1="134.800000" y1="71.000000" x2="137.800000" y2="72.000000"  transform="rotate(0.000000,137.800000,72.000000)" style="stroke: black; stroke-width:0.25;"/>
<line x1="134.800000" y1="73.000000" x2="137.800000" y2="72.000000"  transform="rotate(0.000000,137.800000,72.000000)" style="stroke: black; stroke-width:0.25;"/>
<a xlink:href="delay-0x33b0880.svg">
<rect x="77.000000" y="121.000000" width="25.800000" height="24.000000" rx="0" ry="0" style="stroke:none;fill:#cccccc;"/>
<rect x="76.000000" y="120.000000" width="25.800000" height="24.000000" rx="0" ry="0" style="stroke:none;fill:#003366;"/>
</a>
<a xlink:href="delay-0x33b0880.svg">
<text x="88.900000" y="134.000000" font-family="Arial" font-size="7" text-anchor="middle" fill="#FFFFFF">delay</text>
</a>
<circle cx="78.000000" cy="122.000000" r="1"/>
<a xlink:href="frac-0x33a9580.svg">
<rect x="77.000000" y="153.000000" width="25.800000" height="24.000000" rx="0" ry="0" style="stroke:none;fill:#cccccc;"/>
<rect x="76.000000" y="152.000000" width="25.800000" height="24.000000" rx="0" ry="0" style="stroke:none;fill:#003366;"/>
</a>
<a xlink:href="frac-0x33a9580.svg">
<text x="88.900000" y="166.000000" font-family="Arial" font-size="7" text-anchor="middle" fill="#FFFFFF">frac</text>
</a>
<circle cx="78.000000" cy="154.000000" r="1"/>
<rect x="118.800000" y="137.000000" width="24.000000" height="24.000000" rx="0" ry="0" style="stroke:none;fill:#cccccc;"/>
<rect x="117.800000" y="136.000000" width="24.000000" height="24.000000" rx="0" ry="0" style="stroke:none;fill:#4B71A1;"/>
<text x="129.800000" y="150.000000" font-family="Arial" font-size="7" text-anchor="middle" fill="#FFFFFF">*</text>
<circle cx="119.800000" cy="138.000000" r="1"/>
<line x1="114.800000" y1="143.000000" x2="117.800000" y2="144.000000"  transform="rotate(0.000000,117.800000,144.000000)" style="stroke: black; stroke-width:0.25;"/>
<line x1="114.800000" y1="145.000000" x2="117.800000" y2="144.000000"  transform="rotate(0.000000,117.800000,144.000000)" style="stroke: black; stroke-width:0.25;"/>
<line x1="114.800000" y1="151.000000" x2="117.800000" y2="152.000000"  transform="rotate(0.000000,117.800000,152.000000)" style="stroke: black; stroke-width:0.25;"/>
<line x1="114.800000" y1="153.000000" x2="117.800000" y2="152.000000"  transform="rotate(0.000000,117.800000,152.000000)" style="stroke: black; stroke-width:0.25;"/>
<rect x="178.800000" y="89.000000" width="24.000000" height="24.000000" rx="0" ry="0" style="stroke:none;fill:#cccccc;"/>
<rect x="177.800000" y="88.000000" width="24.000000" height="24.000000" rx="0" ry="0" style="stroke:none;fill:#4B71A1;"/>
<text x="189.800000" y="102.000000" font-family="Arial" font-size="7" text-anchor="middle" fill="#FFFFFF">+</text>
<circle cx="179.800000" cy="90.000000" r="1"/>
<line x1="174.800000" y1="95.000000" x2="177.800000" y2="96.000000"  transform="rotate(0.000000,177.800000,96.000000)" style="stroke: black; stroke-width:0.25;"/>
<line x1="174.800000" y1="97.000000" x2="177.800000" y2="96.000000"  transform="rotate(0.000000,177.800000,96.000000)" style="stroke: black; stroke-width:0.25;"/>
<line x1="174.800000" y1="103.000000" x2="177.800000" y2="104.000000"  transform="rotate(0.000000,177.800000,104.000000)" style="stroke: black; stroke-width:0.25;"/>
<line x1="174.800000" y1="105.000000" x2="177.800000" y2="104.000000"  transform="rotate(0.000000,177.800000,104.000000)" style="stroke: black; stroke-width:0.25;"/>
<line x1="15.000000" y1="15.000000" x2="15.000000" y2="185.000000"  style="stroke: black; stroke-linecap:round; stroke-width:0.25; stroke-dasharray:3,3;"/>
<line x1="15.000000" y1="185.000000" x2="210.800000" y2="185.000000"  style="stroke: black; stroke-linecap:round; stroke-width:0.25; stroke-dasharray:3,3;"/>
<line x1="210.800000" y1="185.000000" x2="210.800000" y2="15.000000"  style="stroke: black; stroke-linecap:round; stroke-width:0.25; stroke-dasharray:3,3;"/>
<line x1="15.000000" y1="15.000000" x2="20.000000" y2="15.000000"  style="stroke: black; stroke-linecap:round; stroke-width:0.25; stroke-dasharray:3,3;"/>
<line x1="52.250000" y1="15.000000" x2="210.800000" y2="15.000000"  style="stroke: black; stroke-linecap:round; stroke-width:0.25; stroke-dasharray:3,3;"/>
<text x="20.000000" y="17.000000" font-family="Arial" font-size="7">jetDelay</text>
<line x1="212.800000" y1="99.000000" x2="215.800000" y2="100.000000"  transform="rotate(0.000000,215.800000,100.000000)" style="stroke: black; stroke-width:0.25;"/>
<line x1="212.800000" y1="101.000000" x2="215.800000" y2="100.000000"  transform="rotate(0.000000,215.800000,100.000000)" style="stroke: black; stroke-width:0.25;"/>
<line x1="10.000000" y1="100.000000" x2="20.000000" y2="100.000000"  style="stroke:black; stroke-linecap:round; stroke-width:0.25;"/>
<line x1="20.000000" y1="100.000000" x2="24.000000" y2="100.000000"  style="stroke:black; stroke-linecap:round; stroke-width:0.25;"/>
<line x1="80.900000" y1="68.000000" x2="84.900000" y2="68.000000"  style="stroke:black; stroke-linecap:round; stroke-width:0.25;"/>
<line x1="81.800000" y1="100.000000" x2="85.800000" y2="100.000000"  style="stroke:black; stroke-linecap:round; stroke-width:0.25;"/>
<line x1="84.900000" y1="68.000000" x2="85.800000" y2="68.000000"  style="stroke:black; stroke-linecap:round; stroke-width:0.25;"/>
<line x1="85.800000" y1="88.000000" x2="93.800000" y2="88.000000"  style="stroke:black; stroke-linecap:round; stroke-width:0.25;"/>
<line x1="85.800000" y1="100.000000" x2="85.800000" y2="88.000000"  style="stroke:black; stroke-linecap:round; stroke-width:0.25;"/>
<line x1="85.800000" y1="100.000000" x2="85.800000" y2="100.000000"  style="stroke:black; stroke-linecap:round; stroke-width:0.25;"/>
<line x1="85.800000" y1="68.000000" x2="93.800000" y2="68.000000"  style="stroke:black; stroke-linecap:round; stroke-width:0.25;"/>
<line x1="93.800000" y1="80.000000" x2="97.800000" y2="80.000000"  style="stroke:black; stroke-linecap:round; stroke-width:0.25;"/>
<line x1="93.800000" y1="88.000000" x2="97.800000" y2="88.000000"  style="stroke:black; stroke-linecap:round; stroke-width:0.25;"/>
<line x1="93.800000" y1="68.000000" x2="93.800000" y2="80.000000"  style="stroke:black; stroke-linecap:round; stroke-width:0.25;"/>
<line x1="93.800000" y1="80.000000" x2="93.800000" y2="80.000000"  style="stroke:black; stroke-linecap:round; stroke-width:0.25;"/>
<line x1="101.800000" y1="36.000000" x2="105.800000" y2="36.000000"  style="stroke:black; stroke-linecap:round; stroke-width:0.25;"/>
<line x1="101.800000" y1="132.000000" x2="105.800000" y2="132.000000"  style="stroke:black; stroke-linecap:round; stroke-width:0.25;"/>
<line x1="101.800000" y1="164.000000" x2="105.800000" y2="164.000000"  style="stroke:black; stroke-linecap:round; stroke-width:0.25;"/>
<line x1="105.800000" y1="36.000000" x2="125.800000" y2="36.000000"  style="stroke:black; stroke-linecap:round; stroke-width:0.25;"/>
<line x1="105.800000" y1="132.000000" x2="113.800000" y2="132.000000"  style="stroke:black; stroke-linecap:round; stroke-width:0.25;"/>
<line x1="105.800000" y1="152.000000" x2="113.800000" y2="152.000000"  style="stroke:black; stroke-linecap:round; stroke-width:0.25;"/>
<line x1="105.800000" y1="164.000000" x2="105.800000" y2="152.000000"  style="stroke:black; stroke-linecap:round; stroke-width:0.25;"/>
<line x1="105.800000" y1="164.000000" x2="105.800000" y2="164.000000"  style="stroke:black; stroke-linecap:round; stroke-width:0.25;"/>
<line x1="113.800000" y1="132.000000" x2="113.800000" y2="144.000000"  style="stroke:black; stroke-linecap:round; stroke-width:0.25;"/>
<line x1="113.800000" y1="144.000000" x2="113.800000" y2="144.000000"  style="stroke:black; stroke-linecap:round; stroke-width:0.25;"/>
<line x1="113.800000" y1="144.000000" x2="117.800000" y2="144.000000"  style="stroke:black; stroke-linecap:round; stroke-width:0.25;"/>
<line x1="113.800000" y1="152.000000" x2="117.800000" y2="152.000000"  style="stroke:black; stroke-linecap:round; stroke-width:0.25;"/>
<line x1="121.800000" y1="84.000000" x2="125.800000" y2="84.000000"  style="stroke:black; stroke-linecap:round; stroke-width:0.25;"/>
<line x1="125.800000" y1="36.000000" x2="133.800000" y2="36.000000"  style="stroke:black; stroke-linecap:round; stroke-width:0.25;"/>
<line x1="125.800000" y1="72.000000" x2="133.800000" y2="72.000000"  style="stroke:black; stroke-linecap:round; stroke-width:0.25;"/>
<line x1="125.800000" y1="84.000000" x2="125.800000" y2="72.000000"  style="stroke:black; stroke-linecap:round; stroke-width:0.25;"/>
<line x1="125.800000" y1="84.000000" x2="125.800000" y2="84.000000"  style="stroke:black; stroke-linecap:round; stroke-width:0.25;"/>
<line x1="133.800000" y1="36.000000" x2="133.800000" y2="64.000000"  style="stroke:black; stroke-linecap:round; stroke-width:0.25;"/>
<line x1="133.800000" y1="64.000000" x2="133.800000" y2="64.000000"  style="stroke:black; stroke-linecap:round; stroke-width:0.25;"/>
<line x1="133.800000" y1="64.000000" x2="137.800000" y2="64.000000"  style="stroke:black; stroke-linecap:round; stroke-width:0.25;"/>
<line x1="133.800000" y1="72.000000" x2="137.800000" y2="72.000000"  style="stroke:black; stroke-linecap:round; stroke-width:0.25;"/>
<line x1="141.800000" y1="148.000000" x2="145.800000" y2="148.000000"  style="stroke:black; stroke-linecap:round; stroke-width:0.25;"/>
<line x1="145.800000" y1="148.000000" x2="165.800000" y2="148.000000"  style="stroke:black; stroke-linecap:round; stroke-width:0.25;"/>
<line x1="161.800000" y1="68.000000" x2="165.800000" y2="68.000000"  style="stroke:black; stroke-linecap:round; stroke-width:0.25;"/>
<line x1="165.800000" y1="68.000000" x2="173.800000" y2="68.000000"  style="stroke:black; stroke-linecap:round; stroke-width:0.25;"/>
<line x1="165.800000" y1="104.000000" x2="173.800000" y2="104.000000"  style="stroke:black; stroke-linecap:round; stroke-width:0.25;"/>
<line x1="165.800000" y1="148.000000" x2="165.800000" y2="104.000000"  style="stroke:black; stroke-linecap:round; stroke-width:0.25;"/>
<line x1="165.800000" y1="148.000000" x2="165.800000" y2="148.000000"  style="stroke:black; stroke-linecap:round; stroke-width:0.25;"/>
<line x1="173.800000" y1="68.000000" x2="173.800000" y2="96.000000"  style="stroke:black; stroke-linecap:round; stroke-width:0.25;"/>
<line x1="173.800000" y1="96.000000" x2="173.800000" y2="96.000000"  style="stroke:black; stroke-linecap:round; stroke-width:0.25;"/>
<line x1="173.800000" y1="96.000000" x2="177.800000" y2="96.000000"  style="stroke:black; stroke-linecap:round; stroke-width:0.25;"/>
<line x1="173.800000" y1="104.000000" x2="177.800000" y2="104.000000"  style="stroke:black; stroke-linecap:round; stroke-width:0.25;"/>
<line x1="201.800000" y1="100.000000" x2="205.800000" y2="100.000000"  style="stroke:black; stroke-linecap:round; stroke-width:0.25;"/>
<line x1="205.800000" y1="100.000000" x2="215.800000" y2="100.000000"  style="stroke:black; stroke-linecap:round; stroke-width:0.25;"/>
</svg>
