<?xml version="1.0"?>
<svg xmlns="http://www.w3.org/2000/svg" xmlns:xlink="http://www.w3.org/1999/xlink" viewBox="0 0 173.800000 196.000000" width="86.900000mm" height="98.000000mm" version="1.1">
<a xlink:href="jet-0x2ac3230.svg">
<rect x="1.000000" y="1.000000" width="172.800000" height="195.000000" rx="0" ry="0" style="stroke:none;fill:#cccccc;"/>
<rect x="0.000000" y="0.000000" width="172.800000" height="195.000000" rx="0" ry="0" style="stroke:none;fill:#ffffff;"/>
</a>
<text x="10.000000" y="7.000000" font-family="Arial" font-size="7"></text>
<rect x="55.900000" y="35.000000" width="24.000000" height="24.000000" rx="0" ry="0" style="stroke:none;fill:#cccccc;"/>
<rect x="54.900000" y="34.000000" width="24.000000" height="24.000000" rx="0" ry="0" style="stroke:none;fill:#f44800;"/>
<text x="66.900000" y="48.000000" font-family="Arial" font-size="7" text-anchor="middle" fill="#FFFFFF">0</text>
<circle cx="56.900000" cy="36.000000" r="1"/>
<line x1="45.900000" y1="25.000000" x2="45.900000" y2="67.000000"  style="stroke: black; stroke-linecap:round; stroke-width:0.25; stroke-dasharray:3,3;"/>
<line x1="45.900000" y1="67.000000" x2="87.900000" y2="67.000000"  style="stroke: black; stroke-linecap:round; stroke-width:0.25; stroke-dasharray:3,3;"/>
<line x1="87.900000" y1="67.000000" x2="87.900000" y2="25.000000"  style="stroke: black; stroke-linecap:round; stroke-width:0.25; stroke-dasharray:3,3;"/>
<line x1="45.900000" y1="25.000000" x2="50.900000" y2="25.000000"  style="stroke: black; stroke-linecap:round; stroke-width:0.25; stroke-dasharray:3,3;"/>
<line x1="86.375000" y1="25.000000" x2="87.900000" y2="25.000000"  style="stroke: black; stroke-linecap:round; stroke-width:0.25; stroke-dasharray:3,3;"/>
<text x="50.900000" y="27.000000" font-family="Arial" font-size="7">jetOffset</text>
<rect x="35.900000" y="87.000000" width="24.000000" height="24.000000" rx="0" ry="0" style="stroke:none;fill:#cccccc;"/>
<rect x="34.900000" y="86.000000" width="24.000000" height="24.000000" rx="0" ry="0" style="stroke:none;fill:#f44800;"/>
<text x="46.900000" y="100.000000" font-family="Arial" font-size="7" text-anchor="middle" fill="#FFFFFF">-4</text>
<circle cx="36.900000" cy="88.000000" r="1"/>
<line x1="25.900000" y1="77.000000" x2="25.900000" y2="119.000000"  style="stroke: black; stroke-linecap:round; stroke-width:0.25; stroke-dasharray:3,3;"/>
<line x1="25.900000" y1="119.000000" x2="67.900000" y2="119.000000"  style="stroke: black; stroke-linecap:round; stroke-width:0.25; stroke-dasharray:3,3;"/>
<line x1="67.900000" y1="119.000000" x2="67.900000" y2="77.000000"  style="stroke: black; stroke-linecap:round; stroke-width:0.25; stroke-dasharray:3,3;"/>
<line x1="25.900000" y1="77.000000" x2="30.900000" y2="77.000000"  style="stroke: black; stroke-linecap:round; stroke-width:0.25; stroke-dasharray:3,3;"/>
<line x1="59.925000" y1="77.000000" x2="67.900000" y2="77.000000"  style="stroke: black; stroke-linecap:round; stroke-width:0.25; stroke-dasharray:3,3;"/>
<text x="30.900000" y="79.000000" font-family="Arial" font-size="7">jetGain</text>
<rect x="35.000000" y="139.000000" width="25.800000" height="24.000000" rx="0" ry="0" style="stroke:none;fill:#cccccc;"/>
<rect x="34.000000" y="138.000000" width="25.800000" height="24.000000" rx="0" ry="0" style="stroke:none;fill:#4B71A1;"/>
<text x="46.900000" y="152.000000" font-family="Arial" font-size="7" text-anchor="middle" fill="#FFFFFF">tanhf</text>
<circle cx="36.000000" cy="140.000000" r="1"/>
<line x1="31.000000" y1="149.000000" x2="34.000000" y2="150.000000"  transform="rotate(0.000000,34.000000,150.000000)" style="stroke: black; stroke-width:0.25;"/>
<line x1="31.000000" y1="151.000000" x2="34.000000" y2="150.000000"  transform="rotate(0.000000,34.000000,150.000000)" style="stroke: black; stroke-width:0.25;"/>
<line x1="25.000000" y1="129.000000" x2="25.000000" y2="171.000000"  style="stroke: black; stroke-linecap:round; stroke-width:0.25; stroke-dasharray:3,3;"/>
<line x1="25.000000" y1="171.000000" x2="68.800000" y2="171.000000"  style="stroke: black; stroke-linecap:round; stroke-width:0.25; stroke-dasharray:3,3;"/>
<line x1="68.800000" y1="171.000000" x2="68.800000" y2="129.000000"  style="stroke: black; stroke-linecap:round; stroke-width:0.25; stroke-dasharray:3,3;"/>
<line x1="25.000000" y1="129.000000" x2="30.000000" y2="129.000000"  style="stroke: black; stroke-linecap:round; stroke-width:0.25; stroke-dasharray:3,3;"/>
<line x1="49.350000" y1="129.000000" x2="68.800000" y2="129.000000"  style="stroke: black; stroke-linecap:round; stroke-width:0.25; stroke-dasharray:3,3;"/>
<text x="30.000000" y="131.000000" font-family="Arial" font-size="7">tanh</text>
<rect x="86.800000" y="113.000000" width="24.000000" height="24.000000" rx="0" ry="0" style="stroke:none;fill:#cccccc;"/>
<rect x="85.800000" y="112.000000" width="24.000000" height="24.000000" rx="0" ry="0" style="stroke:none;fill:#4B71A1;"/>
<text x="97.800000" y="126.000000" font-family="Arial" font-size="7" text-anchor="middle" fill="#FFFFFF">*</text>
<circle cx="87.800000" cy="114.000000" r="1"/>
<line x1="82.800000" y1="119.000000" x2="85.800000" y2="120.000000"  transform="rotate(0.000000,85.800000,120.000000)" style="stroke: black; stroke-width:0.25;"/>
<line x1="82.800000" y1="121.000000" x2="85.800000" y2="120.000000"  transform="rotate(0.000000,85.800000,120.000000)" style="stroke: black; stroke-width:0.25;"/>
<line x1="82.800000" y1="127.000000" x2="85.800000" y2="128.000000"  transform="rotate(0.000000,85.800000,128.000000)" style="stroke: black; stroke-width:0.25;"/>
<line x1="82.800000" y1="129.000000" x2="85.800000" y2="128.000000"  transform="rotate(0.000000,85.800000,128.000000)" style="stroke: black; stroke-width:0.25;"/>
<rect x="126.800000" y="87.000000" width="24.000000" height="24.000000" rx="0" ry="0" style="stroke:none;fill:#cccccc;"/>
<rect x="125.800000" y="86.000000" width="24.000000" height="24.000000" rx="0" ry="0" style="stroke:none;fill:#4B71A1;"/>
<text x="137.800000" y="100.000000" font-family="Arial" font-size="7" text-anchor="middle" fill="#FFFFFF">+</text>
<circle cx="127.800000" cy="88.000000" r="1"/>
<line x1="122.800000" y1="93.000000" x2="125.800000" y2="94.000000"  transform="rotate(0.000000,125.800000,94.000000)" style="stroke: black; stroke-width:0.25;"/>
<line x1="122.800000" y1="95.000000" x2="125.800000" y2="94.000000"  transform="rotate(0.000000,125.800000,94.000000)" style="stroke: black; stroke-width:0.25;"/>
<line x1="122.800000" y1="101.000000" x2="125.800000" y2="102.000000"  transform="rotate(0.000000,125.800000,102.000000)" style="stroke: black; stroke-width:0.25;"/>
<line x1="122.800000" y1="103.000000" x2="125.800000" y2="102.000000"  transform="rotate(0.000000,125.800000,102.000000)" style="stroke: black; stroke-width:0.25;"/>
<line x1="15.000000" y1="15.000000" x2="15.000000" y2="181.000000"  style="stroke: black; stroke-linecap:round; stroke-width:0.25; stroke-dasharray:3,3;"/>
<line x1="15.000000" y1="181.000000" x2="158.800000" y2="181.000000"  style="stroke: black; stroke-linecap:round; stroke-width:0.25; stroke-dasharray:3,3;"/>
<line x1="158.800000" y1="181.000000" x2="158.800000" y2="15.000000"  style="stroke: black; stroke-linecap:round; stroke-width:0.25; stroke-dasharray:3,3;"/>
<line x1="15.000000" y1="15.000000" x2="20.000000" y2="15.000000"  style="stroke: black; stroke-linecap:round; stroke-width:0.25; stroke-dasharray:3,3;"/>
<line x1="74.825000" y1="15.000000" x2="158.800000" y2="15.000000"  style="stroke: black; stroke-linecap:round; stroke-width:0.25; stroke-dasharray:3,3;"/>
<text x="20.000000" y="17.000000" font-family="Arial" font-size="7">jetNonlinearity</text>
<line x1="160.800000" y1="97.000000" x2="163.800000" y2="98.000000"  transform="rotate(0.000000,163.800000,98.000000)" style="stroke: black; stroke-width:0.25;"/>
<line x1="160.800000" y1="99.000000" x2="163.800000" y2="98.000000"  transform="rotate(0.000000,163.800000,98.000000)" style="stroke: black; stroke-width:0.25;"/>
<line x1="10.000000" y1="150.000000" x2="20.000000" y2="150.000000"  style="stroke:black; stroke-linecap:round; stroke-width:0.25;"/>
<line x1="20.000000" y1="150.000000" x2="20.000000" y2="150.000000"  style="stroke:black; stroke-linecap:round; stroke-width:0.25;"/>
<line x1="20.000000" y1="150.000000" x2="30.000000" y2="150.000000"  style="stroke:black; stroke-linecap:round; stroke-width:0.25;"/>
<line x1="30.000000" y1="150.000000" x2="34.000000" y2="150.000000"  style="stroke:black; stroke-linecap:round; stroke-width:0.25;"/>
<line x1="58.900000" y1="98.000000" x2="62.900000" y2="98.000000"  style="stroke:black; stroke-linecap:round; stroke-width:0.25;"/>
<line x1="59.800000" y1="150.000000" x2="63.800000" y2="150.000000"  style="stroke:black; stroke-linecap:round; stroke-width:0.25;"/>
<line x1="62.900000" y1="98.000000" x2="72.900000" y2="98.000000"  style="stroke:black; stroke-linecap:round; stroke-width:0.25;"/>
<line x1="63.800000" y1="150.000000" x2="73.800000" y2="150.000000"  style="stroke:black; stroke-linecap:round; stroke-width:0.25;"/>
<line x1="72.900000" y1="98.000000" x2="73.800000" y2="98.000000"  style="stroke:black; stroke-linecap:round; stroke-width:0.25;"/>
<line x1="73.800000" y1="128.000000" x2="81.800000" y2="128.000000"  style="stroke:black; stroke-linecap:round; stroke-width:0.25;"/>
<line x1="73.800000" y1="150.000000" x2="73.800000" y2="128.000000"  style="stroke:black; stroke-linecap:round; stroke-width:0.25;"/>
<line x1="73.800000" y1="150.000000" x2="73.800000" y2="150.000000"  style="stroke:black; stroke-linecap:round; stroke-width:0.25;"/>
<line x1="73.800000" y1="98.000000" x2="81.800000" y2="98.000000"  style="stroke:black; stroke-linecap:round; stroke-width:0.25;"/>
<line x1="78.900000" y1="46.000000" x2="82.900000" y2="46.000000"  style="stroke:black; stroke-linecap:round; stroke-width:0.25;"/>
<line x1="81.800000" y1="120.000000" x2="85.800000" y2="120.000000"  style="stroke:black; stroke-linecap:round; stroke-width:0.25;"/>
<line x1="81.800000" y1="128.000000" x2="85.800000" y2="128.000000"  style="stroke:black; stroke-linecap:round; stroke-width:0.25;"/>
<line x1="81.800000" y1="98.000000" x2="81.800000" y2="120.000000"  style="stroke:black; stroke-linecap:round; stroke-width:0.25;"/>
<line x1="81.800000" y1="120.000000" x2="81.800000" y2="120.000000"  style="stroke:black; stroke-linecap:round; stroke-width:0.25;"/>
<line x1="82.900000" y1="46.000000" x2="92.900000" y2="46.000000"  style="stroke:black; stroke-linecap:round; stroke-width:0.25;"/>
<line x1="92.900000" y1="46.000000" x2="113.800000" y2="46.000000"  style="stroke:black; stroke-linecap:round; stroke-width:0.25;"/>
<line x1="109.800000" y1="124.000000" x2="113.800000" y2="124.000000"  style="stroke:black; stroke-linecap:round; stroke-width:0.25;"/>
<line x1="113.800000" y1="102.000000" x2="121.800000" y2="102.000000"  style="stroke:black; stroke-linecap:round; stroke-width:0.25;"/>
<line x1="113.800000" y1="124.000000" x2="113.800000" y2="102.000000"  style="stroke:black; stroke-linecap:round; stroke-width:0.25;"/>
<line x1="113.800000" y1="124.000000" x2="113.800000" y2="124.000000"  style="stroke:black; stroke-linecap:round; stroke-width:0.25;"/>
<line x1="113.800000" y1="46.000000" x2="121.800000" y2="46.000000"  style="stroke:black; stroke-linecap:round; stroke-width:0.25;"/>
<line x1="121.800000" y1="94.000000" x2="125.800000" y2="94.000000"  style="stroke:black; stroke-linecap:round; stroke-width:0.25;"/>
<line x1="121.800000" y1="102.000000" x2="125.800000" y2="102.000000"  style="stroke:black; stroke-linecap:round; stroke-width:0.25;"/>
<line x1="121.800000" y1="46.000000" x2="121.800000" y2="94.000000"  style="stroke:black; stroke-linecap:round; stroke-width:0.25;"/>
<line x1="121.800000" y1="94.000000" x2="121.800000" y2="94.000000"  style="stroke:black; stroke-linecap:round; stroke-width:0.25;"/>
<line x1="149.800000" y1="98.000000" x2="153.800000" y2="98.000000"  style="stroke:black; stroke-linecap:round; stroke-width:0.25;"/>
<line x1="153.800000" y1="98.000000" x2="163.800000" y2="98.000000"  style="stroke:black; stroke-linecap:round; stroke-width:0.25;"/>
</svg>
