<?xml version="1.0"?>
<svg xmlns="http://www.w3.org/2000/svg" xmlns:xlink="http://www.w3.org/1999/xlink" viewBox="0 0 199.600000 188.000000" width="99.800000mm" height="94.000000mm" version="1.1">
<a xlink:href="env-0x33709f0.svg">
<rect x="1.000000" y="1.000000" width="198.600000" height="187.000000" rx="0" ry="0" style="stroke:none;fill:#cccccc;"/>
<rect x="0.000000" y="0.000000" width="198.600000" height="187.000000" rx="0" ry="0" style="stroke:none;fill:#ffffff;"/>
</a>
<text x="10.000000" y="7.000000" font-family="Arial" font-size="7"></text>
<rect x="35.000000" y="35.000000" width="51.600000" height="24.000000" rx="0" ry="0" style="stroke:none;fill:#cccccc;"/>
<rect x="34.000000" y="34.000000" width="51.600000" height="24.000000" rx="0" ry="0" style="stroke:none;fill:#477881;"/>
<text x="59.800000" y="48.000000" font-family="Arial" font-size="7" text-anchor="middle" fill="#FFFFFF">button(gate)</text>
<circle cx="36.000000" cy="36.000000" r="1"/>
<line x1="25.000000" y1="25.000000" x2="25.000000" y2="67.000000"  style="stroke: black; stroke-linecap:round; stroke-width:0.25; stroke-dasharray:3,3;"/>
<line x1="25.000000" y1="67.000000" x2="94.600000" y2="67.000000"  style="stroke: black; stroke-linecap:round; stroke-width:0.25; stroke-dasharray:3,3;"/>
<line x1="94.600000" y1="67.000000" x2="94.600000" y2="25.000000"  style="stroke: black; stroke-linecap:round; stroke-width:0.25; stroke-dasharray:3,3;"/>
<line x1="25.000000" y1="25.000000" x2="30.000000" y2="25.000000"  style="stroke: black; stroke-linecap:round; stroke-width:0.25; stroke-dasharray:3,3;"/>
<line x1="49.350000" y1="25.000000" x2="94.600000" y2="25.000000"  style="stroke: black; stroke-linecap:round; stroke-width:0.25; stroke-dasharray:3,3;"/>
<text x="30.000000" y="27.000000" font-family="Arial" font-size="7">gate</text>
<rect x="48.800000" y="77.000000" width="24.000000" height="24.000000" rx="0" ry="0" style="stroke:none;fill:#cccccc;"/>
<rect x="47.800000" y="76.000000" width="24.000000" height="24.000000" rx="0" ry="0" style="stroke:none;fill:#f44800;"/>
<text x="59.800000" y="90.000000" font-family="Arial" font-size="7" text-anchor="middle" fill="#FFFFFF">0</text>
<circle cx="49.800000" cy="78.000000" r="1"/>
<rect x="112.600000" y="51.000000" width="24.000000" height="24.000000" rx="0" ry="0" style="stroke:none;fill:#cccccc;"/>
<rect x="111.600000" y="50.000000" width="24.000000" height="24.000000" rx="0" ry="0" style="stroke:none;fill:#4B71A1;"/>
<text x="123.600000" y="64.000000" font-family="Arial" font-size="7" text-anchor="middle" fill="#FFFFFF">&lt;=</text>
<circle cx="113.600000" cy="52.000000" r="1"/>
<line x1="108.600000" y1="57.000000" x2="111.600000" y2="58.000000"  transform="rotate(0.000000,111.600000,58.000000)" style="stroke: black; stroke-width:0.25;"/>
<line x1="108.600000" y1="59.000000" x2="111.600000" y2="58.000000"  transform="rotate(0.000000,111.600000,58.000000)" style="stroke: black; stroke-width:0.25;"/>
<line x1="108.600000" y1="65.000000" x2="111.600000" y2="66.000000"  transform="rotate(0.000000,111.600000,66.000000)" style="stroke: black; stroke-width:0.25;"/>
<line x1="108.600000" y1="67.000000" x2="111.600000" y2="66.000000"  transform="rotate(0.000000,111.600000,66.000000)" style="stroke: black; stroke-width:0.25;"/>
<rect x="48.800000" y="109.000000" width="24.000000" height="24.000000" rx="0" ry="0" style="stroke:none;fill:#cccccc;"/>
<rect x="47.800000" y="108.000000" width="24.000000" height="24.000000" rx="0" ry="0" style="stroke:none;fill:#47945E;"/>
<text x="59.800000" y="122.000000" font-family="Arial" font-size="7" text-anchor="middle" fill="#FFFFFF">y</text>
<circle cx="49.800000" cy="110.000000" r="1"/>
<rect x="48.800000" y="141.000000" width="24.000000" height="24.000000" rx="0" ry="0" style="stroke:none;fill:#cccccc;"/>
<rect x="47.800000" y="140.000000" width="24.000000" height="24.000000" rx="0" ry="0" style="stroke:none;fill:#f44800;"/>
<text x="59.800000" y="154.000000" font-family="Arial" font-size="7" text-anchor="middle" fill="#FFFFFF">0</text>
<circle cx="49.800000" cy="142.000000" r="1"/>
<rect x="88.800000" y="125.000000" width="24.000000" height="24.000000" rx="0" ry="0" style="stroke:none;fill:#cccccc;"/>
<rect x="87.800000" y="124.000000" width="24.000000" height="24.000000" rx="0" ry="0" style="stroke:none;fill:#4B71A1;"/>
<text x="99.800000" y="138.000000" font-family="Arial" font-size="7" text-anchor="middle" fill="#FFFFFF">&gt;</text>
<circle cx="89.800000" cy="126.000000" r="1"/>
<line x1="84.800000" y1="131.000000" x2="87.800000" y2="132.000000"  transform="rotate(0.000000,87.800000,132.000000)" style="stroke: black; stroke-width:0.25;"/>
<line x1="84.800000" y1="133.000000" x2="87.800000" y2="132.000000"  transform="rotate(0.000000,87.800000,132.000000)" style="stroke: black; stroke-width:0.25;"/>
<line x1="84.800000" y1="139.000000" x2="87.800000" y2="140.000000"  transform="rotate(0.000000,87.800000,140.000000)" style="stroke: black; stroke-width:0.25;"/>
<line x1="84.800000" y1="141.000000" x2="87.800000" y2="140.000000"  transform="rotate(0.000000,87.800000,140.000000)" style="stroke: black; stroke-width:0.25;"/>
<rect x="152.600000" y="83.000000" width="24.000000" height="24.000000" rx="0" ry="0" style="stroke:none;fill:#cccccc;"/>
<rect x="151.600000" y="82.000000" width="24.000000" height="24.000000" rx="0" ry="0" style="stroke:none;fill:#4B71A1;"/>
<text x="163.600000" y="96.000000" font-family="Arial" font-size="7" text-anchor="middle" fill="#FFFFFF">&amp;</text>
<circle cx="153.600000" cy="84.000000" r="1"/>
<line x1="148.600000" y1="89.000000" x2="151.600000" y2="90.000000"  transform="rotate(0.000000,151.600000,90.000000)" style="stroke: black; stroke-width:0.25;"/>
<line x1="148.600000" y1="91.000000" x2="151.600000" y2="90.000000"  transform="rotate(0.000000,151.600000,90.000000)" style="stroke: black; stroke-width:0.25;"/>
<line x1="148.600000" y1="97.000000" x2="151.600000" y2="98.000000"  transform="rotate(0.000000,151.600000,98.000000)" style="stroke: black; stroke-width:0.25;"/>
<line x1="148.600000" y1="99.000000" x2="151.600000" y2="98.000000"  transform="rotate(0.000000,151.600000,98.000000)" style="stroke: black; stroke-width:0.25;"/>
<line x1="15.000000" y1="15.000000" x2="15.000000" y2="173.000000"  style="stroke: black; stroke-linecap:round; stroke-width:0.25; stroke-dasharray:3,3;"/>
<line x1="15.000000" y1="173.000000" x2="184.600000" y2="173.000000"  style="stroke: black; stroke-linecap:round; stroke-width:0.25; stroke-dasharray:3,3;"/>
<line x1="184.600000" y1="173.000000" x2="184.600000" y2="15.000000"  style="stroke: black; stroke-linecap:round; stroke-width:0.25; stroke-dasharray:3,3;"/>
<line x1="15.000000" y1="15.000000" x2="20.000000" y2="15.000000"  style="stroke: black; stroke-linecap:round; stroke-width:0.25; stroke-dasharray:3,3;"/>
<line x1="32.900000" y1="15.000000" x2="184.600000" y2="15.000000"  style="stroke: black; stroke-linecap:round; stroke-width:0.25; stroke-dasharray:3,3;"/>
<text x="20.000000" y="17.000000" font-family="Arial" font-size="7">p3</text>
<line x1="186.600000" y1="93.000000" x2="189.600000" y2="94.000000"  transform="rotate(0.000000,189.600000,94.000000)" style="stroke: black; stroke-width:0.25;"/>
<line x1="186.600000" y1="95.000000" x2="189.600000" y2="94.000000"  transform="rotate(0.000000,189.600000,94.000000)" style="stroke: black; stroke-width:0.25;"/>
<line x1="71.800000" y1="88.000000" x2="75.800000" y2="88.000000"  style="stroke:black; stroke-linecap:round; stroke-width:0.25;"/>
<line x1="71.800000" y1="120.000000" x2="75.800000" y2="120.000000"  style="stroke:black; stroke-linecap:round; stroke-width:0.25;"/>
<line x1="71.800000" y1="152.000000" x2="75.800000" y2="152.000000"  style="stroke:black; stroke-linecap:round; stroke-width:0.25;"/>
<line x1="75.800000" y1="88.000000" x2="99.600000" y2="88.000000"  style="stroke:black; stroke-linecap:round; stroke-width:0.25;"/>
<line x1="75.800000" y1="120.000000" x2="83.800000" y2="120.000000"  style="stroke:black; stroke-linecap:round; stroke-width:0.25;"/>
<line x1="75.800000" y1="140.000000" x2="83.800000" y2="140.000000"  style="stroke:black; stroke-linecap:round; stroke-width:0.25;"/>
<line x1="75.800000" y1="152.000000" x2="75.800000" y2="140.000000"  style="stroke:black; stroke-linecap:round; stroke-width:0.25;"/>
<line x1="75.800000" y1="152.000000" x2="75.800000" y2="152.000000"  style="stroke:black; stroke-linecap:round; stroke-width:0.25;"/>
<line x1="83.800000" y1="120.000000" x2="83.800000" y2="132.000000"  style="stroke:black; stroke-linecap:round; stroke-width:0.25;"/>
<line x1="83.800000" y1="132.000000" x2="83.800000" y2="132.000000"  style="stroke:black; stroke-linecap:round; stroke-width:0.25;"/>
<line x1="83.800000" y1="132.000000" x2="87.800000" y2="132.000000"  style="stroke:black; stroke-linecap:round; stroke-width:0.25;"/>
<line x1="83.800000" y1="140.000000" x2="87.800000" y2="140.000000"  style="stroke:black; stroke-linecap:round; stroke-width:0.25;"/>
<line x1="85.600000" y1="46.000000" x2="89.600000" y2="46.000000"  style="stroke:black; stroke-linecap:round; stroke-width:0.25;"/>
<line x1="89.600000" y1="46.000000" x2="99.600000" y2="46.000000"  style="stroke:black; stroke-linecap:round; stroke-width:0.25;"/>
<line x1="99.600000" y1="46.000000" x2="107.600000" y2="46.000000"  style="stroke:black; stroke-linecap:round; stroke-width:0.25;"/>
<line x1="99.600000" y1="66.000000" x2="107.600000" y2="66.000000"  style="stroke:black; stroke-linecap:round; stroke-width:0.25;"/>
<line x1="99.600000" y1="88.000000" x2="99.600000" y2="66.000000"  style="stroke:black; stroke-linecap:round; stroke-width:0.25;"/>
<line x1="99.600000" y1="88.000000" x2="99.600000" y2="88.000000"  style="stroke:black; stroke-linecap:round; stroke-width:0.25;"/>
<line x1="107.600000" y1="46.000000" x2="107.600000" y2="58.000000"  style="stroke:black; stroke-linecap:round; stroke-width:0.25;"/>
<line x1="107.600000" y1="58.000000" x2="107.600000" y2="58.000000"  style="stroke:black; stroke-linecap:round; stroke-width:0.25;"/>
<line x1="107.600000" y1="58.000000" x2="111.600000" y2="58.000000"  style="stroke:black; stroke-linecap:round; stroke-width:0.25;"/>
<line x1="107.600000" y1="66.000000" x2="111.600000" y2="66.000000"  style="stroke:black; stroke-linecap:round; stroke-width:0.25;"/>
<line x1="111.800000" y1="136.000000" x2="115.800000" y2="136.000000"  style="stroke:black; stroke-linecap:round; stroke-width:0.25;"/>
<line x1="115.800000" y1="136.000000" x2="139.600000" y2="136.000000"  style="stroke:black; stroke-linecap:round; stroke-width:0.25;"/>
<line x1="135.600000" y1="62.000000" x2="139.600000" y2="62.000000"  style="stroke:black; stroke-linecap:round; stroke-width:0.25;"/>
<line x1="139.600000" y1="62.000000" x2="147.600000" y2="62.000000"  style="stroke:black; stroke-linecap:round; stroke-width:0.25;"/>
<line x1="139.600000" y1="98.000000" x2="147.600000" y2="98.000000"  style="stroke:black; stroke-linecap:round; stroke-width:0.25;"/>
<line x1="139.600000" y1="136.000000" x2="139.600000" y2="98.000000"  style="stroke:black; stroke-linecap:round; stroke-width:0.25;"/>
<line x1="139.600000" y1="136.000000" x2="139.600000" y2="136.000000"  style="stroke:black; stroke-linecap:round; stroke-width:0.25;"/>
<line x1="147.600000" y1="62.000000" x2="147.600000" y2="90.000000"  style="stroke:black; stroke-linecap:round; stroke-width:0.25;"/>
<line x1="147.600000" y1="90.000000" x2="147.600000" y2="90.000000"  style="stroke:black; stroke-linecap:round; stroke-width:0.25;"/>
<line x1="147.600000" y1="90.000000" x2="151.600000" y2="90.000000"  style="stroke:black; stroke-linecap:round; stroke-width:0.25;"/>
<line x1="147.600000" y1="98.000000" x2="151.600000" y2="98.000000"  style="stroke:black; stroke-linecap:round; stroke-width:0.25;"/>
<line x1="175.600000" y1="94.000000" x2="179.600000" y2="94.000000"  style="stroke:black; stroke-linecap:round; stroke-width:0.25;"/>
<line x1="179.600000" y1="94.000000" x2="189.600000" y2="94.000000"  style="stroke:black; stroke-linecap:round; stroke-width:0.25;"/>
</svg>
