<?xml version="1.0"?>
<svg xmlns="http://www.w3.org/2000/svg" xmlns:xlink="http://www.w3.org/1999/xlink" viewBox="0 0 187.200000 80.000000" width="93.600000mm" height="40.000000mm" version="1.1">
<a xlink:href="process.svg">
<rect x="1.000000" y="1.000000" width="186.200000" height="79.000000" rx="0" ry="0" style="stroke:none;fill:#cccccc;"/>
<rect x="0.000000" y="0.000000" width="186.200000" height="79.000000" rx="0" ry="0" style="stroke:none;fill:#ffffff;"/>
</a>
<text x="10.000000" y="7.000000" font-family="Arial" font-size="7"></text>
<a xlink:href="widthdelay-0x33dcad0.svg">
<rect x="45.000000" y="33.000000" width="51.600000" height="24.000000" rx="0" ry="0" style="stroke:none;fill:#cccccc;"/>
<rect x="44.000000" y="32.000000" width="51.600000" height="24.000000" rx="0" ry="0" style="stroke:none;fill:#003366;"/>
</a>
<a xlink:href="widthdelay-0x33dcad0.svg">
<text x="69.800000" y="46.000000" font-family="Arial" font-size="7" text-anchor="middle" fill="#FFFFFF">widthdelay</text>
</a>
<circle cx="46.000000" cy="34.000000" r="1"/>
<line x1="41.000000" y1="43.000000" x2="44.000000" y2="44.000000"  transform="rotate(0.000000,44.000000,44.000000)" style="stroke: black; stroke-width:0.25;"/>
<line x1="41.000000" y1="45.000000" x2="44.000000" y2="44.000000"  transform="rotate(0.000000,44.000000,44.000000)" style="stroke: black; stroke-width:0.25;"/>
<a xlink:href="stereopanner-0x3323ef0.svg">
<rect x="112.600000" y="29.000000" width="51.600000" height="24.000000" rx="0" ry="0" style="stroke:none;fill:#cccccc;"/>
<rect x="111.600000" y="28.000000" width="51.600000" height="24.000000" rx="0" ry="0" style="stroke:none;fill:#003366;"/>
</a>
<a xlink:href="stereopanner-0x3323ef0.svg">
<text x="137.400000" y="42.000000" font-family="Arial" font-size="7" text-anchor="middle" fill="#FFFFFF">stereopanner</text>
</a>
<circle cx="113.600000" cy="30.000000" r="1"/>
<line x1="108.600000" y1="35.000000" x2="111.600000" y2="36.000000"  transform="rotate(0.000000,111.600000,36.000000)" style="stroke: black; stroke-width:0.25;"/>
<line x1="108.600000" y1="37.000000" x2="111.600000" y2="36.000000"  transform="rotate(0.000000,111.600000,36.000000)" style="stroke: black; stroke-width:0.25;"/>
<line x1="108.600000" y1="43.000000" x2="111.600000" y2="44.000000"  transform="rotate(0.000000,111.600000,44.000000)" style="stroke: black; stroke-width:0.25;"/>
<line x1="108.600000" y1="45.000000" x2="111.600000" y2="44.000000"  transform="rotate(0.000000,111.600000,44.000000)" style="stroke: black; stroke-width:0.25;"/>
<line x1="15.000000" y1="15.000000" x2="15.000000" y2="65.000000"  style="stroke: black; stroke-linecap:round; stroke-width:0.25; stroke-dasharray:3,3;"/>
<line x1="15.000000" y1="65.000000" x2="172.200000" y2="65.000000"  style="stroke: black; stroke-linecap:round; stroke-width:0.25; stroke-dasharray:3,3;"/>
<line x1="172.200000" y1="65.000000" x2="172.200000" y2="15.000000"  style="stroke: black; stroke-linecap:round; stroke-width:0.25; stroke-dasharray:3,3;"/>
<line x1="15.000000" y1="15.000000" x2="20.000000" y2="15.000000"  style="stroke: black; stroke-linecap:round; stroke-width:0.25; stroke-dasharray:3,3;"/>
<line x1="45.800000" y1="15.000000" x2="172.200000" y2="15.000000"  style="stroke: black; stroke-linecap:round; stroke-width:0.25; stroke-dasharray:3,3;"/>
<text x="20.000000" y="17.000000" font-family="Arial" font-size="7">stereo</text>
<line x1="174.200000" y1="35.000000" x2="177.200000" y2="36.000000"  transform="rotate(0.000000,177.200000,36.000000)" style="stroke: black; stroke-width:0.25;"/>
<line x1="174.200000" y1="37.000000" x2="177.200000" y2="36.000000"  transform="rotate(0.000000,177.200000,36.000000)" style="stroke: black; stroke-width:0.25;"/>
<line x1="174.200000" y1="43.000000" x2="177.200000" y2="44.000000"  transform="rotate(0.000000,177.200000,44.000000)" style="stroke: black; stroke-width:0.25;"/>
<line x1="174.200000" y1="45.000000" x2="177.200000" y2="44.000000"  transform="rotate(0.000000,177.200000,44.000000)" style="stroke: black; stroke-width:0.25;"/>
<line x1="10.000000" y1="40.000000" x2="20.000000" y2="40.000000"  style="stroke:black; stroke-linecap:round; stroke-width:0.25;"/>
<line x1="20.000000" y1="40.000000" x2="24.000000" y2="40.000000"  style="stroke:black; stroke-linecap:round; stroke-width:0.25;"/>
<line x1="24.000000" y1="40.000000" x2="28.000000" y2="40.000000"  style="stroke:black; stroke-linecap:round; stroke-width:0.25;"/>
<line x1="28.000000" y1="40.000000" x2="40.000000" y2="24.000000"  style="stroke:black; stroke-linecap:round; stroke-width:0.25;"/>
<line x1="28.000000" y1="40.000000" x2="40.000000" y2="44.000000"  style="stroke:black; stroke-linecap:round; stroke-width:0.25;"/>
<line x1="40.000000" y1="24.000000" x2="69.800000" y2="24.000000"  style="stroke:black; stroke-linecap:round; stroke-width:0.25;"/>
<line x1="40.000000" y1="44.000000" x2="44.000000" y2="44.000000"  style="stroke:black; stroke-linecap:round; stroke-width:0.25;"/>
<line x1="69.800000" y1="24.000000" x2="99.600000" y2="24.000000"  style="stroke:black; stroke-linecap:round; stroke-width:0.25;"/>
<line x1="95.600000" y1="44.000000" x2="99.600000" y2="44.000000"  style="stroke:black; stroke-linecap:round; stroke-width:0.25;"/>
<line x1="99.600000" y1="24.000000" x2="107.600000" y2="24.000000"  style="stroke:black; stroke-linecap:round; stroke-width:0.25;"/>
<line x1="99.600000" y1="44.000000" x2="107.600000" y2="44.000000"  style="stroke:black; stroke-linecap:round; stroke-width:0.25;"/>
<line x1="107.600000" y1="24.000000" x2="107.600000" y2="36.000000"  style="stroke:black; stroke-linecap:round; stroke-width:0.25;"/>
<line x1="107.600000" y1="36.000000" x2="107.600000" y2="36.000000"  style="stroke:black; stroke-linecap:round; stroke-width:0.25;"/>
<line x1="107.600000" y1="36.000000" x2="111.600000" y2="36.000000"  style="stroke:black; stroke-linecap:round; stroke-width:0.25;"/>
<line x1="107.600000" y1="44.000000" x2="111.600000" y2="44.000000"  style="stroke:black; stroke-linecap:round; stroke-width:0.25;"/>
<line x1="163.200000" y1="36.000000" x2="167.200000" y2="36.000000"  style="stroke:black; stroke-linecap:round; stroke-width:0.25;"/>
<line x1="163.200000" y1="44.000000" x2="167.200000" y2="44.000000"  style="stroke:black; stroke-linecap:round; stroke-width:0.25;"/>
<line x1="167.200000" y1="36.000000" x2="177.200000" y2="36.000000"  style="stroke:black; stroke-linecap:round; stroke-width:0.25;"/>
<line x1="167.200000" y1="44.000000" x2="177.200000" y2="44.000000"  style="stroke:black; stroke-linecap:round; stroke-width:0.25;"/>
</svg>
