<?xml version="1.0"?>
<svg xmlns="http://www.w3.org/2000/svg" xmlns:xlink="http://www.w3.org/1999/xlink" viewBox="0 0 185.000000 72.000000" width="92.500000mm" height="36.000000mm" version="1.1">
<a xlink:href="flute-0x33d9f90.svg">
<rect x="1.000000" y="1.000000" width="184.000000" height="71.000000" rx="0" ry="0" style="stroke:none;fill:#cccccc;"/>
<rect x="0.000000" y="0.000000" width="184.000000" height="71.000000" rx="0" ry="0" style="stroke:none;fill:#ffffff;"/>
</a>
<text x="10.000000" y="7.000000" font-family="Arial" font-size="7"></text>
<a xlink:href="boundaryLossFilt-0x33b8ed0.svg">
<rect x="25.000000" y="25.000000" width="77.400000" height="24.000000" rx="0" ry="0" style="stroke:none;fill:#cccccc;"/>
<rect x="24.000000" y="24.000000" width="77.400000" height="24.000000" rx="0" ry="0" style="stroke:none;fill:#003366;"/>
</a>
<a xlink:href="boundaryLossFilt-0x33b8ed0.svg">
<text x="62.700000" y="38.000000" font-family="Arial" font-size="7" text-anchor="middle" fill="#FFFFFF">boundaryLossFilter</text>
</a>
<circle cx="26.000000" cy="26.000000" r="1"/>
<line x1="21.000000" y1="35.000000" x2="24.000000" y2="36.000000"  transform="rotate(0.000000,24.000000,36.000000)" style="stroke: black; stroke-width:0.25;"/>
<line x1="21.000000" y1="37.000000" x2="24.000000" y2="36.000000"  transform="rotate(0.000000,24.000000,36.000000)" style="stroke: black; stroke-width:0.25;"/>
<a xlink:href="upperDelay-0x33c82e0.svg">
<rect x="110.400000" y="25.000000" width="51.600000" height="24.000000" rx="0" ry="0" style="stroke:none;fill:#cccccc;"/>
<rect x="109.400000" y="24.000000" width="51.600000" height="24.000000" rx="0" ry="0" style="stroke:none;fill:#003366;"/>
</a>
<a xlink:href="upperDelay-0x33c82e0.svg">
<text x="135.200000" y="38.000000" font-family="Arial" font-size="7" text-anchor="middle" fill="#FFFFFF">upperDelay</text>
</a>
<circle cx="111.400000" cy="26.000000" r="1"/>
<line x1="106.400000" y1="35.000000" x2="109.400000" y2="36.000000"  transform="rotate(0.000000,109.400000,36.000000)" style="stroke: black; stroke-width:0.25;"/>
<line x1="106.400000" y1="37.000000" x2="109.400000" y2="36.000000"  transform="rotate(0.000000,109.400000,36.000000)" style="stroke: black; stroke-width:0.25;"/>
<line x1="15.000000" y1="15.000000" x2="15.000000" y2="57.000000"  style="stroke: black; stroke-linecap:round; stroke-width:0.25; stroke-dasharray:3,3;"/>
<line x1="15.000000" y1="57.000000" x2="170.000000" y2="57.000000"  style="stroke: black; stroke-linecap:round; stroke-width:0.25; stroke-dasharray:3,3;"/>
<line x1="170.000000" y1="57.000000" x2="170.000000" y2="15.000000"  style="stroke: black; stroke-linecap:round; stroke-width:0.25; stroke-dasharray:3,3;"/>
<line x1="15.000000" y1="15.000000" x2="20.000000" y2="15.000000"  style="stroke: black; stroke-linecap:round; stroke-width:0.25; stroke-dasharray:3,3;"/>
<line x1="55.475000" y1="15.000000" x2="170.000000" y2="15.000000"  style="stroke: black; stroke-linecap:round; stroke-width:0.25; stroke-dasharray:3,3;"/>
<text x="20.000000" y="17.000000" font-family="Arial" font-size="7">upperBore</text>
<line x1="172.000000" y1="35.000000" x2="175.000000" y2="36.000000"  transform="rotate(0.000000,175.000000,36.000000)" style="stroke: black; stroke-width:0.25;"/>
<line x1="172.000000" y1="37.000000" x2="175.000000" y2="36.000000"  transform="rotate(0.000000,175.000000,36.000000)" style="stroke: black; stroke-width:0.25;"/>
<line x1="10.000000" y1="36.000000" x2="20.000000" y2="36.000000"  style="stroke:black; stroke-linecap:round; stroke-width:0.25;"/>
<line x1="20.000000" y1="36.000000" x2="24.000000" y2="36.000000"  style="stroke:black; stroke-linecap:round; stroke-width:0.25;"/>
<line x1="101.400000" y1="36.000000" x2="105.400000" y2="36.000000"  style="stroke:black; stroke-linecap:round; stroke-width:0.25;"/>
<line x1="105.400000" y1="36.000000" x2="105.400000" y2="36.000000"  style="stroke:black; stroke-linecap:round; stroke-width:0.25;"/>
<line x1="105.400000" y1="36.000000" x2="109.400000" y2="36.000000"  style="stroke:black; stroke-linecap:round; stroke-width:0.25;"/>
<line x1="161.000000" y1="36.000000" x2="165.000000" y2="36.000000"  style="stroke:black; stroke-linecap:round; stroke-width:0.25;"/>
<line x1="165.000000" y1="36.000000" x2="175.000000" y2="36.000000"  style="stroke:black; stroke-linecap:round; stroke-width:0.25;"/>
</svg>
