<?xml version="1.0"?>
<svg xmlns="http://www.w3.org/2000/svg" xmlns:xlink="http://www.w3.org/1999/xlink" viewBox="0 0 212.000000 188.000000" width="106.000000mm" height="94.000000mm" version="1.1">
<a xlink:href="v-0x3384260.svg">
<rect x="1.000000" y="1.000000" width="211.000000" height="187.000000" rx="0" ry="0" style="stroke:none;fill:#cccccc;"/>
<rect x="0.000000" y="0.000000" width="211.000000" height="187.000000" rx="0" ry="0" style="stroke:none;fill:#ffffff;"/>
</a>
<text x="10.000000" y="7.000000" font-family="Arial" font-size="7"></text>
<rect x="75.000000" y="25.000000" width="24.000000" height="24.000000" rx="0" ry="0" style="stroke:none;fill:#cccccc;"/>
<rect x="74.000000" y="24.000000" width="24.000000" height="24.000000" rx="0" ry="0" style="stroke:none;fill:#f44800;"/>
<text x="86.000000" y="38.000000" font-family="Arial" font-size="7" text-anchor="middle" fill="#FFFFFF">80</text>
<circle cx="76.000000" cy="26.000000" r="1"/>
<rect x="35.000000" y="57.000000" width="24.000000" height="24.000000" rx="0" ry="0" style="stroke:none;fill:#cccccc;"/>
<rect x="34.000000" y="56.000000" width="24.000000" height="24.000000" rx="0" ry="0" style="stroke:none;fill:#f44800;"/>
<text x="46.000000" y="70.000000" font-family="Arial" font-size="7" text-anchor="middle" fill="#FFFFFF">80</text>
<circle cx="36.000000" cy="58.000000" r="1"/>
<rect x="35.000000" y="99.000000" width="24.000000" height="24.000000" rx="0" ry="0" style="stroke:none;fill:#cccccc;"/>
<rect x="34.000000" y="98.000000" width="24.000000" height="24.000000" rx="0" ry="0" style="stroke:none;fill:#f44800;"/>
<text x="46.000000" y="112.000000" font-family="Arial" font-size="7" text-anchor="middle" fill="#FFFFFF">0</text>
<circle cx="36.000000" cy="100.000000" r="1"/>
<line x1="25.000000" y1="89.000000" x2="25.000000" y2="131.000000"  style="stroke: black; stroke-linecap:round; stroke-width:0.25; stroke-dasharray:3,3;"/>
<line x1="25.000000" y1="131.000000" x2="67.000000" y2="131.000000"  style="stroke: black; stroke-linecap:round; stroke-width:0.25; stroke-dasharray:3,3;"/>
<line x1="67.000000" y1="131.000000" x2="67.000000" y2="89.000000"  style="stroke: black; stroke-linecap:round; stroke-width:0.25; stroke-dasharray:3,3;"/>
<line x1="25.000000" y1="89.000000" x2="30.000000" y2="89.000000"  style="stroke: black; stroke-linecap:round; stroke-width:0.25; stroke-dasharray:3,3;"/>
<line x1="67.000000" y1="89.000000" x2="67.000000" y2="89.000000"  style="stroke: black; stroke-linecap:round; stroke-width:0.25; stroke-dasharray:3,3;"/>
<text x="30.000000" y="91.000000" font-family="Arial" font-size="7">sigmOffset</text>
<rect x="85.000000" y="83.000000" width="24.000000" height="24.000000" rx="0" ry="0" style="stroke:none;fill:#cccccc;"/>
<rect x="84.000000" y="82.000000" width="24.000000" height="24.000000" rx="0" ry="0" style="stroke:none;fill:#4B71A1;"/>
<text x="96.000000" y="96.000000" font-family="Arial" font-size="7" text-anchor="middle" fill="#FFFFFF">==</text>
<circle cx="86.000000" cy="84.000000" r="1"/>
<line x1="81.000000" y1="89.000000" x2="84.000000" y2="90.000000"  transform="rotate(0.000000,84.000000,90.000000)" style="stroke: black; stroke-width:0.25;"/>
<line x1="81.000000" y1="91.000000" x2="84.000000" y2="90.000000"  transform="rotate(0.000000,84.000000,90.000000)" style="stroke: black; stroke-width:0.25;"/>
<line x1="81.000000" y1="97.000000" x2="84.000000" y2="98.000000"  transform="rotate(0.000000,84.000000,98.000000)" style="stroke: black; stroke-width:0.25;"/>
<line x1="81.000000" y1="99.000000" x2="84.000000" y2="98.000000"  transform="rotate(0.000000,84.000000,98.000000)" style="stroke: black; stroke-width:0.25;"/>
<a xlink:href="db2linear-0x337e600.svg">
<rect x="47.650000" y="141.000000" width="38.700000" height="24.000000" rx="0" ry="0" style="stroke:none;fill:#cccccc;"/>
<rect x="46.650000" y="140.000000" width="38.700000" height="24.000000" rx="0" ry="0" style="stroke:none;fill:#003366;"/>
</a>
<a xlink:href="db2linear-0x337e600.svg">
<text x="66.000000" y="154.000000" font-family="Arial" font-size="7" text-anchor="middle" fill="#FFFFFF">db2linear</text>
</a>
<circle cx="48.650000" cy="142.000000" r="1"/>
<rect x="125.000000" y="99.000000" width="24.000000" height="24.000000" rx="0" ry="0" style="stroke:none;fill:#cccccc;"/>
<rect x="124.000000" y="98.000000" width="24.000000" height="24.000000" rx="0" ry="0" style="stroke:none;fill:#4B71A1;"/>
<text x="136.000000" y="112.000000" font-family="Arial" font-size="7" text-anchor="middle" fill="#FFFFFF">*</text>
<circle cx="126.000000" cy="100.000000" r="1"/>
<line x1="121.000000" y1="105.000000" x2="124.000000" y2="106.000000"  transform="rotate(0.000000,124.000000,106.000000)" style="stroke: black; stroke-width:0.25;"/>
<line x1="121.000000" y1="107.000000" x2="124.000000" y2="106.000000"  transform="rotate(0.000000,124.000000,106.000000)" style="stroke: black; stroke-width:0.25;"/>
<line x1="121.000000" y1="113.000000" x2="124.000000" y2="114.000000"  transform="rotate(0.000000,124.000000,114.000000)" style="stroke: black; stroke-width:0.25;"/>
<line x1="121.000000" y1="115.000000" x2="124.000000" y2="114.000000"  transform="rotate(0.000000,124.000000,114.000000)" style="stroke: black; stroke-width:0.25;"/>
<rect x="165.000000" y="83.000000" width="24.000000" height="24.000000" rx="0" ry="0" style="stroke:none;fill:#cccccc;"/>
<rect x="164.000000" y="82.000000" width="24.000000" height="24.000000" rx="0" ry="0" style="stroke:none;fill:#4B71A1;"/>
<text x="176.000000" y="96.000000" font-family="Arial" font-size="7" text-anchor="middle" fill="#FFFFFF">+</text>
<circle cx="166.000000" cy="84.000000" r="1"/>
<line x1="161.000000" y1="89.000000" x2="164.000000" y2="90.000000"  transform="rotate(0.000000,164.000000,90.000000)" style="stroke: black; stroke-width:0.25;"/>
<line x1="161.000000" y1="91.000000" x2="164.000000" y2="90.000000"  transform="rotate(0.000000,164.000000,90.000000)" style="stroke: black; stroke-width:0.25;"/>
<line x1="161.000000" y1="97.000000" x2="164.000000" y2="98.000000"  transform="rotate(0.000000,164.000000,98.000000)" style="stroke: black; stroke-width:0.25;"/>
<line x1="161.000000" y1="99.000000" x2="164.000000" y2="98.000000"  transform="rotate(0.000000,164.000000,98.000000)" style="stroke: black; stroke-width:0.25;"/>
<line x1="15.000000" y1="15.000000" x2="15.000000" y2="173.000000"  style="stroke: black; stroke-linecap:round; stroke-width:0.25; stroke-dasharray:3,3;"/>
<line x1="15.000000" y1="173.000000" x2="197.000000" y2="173.000000"  style="stroke: black; stroke-linecap:round; stroke-width:0.25; stroke-dasharray:3,3;"/>
<line x1="197.000000" y1="173.000000" x2="197.000000" y2="15.000000"  style="stroke: black; stroke-linecap:round; stroke-width:0.25; stroke-dasharray:3,3;"/>
<line x1="15.000000" y1="15.000000" x2="20.000000" y2="15.000000"  style="stroke: black; stroke-linecap:round; stroke-width:0.25; stroke-dasharray:3,3;"/>
<line x1="29.675000" y1="15.000000" x2="197.000000" y2="15.000000"  style="stroke: black; stroke-linecap:round; stroke-width:0.25; stroke-dasharray:3,3;"/>
<text x="20.000000" y="17.000000" font-family="Arial" font-size="7">z</text>
<line x1="199.000000" y1="93.000000" x2="202.000000" y2="94.000000"  transform="rotate(0.000000,202.000000,94.000000)" style="stroke: black; stroke-width:0.25;"/>
<line x1="199.000000" y1="95.000000" x2="202.000000" y2="94.000000"  transform="rotate(0.000000,202.000000,94.000000)" style="stroke: black; stroke-width:0.25;"/>
<line x1="58.000000" y1="68.000000" x2="62.000000" y2="68.000000"  style="stroke:black; stroke-linecap:round; stroke-width:0.25;"/>
<line x1="58.000000" y1="110.000000" x2="62.000000" y2="110.000000"  style="stroke:black; stroke-linecap:round; stroke-width:0.25;"/>
<line x1="62.000000" y1="68.000000" x2="72.000000" y2="68.000000"  style="stroke:black; stroke-linecap:round; stroke-width:0.25;"/>
<line x1="62.000000" y1="110.000000" x2="72.000000" y2="110.000000"  style="stroke:black; stroke-linecap:round; stroke-width:0.25;"/>
<line x1="72.000000" y1="68.000000" x2="80.000000" y2="68.000000"  style="stroke:black; stroke-linecap:round; stroke-width:0.25;"/>
<line x1="72.000000" y1="98.000000" x2="80.000000" y2="98.000000"  style="stroke:black; stroke-linecap:round; stroke-width:0.25;"/>
<line x1="72.000000" y1="110.000000" x2="72.000000" y2="98.000000"  style="stroke:black; stroke-linecap:round; stroke-width:0.25;"/>
<line x1="72.000000" y1="110.000000" x2="72.000000" y2="110.000000"  style="stroke:black; stroke-linecap:round; stroke-width:0.25;"/>
<line x1="80.000000" y1="68.000000" x2="80.000000" y2="90.000000"  style="stroke:black; stroke-linecap:round; stroke-width:0.25;"/>
<line x1="80.000000" y1="90.000000" x2="80.000000" y2="90.000000"  style="stroke:black; stroke-linecap:round; stroke-width:0.25;"/>
<line x1="80.000000" y1="90.000000" x2="84.000000" y2="90.000000"  style="stroke:black; stroke-linecap:round; stroke-width:0.25;"/>
<line x1="80.000000" y1="98.000000" x2="84.000000" y2="98.000000"  style="stroke:black; stroke-linecap:round; stroke-width:0.25;"/>
<line x1="85.350000" y1="152.000000" x2="89.350000" y2="152.000000"  style="stroke:black; stroke-linecap:round; stroke-width:0.25;"/>
<line x1="89.350000" y1="152.000000" x2="112.000000" y2="152.000000"  style="stroke:black; stroke-linecap:round; stroke-width:0.25;"/>
<line x1="98.000000" y1="36.000000" x2="102.000000" y2="36.000000"  style="stroke:black; stroke-linecap:round; stroke-width:0.25;"/>
<line x1="102.000000" y1="36.000000" x2="152.000000" y2="36.000000"  style="stroke:black; stroke-linecap:round; stroke-width:0.25;"/>
<line x1="108.000000" y1="94.000000" x2="112.000000" y2="94.000000"  style="stroke:black; stroke-linecap:round; stroke-width:0.25;"/>
<line x1="112.000000" y1="94.000000" x2="120.000000" y2="94.000000"  style="stroke:black; stroke-linecap:round; stroke-width:0.25;"/>
<line x1="112.000000" y1="114.000000" x2="120.000000" y2="114.000000"  style="stroke:black; stroke-linecap:round; stroke-width:0.25;"/>
<line x1="112.000000" y1="152.000000" x2="112.000000" y2="114.000000"  style="stroke:black; stroke-linecap:round; stroke-width:0.25;"/>
<line x1="112.000000" y1="152.000000" x2="112.000000" y2="152.000000"  style="stroke:black; stroke-linecap:round; stroke-width:0.25;"/>
<line x1="120.000000" y1="94.000000" x2="120.000000" y2="106.000000"  style="stroke:black; stroke-linecap:round; stroke-width:0.25;"/>
<line x1="120.000000" y1="106.000000" x2="120.000000" y2="106.000000"  style="stroke:black; stroke-linecap:round; stroke-width:0.25;"/>
<line x1="120.000000" y1="106.000000" x2="124.000000" y2="106.000000"  style="stroke:black; stroke-linecap:round; stroke-width:0.25;"/>
<line x1="120.000000" y1="114.000000" x2="124.000000" y2="114.000000"  style="stroke:black; stroke-linecap:round; stroke-width:0.25;"/>
<line x1="148.000000" y1="110.000000" x2="152.000000" y2="110.000000"  style="stroke:black; stroke-linecap:round; stroke-width:0.25;"/>
<line x1="152.000000" y1="36.000000" x2="160.000000" y2="36.000000"  style="stroke:black; stroke-linecap:round; stroke-width:0.25;"/>
<line x1="152.000000" y1="98.000000" x2="160.000000" y2="98.000000"  style="stroke:black; stroke-linecap:round; stroke-width:0.25;"/>
<line x1="152.000000" y1="110.000000" x2="152.000000" y2="98.000000"  style="stroke:black; stroke-linecap:round; stroke-width:0.25;"/>
<line x1="152.000000" y1="110.000000" x2="152.000000" y2="110.000000"  style="stroke:black; stroke-linecap:round; stroke-width:0.25;"/>
<line x1="160.000000" y1="36.000000" x2="160.000000" y2="90.000000"  style="stroke:black; stroke-linecap:round; stroke-width:0.25;"/>
<line x1="160.000000" y1="90.000000" x2="160.000000" y2="90.000000"  style="stroke:black; stroke-linecap:round; stroke-width:0.25;"/>
<line x1="160.000000" y1="90.000000" x2="164.000000" y2="90.000000"  style="stroke:black; stroke-linecap:round; stroke-width:0.25;"/>
<line x1="160.000000" y1="98.000000" x2="164.000000" y2="98.000000"  style="stroke:black; stroke-linecap:round; stroke-width:0.25;"/>
<line x1="188.000000" y1="94.000000" x2="192.000000" y2="94.000000"  style="stroke:black; stroke-linecap:round; stroke-width:0.25;"/>
<line x1="192.000000" y1="94.000000" x2="202.000000" y2="94.000000"  style="stroke:black; stroke-linecap:round; stroke-width:0.25;"/>
</svg>
